<svg width="32" height="32" viewBox="0 0 32 32" fill="none" xmlns="http://www.w3.org/2000/svg">
<path d="M31 32H1C0.734784 32 0.48043 31.8946 0.292893 31.7071C0.105357 31.5196 0 31.2652 0 31C0 30.7348 0.105357 30.4804 0.292893 30.2929C0.48043 30.1054 0.734784 30 1 30H31C31.2652 30 31.5196 30.1054 31.7071 30.2929C31.8946 30.4804 32 30.7348 32 31C32 31.2652 31.8946 31.5196 31.7071 31.7071C31.5196 31.8946 31.2652 32 31 32Z" fill="#202F59"/>
<path d="M27 32H5C4.73478 32 4.48043 31.8946 4.29289 31.7071C4.10536 31.5196 4 31.2652 4 31V11C4 10.2044 4.31607 9.44129 4.87868 8.87868C5.44129 8.31607 6.20435 8 7 8H25C25.7956 8 26.5587 8.31607 27.1213 8.87868C27.6839 9.44129 28 10.2044 28 11V27C28 27.2652 27.8946 27.5196 27.7071 27.7071C27.5196 27.8946 27.2652 28 27 28C26.7348 28 26.4804 27.8946 26.2929 27.7071C26.1054 27.5196 26 27.2652 26 27V11C26 10.7348 25.8946 10.4804 25.7071 10.2929C25.5196 10.1054 25.2652 10 25 10H7C6.73478 10 6.48043 10.1054 6.29289 10.2929C6.10536 10.4804 6 10.7348 6 11V30H27C27.2652 30 27.5196 30.1054 27.7071 30.2929C27.8946 30.4804 28 30.7348 28 31C28 31.2652 27.8946 31.5196 27.7071 31.7071C27.5196 31.8946 27.2652 32 27 32Z" fill="#202F59"/>
<path d="M27 6H5C4.73478 6 4.48043 5.89464 4.29289 5.70711C4.10536 5.51957 4 5.26522 4 5V1C4 0.734784 4.10536 0.48043 4.29289 0.292893C4.48043 0.105357 4.73478 0 5 0L27 0C27.2652 0 27.5196 0.105357 27.7071 0.292893C27.8946 0.48043 28 0.734784 28 1V5C28 5.26522 27.8946 5.51957 27.7071 5.70711C27.5196 5.89464 27.2652 6 27 6ZM6 4H26V2H6V4Z" fill="#202F59"/>
<path d="M8 10C7.73478 10 7.48043 9.89464 7.29289 9.70711C7.10536 9.51957 7 9.26522 7 9V5C7 4.73478 7.10536 4.48043 7.29289 4.29289C7.48043 4.10536 7.73478 4 8 4C8.26522 4 8.51957 4.10536 8.70711 4.29289C8.89464 4.48043 9 4.73478 9 5V9C9 9.26522 8.89464 9.51957 8.70711 9.70711C8.51957 9.89464 8.26522 10 8 10Z" fill="#202F59"/>
<path d="M24 10C23.7348 10 23.4804 9.89464 23.2929 9.70711C23.1054 9.51957 23 9.26522 23 9V5C23 4.73478 23.1054 4.48043 23.2929 4.29289C23.4804 4.10536 23.7348 4 24 4C24.2652 4 24.5196 4.10536 24.7071 4.29289C24.8946 4.48043 25 4.73478 25 5V9C25 9.26522 24.8946 9.51957 24.7071 9.70711C24.5196 9.89464 24.2652 10 24 10Z" fill="#202F59"/>
<path d="M19 32H13C12.7348 32 12.4804 31.8946 12.2929 31.7071C12.1054 31.5196 12 31.2652 12 31V26C12 25.4696 12.2107 24.9609 12.5858 24.5858C12.9609 24.2107 13.4696 24 14 24H18C18.5304 24 19.0391 24.2107 19.4142 24.5858C19.7893 24.9609 20 25.4696 20 26V31C20 31.2652 19.8946 31.5196 19.7071 31.7071C19.5196 31.8946 19.2652 32 19 32ZM14 30H18V26H14V30Z" fill="#202F59"/>
<path d="M23 14H9C8.73478 14 8.48043 13.8946 8.29289 13.7071C8.10536 13.5196 8 13.2652 8 13C8 12.7348 8.10536 12.4804 8.29289 12.2929C8.48043 12.1054 8.73478 12 9 12H23C23.2652 12 23.5196 12.1054 23.7071 12.2929C23.8946 12.4804 24 12.7348 24 13C24 13.2652 23.8946 13.5196 23.7071 13.7071C23.5196 13.8946 23.2652 14 23 14Z" fill="#EF7F1A"/>
<path d="M23 18H9C8.73478 18 8.48043 17.8946 8.29289 17.7071C8.10536 17.5196 8 17.2652 8 17C8 16.7348 8.10536 16.4804 8.29289 16.2929C8.48043 16.1054 8.73478 16 9 16H23C23.2652 16 23.5196 16.1054 23.7071 16.2929C23.8946 16.4804 24 16.7348 24 17C24 17.2652 23.8946 17.5196 23.7071 17.7071C23.5196 17.8946 23.2652 18 23 18Z" fill="#EF7F1A"/>
<path d="M23 22H9C8.73478 22 8.48043 21.8946 8.29289 21.7071C8.10536 21.5196 8 21.2652 8 21C8 20.7348 8.10536 20.4804 8.29289 20.2929C8.48043 20.1054 8.73478 20 9 20H23C23.2652 20 23.5196 20.1054 23.7071 20.2929C23.8946 20.4804 24 20.7348 24 21C24 21.2652 23.8946 21.5196 23.7071 21.7071C23.5196 21.8946 23.2652 22 23 22Z" fill="#EF7F1A"/>
</svg>
