<svg xmlns="http://www.w3.org/2000/svg" width="24" height="24" viewBox="0 0 24 24" fill="none">
  <path fill-rule="evenodd" clip-rule="evenodd" d="M3.46983 12.5301C3.32938 12.3895 3.25049 12.1988 3.25049 12.0001C3.25049 11.8013 3.32938 11.6107 3.46983 11.4701L9.46983 5.47009C9.53849 5.3964 9.62129 5.3373 9.71329 5.29631C9.80529 5.25532 9.90461 5.23328 10.0053 5.2315C10.106 5.22972 10.206 5.24825 10.2994 5.28597C10.3928 5.32369 10.4776 5.37984 10.5489 5.45105C10.6201 5.52227 10.6762 5.60711 10.714 5.70049C10.7517 5.79388 10.7702 5.89391 10.7684 5.99461C10.7666 6.09532 10.7446 6.19463 10.7036 6.28663C10.6626 6.37863 10.6035 6.46143 10.5298 6.53009L5.80983 11.2501L19.9998 11.2501C20.1987 11.2501 20.3895 11.3291 20.5302 11.4698C20.6708 11.6104 20.7498 11.8012 20.7498 12.0001C20.7498 12.199 20.6708 12.3898 20.5302 12.5304C20.3895 12.6711 20.1987 12.7501 19.9998 12.7501L5.80983 12.7501L10.5298 17.4701C10.6035 17.5388 10.6626 17.6216 10.7036 17.7136C10.7446 17.8056 10.7666 17.9049 10.7684 18.0056C10.7702 18.1063 10.7517 18.2063 10.714 18.2997C10.6762 18.3931 10.6201 18.4779 10.5489 18.5491C10.4776 18.6203 10.3928 18.6765 10.2994 18.7142C10.206 18.7519 10.106 18.7705 10.0053 18.7687C9.9046 18.7669 9.80529 18.7449 9.71329 18.7039C9.62129 18.6629 9.53849 18.6038 9.46983 18.5301L3.46983 12.5301Z" fill="#202F59"/>
</svg>