<svg width="46" height="46" viewBox="0 0 46 46" fill="none" xmlns="http://www.w3.org/2000/svg">
<path d="M8.625 43.125C7.55716 43.125 6.51041 42.8276 5.60205 42.2662C4.69369 41.7048 3.9596 40.9016 3.48205 39.9465C3.00449 38.9914 2.80234 37.9221 2.89824 36.8586C2.99413 35.7951 3.3843 34.7793 4.025 33.925L23.8625 7.475C25.6032 5.15409 27.8603 3.27032 30.4552 1.97289C33.0501 0.675461 35.9114 0 38.8125 0C40.7187 0 42.5469 0.757252 43.8948 2.10517C45.2428 3.45309 46 5.28126 46 7.1875C46 10.0886 45.3245 12.9499 44.0271 15.5448C42.7297 18.1397 40.8459 20.3968 38.525 22.1375L12.075 41.975C11.0797 42.7215 9.86913 43.125 8.625 43.125ZM38.8125 2.875C36.3577 2.875 33.9366 3.44654 31.7409 4.54437C29.5453 5.6422 27.6354 7.23615 26.1625 9.2L6.325 35.65C5.90977 36.2036 5.70818 36.8885 5.75724 37.5788C5.80629 38.2691 6.10271 38.9186 6.59207 39.4079C7.08143 39.8973 7.73088 40.1937 8.4212 40.2428C9.11151 40.2918 9.79636 40.0902 10.35 39.675L36.8 19.8375C38.7639 18.3646 40.3578 16.4547 41.4556 14.2591C42.5535 12.0634 43.125 9.64231 43.125 7.1875C43.125 6.04375 42.6707 4.94685 41.8619 4.1381C41.0532 3.32935 39.9562 2.875 38.8125 2.875Z" fill="#202F59"/>
<path d="M7.18711 11.1695C6.56899 11.1695 6.89961 11.2845 0.617739 6.92884C0.444243 6.80925 0.299162 6.65297 0.19277 6.47108C0.0863779 6.28919 0.021276 6.08613 0.00207439 5.87628C-0.0171272 5.66644 0.0100412 5.45494 0.0816557 5.25676C0.15327 5.05858 0.267579 4.87856 0.416489 4.72947L4.72899 0.416968C4.89057 0.250587 5.09002 0.125773 5.31029 0.0531815C5.53057 -0.0194103 5.76515 -0.0376245 5.99399 9.34266e-05L27.5565 3.80947C27.9377 3.87428 28.2776 4.08789 28.5014 4.4033C28.7251 4.71871 28.8144 5.11009 28.7496 5.49134C28.6848 5.87259 28.4712 6.21248 28.1558 6.43623C27.8404 6.65999 27.449 6.74928 27.0677 6.68447L6.23836 2.99009L3.66524 5.54884L8.00649 8.62509C8.22898 8.80819 8.39131 9.05393 8.47241 9.33043C8.55352 9.60693 8.54966 9.90141 8.46133 10.1757C8.37301 10.45 8.20429 10.6914 7.97708 10.8686C7.74987 11.0458 7.47464 11.1506 7.18711 11.1695Z" fill="#202F59"/>
<path d="M18.2272 18.8169C17.6091 18.8169 17.9253 18.9176 10.6803 13.9007C10.5227 13.7931 10.3878 13.6555 10.2834 13.4958C10.1789 13.336 10.1069 13.1573 10.0716 12.9697C10.0362 12.7822 10.0381 12.5895 10.0772 12.4027C10.1163 12.2159 10.1918 12.0386 10.2994 11.881C10.5167 11.5627 10.8516 11.3437 11.2303 11.2723C11.4179 11.2369 11.6106 11.2388 11.7974 11.2779C11.9842 11.317 12.1614 11.3925 12.3191 11.5001L19.0466 16.1576C19.3175 16.3248 19.5253 16.5772 19.6373 16.8752C19.7493 17.1732 19.7592 17.4999 19.6654 17.8042C19.5717 18.1084 19.3796 18.3729 19.1193 18.5562C18.859 18.7395 18.5452 18.8312 18.2272 18.8169Z" fill="#202F59"/>
<path d="M39.0709 45.3817L27.4415 28.5917C27.322 28.4376 27.2351 28.2607 27.1862 28.0719C27.1372 27.883 27.1272 27.6862 27.1567 27.4934C27.1862 27.3006 27.2547 27.1158 27.3579 26.9503C27.4612 26.7848 27.597 26.642 27.7572 26.5307C27.9173 26.4193 28.0985 26.3418 28.2896 26.3027C28.4807 26.2636 28.6778 26.2638 28.8688 26.3033C29.0598 26.3428 29.2408 26.4208 29.4007 26.5325C29.5606 26.6442 29.6962 26.7872 29.799 26.953L40.4509 42.3342L43.0096 39.7611L39.344 18.9173C39.2792 18.5361 39.3685 18.1447 39.5923 17.8293C39.816 17.5139 40.1559 17.3003 40.5371 17.2355C40.9184 17.1707 41.3098 17.26 41.6252 17.4837C41.9406 17.7075 42.1542 18.0473 42.219 18.4286L46.0284 39.9911C46.0698 40.2176 46.0561 40.4508 45.9885 40.6709C45.921 40.8911 45.8016 41.0917 45.6403 41.2561L41.3278 45.5686C41.1796 45.7288 40.9969 45.8532 40.7935 45.9323C40.59 46.0114 40.3713 46.0432 40.1538 46.0252C39.9363 46.0072 39.7257 45.9399 39.5381 45.8284C39.3505 45.7169 39.1907 45.5641 39.0709 45.3817Z" fill="#202F59"/>
<path d="M7.87732 32.617C7.3167 32.617 7.56107 32.617 0.689822 28.5489C0.405921 28.3815 0.18816 28.1216 0.0730129 27.8128C-0.0421343 27.504 -0.0476739 27.165 0.0573221 26.8526L1.49482 22.5401C1.59202 22.2522 1.77794 22.0026 2.02587 21.827C2.27381 21.6513 2.57101 21.5588 2.87482 21.5626H14.0154C14.3967 21.5626 14.7623 21.7141 15.0319 21.9836C15.3015 22.2532 15.4529 22.6189 15.4529 23.0001C15.4529 23.3814 15.3015 23.747 15.0319 24.0166C14.7623 24.2862 14.3967 24.4376 14.0154 24.4376H3.95295L3.16232 26.6801L8.62482 29.9432C8.89676 30.1046 9.10792 30.351 9.22561 30.6445C9.3433 30.938 9.36094 31.2621 9.27581 31.5666C9.19067 31.8711 9.00751 32.1391 8.75469 32.329C8.50187 32.5188 8.1935 32.6201 7.87732 32.617Z" fill="#202F59"/>
<path d="M18.6871 46.0003C18.4377 46.0003 18.1925 45.9353 17.9758 45.8118C17.759 45.6883 17.5781 45.5105 17.4509 45.296L13.584 38.8128C13.4657 38.6502 13.3829 38.4645 13.3408 38.2678C13.2988 38.0711 13.2985 37.8677 13.34 37.6709C13.3815 37.4741 13.4638 37.2882 13.5816 37.1252C13.6994 36.9622 13.8502 36.8257 14.0241 36.7246C14.198 36.6235 14.3911 36.56 14.5911 36.5383C14.791 36.5165 14.9933 36.537 15.1849 36.5983C15.3765 36.6596 15.553 36.7605 15.7032 36.8943C15.8533 37.0282 15.9737 37.192 16.0565 37.3753L19.3196 42.8235L21.5621 42.0903V32.0278C21.5621 31.6466 21.7136 31.2809 21.9832 31.0114C22.2528 30.7418 22.6184 30.5903 22.9996 30.5903C23.3809 30.5903 23.7465 30.7418 24.0161 31.0114C24.2857 31.2809 24.4371 31.6466 24.4371 32.0278V43.1253C24.4379 43.4267 24.344 43.7207 24.1686 43.9657C23.9931 44.2108 23.7452 44.3945 23.4596 44.491C18.8309 46.0003 19.0178 46.0003 18.6871 46.0003Z" fill="#202F59"/>
<path d="M38.8125 14.375C38.4313 14.375 38.0656 14.2235 37.796 13.954C37.5264 13.6844 37.375 13.3187 37.375 12.9375C37.375 11.7938 36.9206 10.6969 36.1119 9.8881C35.3031 9.07935 34.2062 8.625 33.0625 8.625C32.6813 8.625 32.3156 8.47355 32.046 8.20397C31.7764 7.93438 31.625 7.56875 31.625 7.1875C31.625 6.80625 31.7764 6.44062 32.046 6.17103C32.3156 5.90145 32.6813 5.75 33.0625 5.75C34.9687 5.75 36.7969 6.50725 38.1448 7.85517C39.4927 9.20309 40.25 11.0313 40.25 12.9375C40.25 13.3187 40.0986 13.6844 39.829 13.954C39.5594 14.2235 39.1937 14.375 38.8125 14.375Z" fill="#EF7F1A"/>
<path d="M2.87506 44.5625C2.58954 44.5642 2.30999 44.4808 2.07205 44.3229C1.83412 44.1651 1.64858 43.94 1.53909 43.6763C1.4296 43.4126 1.40112 43.1222 1.45728 42.8423C1.51345 42.5623 1.6517 42.3055 1.85443 42.1044L7.60443 36.3544C7.87512 36.0837 8.24225 35.9316 8.62506 35.9316C9.00787 35.9316 9.375 36.0837 9.64569 36.3544C9.91637 36.6251 10.0684 36.9922 10.0684 37.375C10.0684 37.7578 9.91637 38.125 9.64569 38.3956L3.89568 44.1456C3.76136 44.2789 3.60207 44.3843 3.42693 44.4558C3.25178 44.5274 3.06424 44.5636 2.87506 44.5625Z" fill="#202F59"/>
</svg>
