<svg xmlns="http://www.w3.org/2000/svg" width="92" height="92" viewBox="0 0 92 92" fill="none">
  <circle cx="45.8609" cy="46.3023" r="45.0396" fill="url(#paint0_linear_0_2089)" stroke="#DC143C" stroke-width="1.33012"/>
  <path d="M68.0118 36.3799L68.0119 36.3798C68.947 35.1603 69.0492 33.5893 68.2808 32.2584C67.5124 30.9275 66.1008 30.2306 64.5772 30.4306L64.577 30.4306L25.2524 35.5824C25.2524 35.5824 25.2524 35.5824 25.2524 35.5825C23.8316 35.7687 22.6814 36.727 22.2214 38.0525L68.0118 36.3799ZM68.0118 36.3799L43.8879 67.8601C43.0426 68.963 41.6552 69.5229 40.233 69.2499C38.84 68.982 37.7389 67.9695 37.3556 66.604L37.3556 66.6038M68.0118 36.3799L37.3556 66.6038M37.3556 66.6038L33.786 53.8997L33.786 53.8995M37.3556 66.6038L33.786 53.8995M33.786 53.8995L33.4142 52.5781L33.3684 52.4151M33.786 53.8995L33.3684 52.4151M33.3684 52.4151L33.2501 52.2938M33.3684 52.4151L33.2501 52.2938M33.2501 52.2938L32.2916 51.3112L32.2915 51.311M33.2501 52.2938L32.2915 51.311M32.2915 51.311L23.0742 41.8678L23.0741 41.8676M32.2915 51.311L23.0741 41.8676M23.0741 41.8676C22.0832 40.853 21.7569 39.3931 22.2213 38.0528L23.0741 41.8676Z" fill="white" stroke="#DC143C" stroke-width="1.33012"/>
  <path d="M33.7872 53.899L33.7871 53.8988L33.5553 53.075L68.5656 32.8619C69.0018 34.0455 68.8098 35.3399 68.013 36.3792L68.0129 36.3793L43.8889 67.8595C43.0437 68.9624 41.6565 69.5223 40.2343 69.2494C38.8411 68.9814 37.7399 67.9689 37.3567 66.6033L37.3566 66.6032L33.7872 53.899Z" fill="white" stroke="#DC143C" stroke-width="1.33012"/>
  <path d="M46.6387 45.5208L33.5551 53.0747L33.4151 52.5769L33.3692 52.4139L33.251 52.2927L32.8899 51.9226L45.9735 44.3688C45.9735 44.3688 45.9735 44.3687 45.9736 44.3687C46.292 44.185 46.6986 44.2943 46.8822 44.6122C47.0658 44.9302 46.9571 45.337 46.6387 45.5208Z" fill="url(#paint1_linear_0_2089)" stroke="#DC143C" stroke-width="1.33012"/>
  <path d="M46.6387 45.5217L33.555 53.0755L33.555 53.0754L46.6495 45.5152C46.6459 45.5174 46.6423 45.5195 46.6387 45.5217Z" fill="url(#paint2_linear_0_2089)" stroke="#DC143C" stroke-width="1.33012"/>
  <defs>
    <linearGradient id="paint0_linear_0_2089" x1="64.9873" y1="3.16225" x2="25.7038" y2="102.146" gradientUnits="userSpaceOnUse">
      <stop stop-color="#FF7B96"/>
      <stop offset="1" stop-color="#DC143C"/>
    </linearGradient>
    <linearGradient id="paint1_linear_0_2089" x1="42.4758" y1="45.7064" x2="43.9612" y2="48.6851" gradientUnits="userSpaceOnUse">
      <stop stop-color="#FF7B96"/>
      <stop offset="1" stop-color="#DC143C"/>
    </linearGradient>
    <linearGradient id="paint2_linear_0_2089" x1="43.1221" y1="46.8269" x2="43.911" y2="48.295" gradientUnits="userSpaceOnUse">
      <stop stop-color="#FF7B96"/>
      <stop offset="1" stop-color="#DC143C"/>
    </linearGradient>
  </defs>
</svg>