<svg xmlns="http://www.w3.org/2000/svg" width="180" height="30" viewBox="0 0 180 30" fill="none">
  <path d="M0.724161 1.41703C0.493843 1.26469 0.43063 0.954479 0.582971 0.724161C0.735313 0.493843 1.04552 0.43063 1.27584 0.582972L1 1L0.724161 1.41703ZM180 1L177.382 6.1457L174.235 1.30539L180 1ZM1 1L1.27584 0.582972C2.10166 1.1292 2.93043 1.66808 3.7621 2.19955L3.49286 2.62087L3.22362 3.04219C2.38751 2.50788 1.55434 1.96614 0.724161 1.41703L1 1ZM8.5543 5.74254L8.80988 5.31279C10.5138 6.32615 12.2292 7.30875 13.9557 8.26009L13.7144 8.69802L13.4732 9.13594C11.7369 8.17925 10.012 7.1912 8.29872 6.17228L8.5543 5.74254ZM18.9701 11.4799L19.1965 11.0341C20.9629 11.9312 22.7404 12.7959 24.5284 13.6277L24.3175 14.081L24.1067 14.5344C22.3081 13.6977 20.5203 12.828 18.7437 11.9258L18.9701 11.4799ZM29.7524 16.494L29.9472 16.0335C31.7704 16.8046 33.6041 17.5419 35.4478 18.2446L35.2697 18.7118L35.0916 19.179C33.2366 18.472 31.3918 17.7303 29.5576 16.9545L29.7524 16.494ZM40.8639 20.7279L41.0248 20.2545C42.8975 20.8907 44.78 21.4916 46.6719 22.0567L46.5288 22.5358L46.3857 23.0149C44.4818 22.4462 42.5875 21.8415 40.7031 21.2013L40.8639 20.7279ZM52.2576 24.1299L52.3825 23.6457C54.2957 24.1392 56.2181 24.5963 58.1491 25.0163L58.0428 25.5049L57.9365 25.9935C55.993 25.5707 54.0582 25.1107 52.1327 24.614L52.2576 24.1299ZM63.8767 26.6565L63.964 26.1641C65.9075 26.5089 67.8593 26.8162 69.8189 27.0857L69.7508 27.581L69.6827 28.0764C67.7101 27.8051 65.7456 27.4958 63.7894 27.1488L63.8767 26.6565ZM75.6565 28.2759L75.7052 27.7783C77.6675 27.9704 79.6372 28.1246 81.614 28.2403L81.5848 28.7395L81.5556 29.2386C79.5657 29.1221 77.583 28.9669 75.6078 28.7735L75.6565 28.2759ZM87.5267 28.9711L87.5365 28.4712C88.5227 28.4904 89.5105 28.5 90.5 28.5V29V29.5C89.504 29.5 88.5097 29.4903 87.517 29.471L87.5267 28.9711ZM90.5 29V28.5C91.4895 28.5 92.4773 28.4904 93.4635 28.4712L93.4733 28.9711L93.483 29.471C92.4903 29.4903 91.4959 29.5 90.5 29.5V29ZM99.4152 28.7395L99.386 28.2403C101.363 28.1246 103.333 27.9704 105.295 27.7783L105.344 28.2759L105.392 28.7735C103.417 28.9669 101.434 29.1221 99.4444 29.2386L99.4152 28.7395ZM111.249 27.581L111.181 27.0857C113.141 26.8162 115.093 26.5089 117.036 26.1641L117.123 26.6565L117.211 27.1488C115.254 27.4958 113.29 27.8051 111.317 28.0764L111.249 27.581ZM122.957 25.5049L122.851 25.0163C124.782 24.5963 126.704 24.1392 128.618 23.6457L128.742 24.1299L128.867 24.614C126.942 25.1107 125.007 25.5707 123.063 25.9935L122.957 25.5049ZM134.471 22.5358L134.328 22.0567C136.22 21.4917 138.103 20.8907 139.975 20.2545L140.136 20.7279L140.297 21.2013C138.413 21.8415 136.518 22.4462 134.614 23.0149L134.471 22.5358ZM145.73 18.7118L145.552 18.2446C147.396 17.5419 149.23 16.8046 151.053 16.0335L151.248 16.494L151.442 16.9545C149.608 17.7303 147.763 18.472 145.908 19.179L145.73 18.7118ZM156.682 14.081L156.472 13.6277C158.26 12.7959 160.037 11.9312 161.803 11.0341L162.03 11.48L162.256 11.9258C160.48 12.828 158.692 13.6977 156.893 14.5344L156.682 14.081ZM167.286 8.69802L167.044 8.2601C168.771 7.30876 170.486 6.32616 172.19 5.3128L172.446 5.74255L172.701 6.17229C170.988 7.1912 169.263 8.17926 167.527 9.13594L167.286 8.69802ZM0.724161 1.41703C0.493843 1.26469 0.43063 0.954479 0.582971 0.724161C0.735313 0.493843 1.04552 0.43063 1.27584 0.582972L1 1L0.724161 1.41703ZM180 1L177.382 6.1457L174.235 1.30539L180 1ZM1 1L1.27584 0.582972C2.10166 1.1292 2.93043 1.66808 3.7621 2.19955L3.49286 2.62087L3.22362 3.04219C2.38751 2.50788 1.55434 1.96614 0.724161 1.41703L1 1ZM8.5543 5.74254L8.80988 5.31279C10.5138 6.32615 12.2292 7.30875 13.9557 8.26009L13.7144 8.69802L13.4732 9.13594C11.7369 8.17925 10.012 7.1912 8.29872 6.17228L8.5543 5.74254ZM18.9701 11.4799L19.1965 11.0341C20.9629 11.9312 22.7404 12.7959 24.5284 13.6277L24.3175 14.081L24.1067 14.5344C22.3081 13.6977 20.5203 12.828 18.7437 11.9258L18.9701 11.4799ZM29.7524 16.494L29.9472 16.0335C31.7704 16.8046 33.6041 17.5419 35.4478 18.2446L35.2697 18.7118L35.0916 19.179C33.2366 18.472 31.3918 17.7303 29.5576 16.9545L29.7524 16.494ZM40.8639 20.7279L41.0248 20.2545C42.8975 20.8907 44.78 21.4916 46.6719 22.0567L46.5288 22.5358L46.3857 23.0149C44.4818 22.4462 42.5875 21.8415 40.7031 21.2013L40.8639 20.7279ZM52.2576 24.1299L52.3825 23.6457C54.2957 24.1392 56.2181 24.5963 58.1491 25.0163L58.0428 25.5049L57.9365 25.9935C55.993 25.5707 54.0582 25.1107 52.1327 24.614L52.2576 24.1299ZM63.8767 26.6565L63.964 26.1641C65.9075 26.5089 67.8593 26.8162 69.8189 27.0857L69.7508 27.581L69.6827 28.0764C67.7101 27.8051 65.7456 27.4958 63.7894 27.1488L63.8767 26.6565ZM75.6565 28.2759L75.7052 27.7783C77.6675 27.9704 79.6372 28.1246 81.614 28.2403L81.5848 28.7395L81.5556 29.2386C79.5657 29.1221 77.583 28.9669 75.6078 28.7735L75.6565 28.2759ZM87.5267 28.9711L87.5365 28.4712C88.5227 28.4904 89.5105 28.5 90.5 28.5V29V29.5C89.504 29.5 88.5097 29.4903 87.517 29.471L87.5267 28.9711ZM90.5 29V28.5C91.4895 28.5 92.4773 28.4904 93.4635 28.4712L93.4733 28.9711L93.483 29.471C92.4903 29.4903 91.4959 29.5 90.5 29.5V29ZM99.4152 28.7395L99.386 28.2403C101.363 28.1246 103.333 27.9704 105.295 27.7783L105.344 28.2759L105.392 28.7735C103.417 28.9669 101.434 29.1221 99.4444 29.2386L99.4152 28.7395ZM111.249 27.581L111.181 27.0857C113.141 26.8162 115.093 26.5089 117.036 26.1641L117.123 26.6565L117.211 27.1488C115.254 27.4958 113.29 27.8051 111.317 28.0764L111.249 27.581ZM122.957 25.5049L122.851 25.0163C124.782 24.5963 126.704 24.1392 128.618 23.6457L128.742 24.1299L128.867 24.614C126.942 25.1107 125.007 25.5707 123.063 25.9935L122.957 25.5049ZM134.471 22.5358L134.328 22.0567C136.22 21.4917 138.103 20.8907 139.975 20.2545L140.136 20.7279L140.297 21.2013C138.413 21.8415 136.518 22.4462 134.614 23.0149L134.471 22.5358ZM145.73 18.7118L145.552 18.2446C147.396 17.5419 149.23 16.8046 151.053 16.0335L151.248 16.494L151.442 16.9545C149.608 17.7303 147.763 18.472 145.908 19.179L145.73 18.7118ZM156.682 14.081L156.472 13.6277C158.26 12.7959 160.037 11.9312 161.803 11.0341L162.03 11.48L162.256 11.9258C160.48 12.828 158.692 13.6977 156.893 14.5344L156.682 14.081ZM167.286 8.69802L167.044 8.2601C168.771 7.30876 170.486 6.32616 172.19 5.3128L172.446 5.74255L172.701 6.17229C170.988 7.1912 169.263 8.17926 167.527 9.13594L167.286 8.69802Z" fill="#1B1D21"/>
</svg>