<svg xmlns="http://www.w3.org/2000/svg" width="96" height="94" viewBox="0 0 96 94" fill="none">
  <path d="M64.2909 71.384C63.7434 65.1137 56.5762 60.1367 47.8398 60.1367C39.1063 60.1367 31.9332 65.1137 31.3887 71.384H64.2909Z" fill="#E97925"/>
  <mask id="mask0_120_1035" style="mask-type:luminance" maskUnits="userSpaceOnUse" x="13" y="0" width="70" height="15">
    <path d="M13.125 0H82.8291V14.2765H13.125V0Z" fill="white"/>
  </mask>
  <g mask="url(#mask0_120_1035)">
    <path d="M82.355 0H13.3242V13.9178H82.355V0ZM30.03 11.9411L25.4247 9.72883L20.8134 11.9411L22.6374 7.60556L20.0844 5.09743H23.8759L25.4247 1.97928L26.9705 5.09743H30.7708L28.2119 7.60556L30.03 11.9411ZM52.4538 11.9411L47.8425 9.72883L43.2372 11.9411L45.0553 7.60556L42.4964 5.09743H46.2967L47.8425 1.97928L49.3913 5.09743H53.1798L50.6298 7.60556L52.4538 11.9411ZM74.8745 11.9411L70.2633 9.72883L65.658 11.9411L67.4761 7.60556L64.9172 5.09743H68.7175L70.2633 1.97928L71.8121 5.09743H75.6036L73.0506 7.60556L74.8745 11.9411Z" fill="#E97925"/>
  </g>
  <path d="M30.9659 72.9242H30.4916C30.0173 72.9242 29.6308 72.5786 29.6308 72.1544C29.6308 64.6798 37.7993 58.598 47.8386 58.598C57.8779 58.598 66.0434 64.6798 66.0434 72.1544C66.0434 72.5786 65.6599 72.9242 65.1826 72.9242H64.7171V88.4442H89.8344V15.457H5.84277V88.4442H30.9688V72.9242H30.9659ZM74.0742 22.5652H83.6012V31.0844H74.0742V22.5652ZM74.0742 34.6372H83.6012V43.1565H74.0742V34.6372ZM74.0742 46.7092H83.6012V55.2259H74.0742V46.7092ZM69.261 62.2659H83.6012V82.043H69.261V62.2659ZM58.5747 22.5652H68.1016V31.0844H58.5747V22.5652ZM58.5747 34.6372H68.1016V43.1565H58.5747V34.6372ZM58.5747 46.7092H68.1016V55.2259H58.5747V46.7092ZM43.0751 22.5652H52.6021V31.0844H43.0751V22.5652ZM43.0751 34.6372H52.6021V43.1565H43.0751V34.6372ZM43.0751 46.7092H52.6021V55.2259H43.0751V46.7092ZM27.5755 22.5652H37.1025V31.0844H27.5755V22.5652ZM27.5755 34.6372H37.1025V43.1565H27.5755V34.6372ZM12.076 22.5652H21.6029V31.0844H12.076V22.5652ZM12.076 34.6372H21.6029V43.1565H12.076V34.6372ZM12.076 46.7092H21.6029V55.2259H12.076V46.7092ZM26.4162 82.043H12.076V62.2659H26.4162V82.043ZM27.5755 46.7092H37.1025V55.2259H27.5755V46.7092Z" fill="#E97925"/>
  <path d="M60.376 72.9238H62.9993V88.4439H60.376V72.9238Z" fill="#E97925"/>
  <mask id="mask1_120_1035" style="mask-type:luminance" maskUnits="userSpaceOnUse" x="0" y="89" width="96" height="5">
    <path d="M0.5 89.3418H95.5V93.9994H0.5V89.3418Z" fill="white"/>
  </mask>
  <g mask="url(#mask1_120_1035)">
    <path d="M90.6956 89.9829H0.59668V93.9205H95.0931V89.9829H90.6956Z" fill="#E97925"/>
  </g>
  <path d="M32.6904 72.9238H35.3108V88.4439H32.6904V72.9238Z" fill="#E97925"/>
  <path d="M41.9141 77.0918H53.7656V88.4438H41.9141V77.0918Z" fill="#E97925"/>
  <path d="M58.6547 88.4439V72.9238H37.0332V88.4439H40.1923V76.3221C40.1923 75.898 40.5758 75.5524 41.053 75.5524H54.629C55.1033 75.5524 55.4898 75.898 55.4898 76.3221V88.4439H58.6547Z" fill="#E97925"/>
</svg>