<svg xmlns="http://www.w3.org/2000/svg" width="68" height="68" viewBox="0 0 68 68" fill="none">
  <mask id="mask0_120_1645" style="mask-type:luminance" maskUnits="userSpaceOnUse" x="0" y="0" width="68" height="68">
    <path d="M0 0H68V68H0V0Z" fill="white"/>
  </mask>
  <g mask="url(#mask0_120_1645)">
    <path d="M64.152 62.2127C64.0949 62.2321 64.039 62.2528 63.9779 62.2722V56.302C65.1758 56.6994 66.1541 57.1693 66.8635 57.6793C67.5859 58.2049 67.9925 58.7512 67.9925 59.2858C67.9925 60.3538 66.5257 61.3932 64.152 62.2127ZM62.528 62.6942V48.2916C62.0317 48.557 61.4198 48.79 60.7182 48.9829C58.9694 49.4644 56.5711 49.7609 53.9401 49.7609C51.3079 49.7609 48.9108 49.4644 47.1608 48.9829C46.4566 48.79 45.8473 48.557 45.3523 48.2916V62.6942C47.7415 63.3039 50.7116 63.6612 53.9401 63.6612C57.1674 63.6612 60.1335 63.3039 62.528 62.6942ZM39.8838 59.2858C39.8838 60.3538 41.3507 61.3932 43.7243 62.2127C43.7802 62.2321 43.8413 62.2528 43.8971 62.2722V56.302C42.7045 56.6994 41.7209 57.1693 41.0116 57.6793C40.2905 58.2049 39.8838 58.7512 39.8838 59.2858ZM63.5115 63.9227C63.4712 63.9343 63.431 63.9473 63.3855 63.9551C60.787 64.6774 57.5026 65.111 53.9401 65.111C50.3777 65.111 47.0893 64.6774 44.4896 63.9551C44.4493 63.946 44.4051 63.9343 44.3649 63.9227C43.9777 63.8101 43.6074 63.6936 43.2527 63.5732C41.8535 63.0916 40.7089 62.5013 39.8825 61.8347V63.6172C39.8825 64.6852 41.3507 65.7246 43.7243 66.5441C46.3228 67.4398 49.9333 67.9939 53.9401 67.9939C57.9456 67.9939 61.5562 67.4398 64.152 66.5441C66.5257 65.7259 67.9925 64.6852 67.9925 63.6172V61.8347C67.1662 62.5013 66.0216 63.0916 64.6236 63.5732C64.269 63.6936 63.8974 63.8101 63.5115 63.9227ZM53.9401 43.1926H54.2701V27.6185C53.6933 27.9512 52.9605 28.236 52.0978 28.4729C50.1269 29.0152 47.4232 29.3531 44.4493 29.3531C41.4754 29.3531 38.7704 29.0152 36.8008 28.4729C35.9381 28.236 35.204 27.9512 34.6285 27.6185V44.1648C37.3569 44.8664 40.753 45.2845 44.4493 45.2845H44.4727C45.0249 44.7512 45.9564 44.3007 47.1608 43.9719C48.9108 43.4903 51.3079 43.1926 53.9401 43.1926ZM28.4377 40.2295C28.4377 41.4864 30.1267 42.6942 32.8512 43.634C32.9551 43.6703 33.0642 43.7065 33.1773 43.7428V36.7201C31.7546 37.1861 30.5905 37.7324 29.7564 38.3343C28.9132 38.9492 28.4377 39.5913 28.4377 40.2295ZM43.8971 46.7253C40.0813 46.6864 36.5669 46.2036 33.7658 45.4256C33.7255 45.4165 33.6814 45.4049 33.645 45.3894C33.2058 45.2651 32.7823 45.1356 32.3795 44.9958C30.7191 44.4211 29.3692 43.7143 28.4377 42.9117V45.1486C28.4416 47.1072 31.5896 48.3602 35.1001 49.1356C38.404 49.8619 42.0068 50.1272 43.8971 50.1829V46.7253ZM54.9834 44.6541H54.96C54.6248 44.6463 54.2818 44.6385 53.9401 44.6385C51.4248 44.6385 49.1681 44.9156 47.5441 45.3609C46.48 45.6534 45.7342 45.9667 45.4614 46.2528C45.4367 46.324 45.4003 46.3887 45.3523 46.4496V46.4767C45.3523 46.8185 46.1903 47.2198 47.5441 47.5939C49.1681 48.0392 51.4248 48.3162 53.9401 48.3162C56.4554 48.3162 58.7109 48.0392 60.331 47.5939C61.69 47.2198 62.528 46.8185 62.528 46.4767C62.528 46.2036 61.9797 45.8864 61.0573 45.5822C60.9923 45.5693 60.9274 45.5499 60.8676 45.5175C60.6987 45.4657 60.5207 45.4127 60.331 45.3609C58.9369 44.979 57.0752 44.7227 54.9834 44.6541ZM55.7214 43.2405C56.1163 43.2612 56.5035 43.2884 56.8816 43.3208C58.0587 42.847 58.9889 42.3175 59.6177 41.7428C60.1621 41.2496 60.4609 40.7395 60.4609 40.2295C60.4609 39.5913 59.9854 38.9479 59.1422 38.3343C58.3081 37.7324 57.144 37.1861 55.7214 36.7201V43.2405ZM12.5846 22.0327C13.7279 22.0327 14.7725 21.4554 15.5377 20.5156C16.3354 19.5356 16.8278 18.1699 16.8278 16.6567C16.8278 15.1434 16.3354 13.7738 15.5377 12.7939C14.7725 11.8593 13.7279 11.2767 12.5846 11.2767C11.44 11.2767 10.3954 11.8593 9.63015 12.7939C8.83243 13.7738 8.34002 15.1395 8.34002 16.6567C8.34002 18.1751 8.83243 19.5356 9.63015 20.5156C10.3954 21.4554 11.44 22.0327 12.5846 22.0327ZM10.7345 41.8839C12.2091 41.3583 13.6318 40.6023 14.9739 39.7596C12.999 39.19 11.3152 37.9771 9.91988 36.1259C8.51022 34.2554 7.40588 31.7298 6.60426 28.5453C6.43406 29.0631 6.27296 29.6017 6.12875 30.1635C5.24917 33.5162 4.79834 37.6353 4.76976 42.5143C6.80174 42.8832 8.81554 42.5738 10.7345 41.8839ZM16.429 40.5389C14.8205 41.603 13.0718 42.5777 11.2217 43.2405C9.11436 43.9952 6.89009 44.3408 4.61645 43.9512C4.60866 43.9628 4.59696 43.9758 4.58917 43.9835V43.9874C3.67322 45.023 3.10156 46.0677 2.87549 47.1072C2.65852 48.1311 2.76766 49.1745 3.2068 50.2385C3.23408 50.2994 3.25097 50.3628 3.25876 50.4275C3.45625 52.034 3.25097 54.3952 2.65073 57.502C2.10246 60.3525 1.21509 63.8502 -0.00488281 67.9939L10.3317 67.946C11.0125 65.6327 11.5569 63.0916 11.9713 60.3292C12.4144 57.3492 12.7054 54.1298 12.8379 50.6683C12.8548 50.2709 13.1887 49.9576 13.5876 49.9745C13.9864 49.9861 14.3009 50.3188 14.2853 50.7162C14.1475 54.2541 13.8539 57.5266 13.4057 60.5376C13.0068 63.1952 12.4871 65.6612 11.8388 67.9408L20.3253 67.9007L20.2162 66.6282C19.499 58.1686 18.6818 48.5531 16.429 40.5389ZM15.973 38.5233C15.7755 37.3026 15.5949 36.0573 15.4247 34.7887C15.2441 33.436 15.0791 32.0716 14.9336 30.6981L12.1896 30.9544C11.3867 31.0308 10.6293 30.7745 10.0537 30.3007C9.49763 29.8424 9.10656 29.1758 9.01302 28.4094C9.00523 28.3602 9.00133 28.3162 9.00133 28.2683C8.94546 27.4981 9.20271 26.7667 9.66263 26.2127C10.1381 25.6392 10.8358 25.2457 11.6374 25.1693L14.4217 24.9039C14.3983 24.5583 14.3736 24.201 14.3541 23.836C14.3372 23.6146 14.3255 23.3907 14.3087 23.1654C13.7656 23.3699 13.1887 23.4826 12.5846 23.4826C11.5855 23.4826 10.65 23.1771 9.83543 22.636C8.96105 23.5952 8.19971 24.7628 7.55529 26.1363C8.32443 30.1272 9.50153 33.1706 11.0775 35.2625C12.4105 37.0334 14.0436 38.122 15.973 38.5233ZM30.6542 4.22172C32.7628 4.80036 35.6926 5.16153 38.9484 5.16153C42.2043 5.16153 45.1301 4.80036 47.2374 4.22172C49.0797 3.71687 50.2205 3.13046 50.2205 2.58418C50.2205 2.0379 49.0797 1.4515 47.2374 0.945347C45.1301 0.364117 42.2004 0.00683594 38.9484 0.00683594C35.6965 0.00683594 32.7628 0.364117 30.6542 0.945347C28.8132 1.4515 27.6725 2.0379 27.6725 2.58418C27.6725 3.13046 28.8132 3.71687 30.6542 4.22172ZM33.1773 30.2075V26.0767C32.1743 25.968 31.2193 25.8308 30.3125 25.6741C29.3653 25.5136 28.4624 25.3259 27.6166 25.1123L26.2095 27.8554C26.1134 28.1441 25.9757 28.4172 25.799 28.6619C26.7331 28.979 27.7608 29.2638 28.869 29.5097C30.1994 29.7984 31.6416 30.0353 33.1773 30.2075ZM32.3471 16.8017C32.6771 16.8017 32.972 16.6683 33.189 16.456C33.4033 16.2398 33.5358 15.9421 33.5358 15.6172C33.5358 15.2884 33.4033 14.9945 33.189 14.7784C32.972 14.5648 32.6771 14.4327 32.3471 14.4327C32.021 14.4327 31.7221 14.5648 31.5091 14.7784C31.2921 14.9945 31.1583 15.2884 31.1583 15.6172C31.1583 15.9421 31.2921 16.2398 31.5091 16.456C31.7221 16.6683 32.021 16.8017 32.3471 16.8017ZM27.6725 19.0373V4.56347C28.3416 4.96865 29.2198 5.32593 30.2683 5.61201C32.5043 6.22561 35.5717 6.60748 38.9484 6.60748C42.3251 6.60748 45.3887 6.22561 47.6246 5.61201C48.6731 5.32593 49.5514 4.96865 50.2205 4.56347V22.5674C48.5432 22.2735 46.5644 22.1052 44.4493 22.1052C41.4754 22.1052 38.7704 22.4392 36.8008 22.9803C35.2807 23.3984 34.1569 23.9758 33.5891 24.667C32.5484 24.5622 31.5337 24.4224 30.5541 24.2528C29.7681 24.1169 29.0107 23.9602 28.2935 23.7919L28.8093 22.7796C28.8534 22.6916 28.8898 22.6191 28.9132 22.5635C29.1834 21.8968 29.1718 21.1654 28.9301 20.5195C28.7001 19.9085 28.2649 19.3712 27.6725 19.0373ZM36.9853 11.4774C36.9853 12.2036 37.2802 12.8625 37.7596 13.3402C38.239 13.814 38.8964 14.1117 39.6253 14.1117C40.3542 14.1117 41.0155 13.814 41.4949 13.3402C41.9704 12.8625 42.2692 12.2036 42.2692 11.4774C42.2692 10.7512 41.9704 10.0962 41.4949 9.61849C41.0155 9.14082 40.3555 8.84696 39.6253 8.84696C38.8964 8.84696 38.239 9.14082 37.7596 9.61849C37.2802 10.0962 36.9853 10.7512 36.9853 11.4774ZM29.7083 15.6172C29.7083 16.3434 30.002 17.0023 30.4814 17.4761C30.9569 17.9538 31.6182 18.2463 32.3471 18.2463C33.0772 18.2463 33.7372 17.9538 34.2166 17.4761C34.6922 17.0023 34.991 16.3434 34.991 15.6172C34.991 14.8897 34.6922 14.2321 34.2166 13.7583C33.7372 13.2806 33.0772 12.9868 32.3471 12.9868C31.6182 12.9868 30.9569 13.2806 30.4814 13.7583C30.002 14.2321 29.7083 14.8897 29.7083 15.6172ZM39.6253 12.6619C39.9566 12.6619 40.2541 12.5298 40.4672 12.3162C40.6816 12.1039 40.8141 11.8062 40.8141 11.4774C40.8141 11.1525 40.6816 10.8547 40.4672 10.6424C40.2541 10.425 39.9566 10.2929 39.6253 10.2929C39.2992 10.2929 39.0004 10.425 38.7873 10.6424C38.569 10.8547 38.4365 11.1525 38.4365 11.4774C38.4365 11.8062 38.569 12.1039 38.7873 12.3162C39.0004 12.5298 39.2992 12.6619 39.6253 12.6619ZM37.1828 24.3745C35.7848 24.7551 34.8585 25.1848 34.6649 25.5784C34.6558 25.6185 34.6441 25.6586 34.6324 25.6949C34.6285 25.7065 34.6285 25.7156 34.6285 25.7272C34.6285 26.1648 35.6029 26.6502 37.1828 27.0839C39.029 27.59 41.5962 27.9072 44.4493 27.9072C47.3024 27.9072 49.8697 27.59 51.7159 27.0839C53.2957 26.6502 54.2701 26.1648 54.2701 25.7272C54.2701 25.3298 53.4568 24.8923 52.1108 24.4858C52.0783 24.478 52.0459 24.4703 52.0095 24.4586C51.9172 24.4263 51.8159 24.3978 51.7159 24.3745C51.4417 24.2981 51.1507 24.2256 50.8493 24.1609C50.8129 24.1531 50.7726 24.1453 50.7401 24.1376C49.0109 23.7674 46.8269 23.5512 44.4493 23.5512C41.5962 23.5512 39.029 23.8644 37.1828 24.3745ZM26.6162 23.8877L27.523 22.1208C27.5308 22.1052 27.5477 22.069 27.5672 22.0211C27.701 21.6962 27.6932 21.3389 27.5711 21.0217C27.4542 20.6994 27.2255 20.4275 26.915 20.2657C26.8942 20.258 26.8617 20.2424 26.8098 20.2217C26.7903 20.214 26.7656 20.2062 26.7448 20.1984C26.7253 20.1945 26.7045 20.1855 26.685 20.1777C26.3382 20.0703 25.9874 20.0819 25.6781 20.1984C25.3183 20.3305 25.0129 20.5958 24.8194 20.9648L23.7514 23.001C23.7436 23.0204 23.7345 23.0373 23.7267 23.0567C23.7189 23.0735 23.7072 23.089 23.6942 23.1097L22.5743 25.2496C22.4574 25.4735 22.2365 25.6107 22.0026 25.634L20.0434 25.8191C20.0239 25.823 20.0031 25.823 19.9837 25.8269L15.3091 26.2696C15.2883 26.2735 15.2688 26.2735 15.248 26.2774H15.2194L11.7739 26.6062C11.3711 26.6424 11.0242 26.8431 10.7826 27.1318C10.5409 27.4217 10.4123 27.8023 10.4487 28.201C10.4889 28.6023 10.6864 28.9466 10.98 29.1887C11.2711 29.4295 11.6491 29.5576 12.0519 29.5214L15.4896 29.1965L15.5065 29.1926H15.5299L23.5656 28.4288C23.7436 28.4133 23.9047 28.3654 24.058 28.2929C24.0775 28.2813 24.1022 28.2683 24.1256 28.2567C24.2113 28.2127 24.2828 28.1648 24.3555 28.1039C24.5777 27.9227 24.7466 27.6703 24.8363 27.3894C24.8518 27.3246 24.8804 27.2651 24.9168 27.2081L26.5681 23.9887C26.5811 23.9525 26.6006 23.9201 26.6175 23.8877H26.6162ZM55.7214 26.9078C56.1085 26.6308 56.4268 26.3408 56.6763 26.0483C57.0596 25.5978 57.2648 25.133 57.2648 24.667V21.933C57.1674 22.0172 57.0713 22.1013 56.966 22.1855C56.2528 22.7758 55.3225 23.3182 54.2143 23.8036C55.1653 24.3382 55.7084 24.9803 55.7214 25.7026V26.9078ZM52.2511 23.0243C53.8674 22.4586 55.1653 21.7997 56.0475 21.0735C56.8296 20.4314 57.2648 19.7609 57.2648 19.0864C57.2648 18.3227 56.7088 17.5641 55.7214 16.8496C54.7379 16.135 53.3594 15.4929 51.6756 14.9544V22.8716C51.8198 22.9078 51.9614 22.9441 52.0978 22.9803C52.1511 22.9971 52.1992 23.0088 52.2511 23.0243ZM22.7887 21.7272L23.537 20.2981C23.9008 19.6042 24.4881 19.102 25.1702 18.8496C25.5041 18.7253 25.8587 18.6606 26.2212 18.6606V14.9544C24.5374 15.4929 23.1551 16.135 22.1715 16.8496C21.1841 17.5641 20.632 18.3227 20.632 19.0864C20.632 19.5641 20.8502 20.0418 21.2608 20.5117C21.6311 20.9324 22.1469 21.3428 22.7887 21.7285V21.7272ZM22.1157 23.0127C21.5427 22.6709 21.0425 22.3136 20.632 21.933V24.3175L21.4739 24.2373L22.1144 23.0127H22.1157Z" fill="white"/>
  </g>
</svg>