<svg xmlns="http://www.w3.org/2000/svg" width="80" height="68" viewBox="0 0 80 68" fill="none">
  <path d="M71.2605 53.6029V50.2354L67.3032 50.8009L67.3507 54.4088L71.2605 53.6029Z" fill="white"/>
  <path d="M71.2609 44.6484L69.5938 44.8869L69.6432 48.3785L71.2609 48.146V44.6484Z" fill="white"/>
  <path d="M49.3995 58.11L49.3441 53.373L48.207 53.5366C48.1022 53.578 47.9875 53.5996 47.8708 53.5996H47.851C47.8273 53.5996 47.8055 53.5996 47.7838 53.5977L46.2412 53.8184L46.3322 58.7445L49.3995 58.11Z" fill="white"/>
  <path d="M54.6411 57.03L54.5877 52.6221L53.1637 52.827L51.4175 53.0772L51.4729 57.6822L54.6411 57.03Z" fill="white"/>
  <path d="M59.7849 55.9695L59.7315 51.8848L56.6582 52.3242L56.7116 56.604L59.7849 55.9695Z" fill="white"/>
  <path d="M65.2824 54.8376L65.233 51.0977L63.548 51.3381L61.8037 51.5903L61.8551 55.543L65.2824 54.8376Z" fill="white"/>
  <path d="M67.5706 48.6733L67.5191 45.1816L64.4004 45.6309L64.4518 49.1206L66.1348 48.8802L67.5706 48.6733Z" fill="white"/>
  <path d="M62.3278 45.9238L61.0601 46.1071L59.207 46.3711L59.2585 49.8647L62.3772 49.4174L62.3278 45.9238Z" fill="white"/>
  <path d="M57.1344 46.6699L54.0156 47.1172L54.0651 50.6089L57.1838 50.1616L57.1344 46.6699Z" fill="white"/>
  <path d="M51.9432 47.4121L48.8086 47.8633L48.8699 51.353L51.9926 50.9057L51.9432 47.4121Z" fill="white"/>
  <path d="M43.6528 48.6015L43.7023 52.0932L44.964 51.9139C44.9877 51.908 45.0115 51.906 45.0372 51.904C45.0471 51.9001 45.0589 51.8981 45.0728 51.8981C45.0748 51.8961 45.0767 51.8961 45.0787 51.8961L46.7973 51.6518L46.738 48.1602L43.6528 48.6015Z" fill="white"/>
  <path d="M38.5939 54.6167L36.5035 54.3172C36.5016 54.3172 36.4976 54.3172 36.4917 54.3152L36.3592 54.2975C36.3572 54.2975 36.3552 54.2955 36.3532 54.2955L35.0915 54.1143L34.9985 59.1724L38.5939 59.9133V54.6167Z" fill="white"/>
  <path d="M44.1709 54.1143L42.9091 54.2955C42.9072 54.2975 42.9052 54.2975 42.9032 54.2975L42.7707 54.3152L40.6685 54.6167V59.9133L44.2638 59.1724L44.1709 54.1143Z" fill="white"/>
  <path d="M41.5801 48.8994L40.6704 49.0295V52.527L41.6296 52.3911L41.5801 48.8994Z" fill="white"/>
  <path d="M38.594 49.0295L37.6823 48.8994L37.6309 52.3891L38.594 52.527V49.0295Z" fill="white"/>
  <path d="M34.3006 51.9149L35.5584 52.0942L35.6079 48.6025L32.5227 48.1592L32.4614 51.6508L34.184 51.8971C34.2235 51.8991 34.2631 51.907 34.3006 51.9149Z" fill="white"/>
  <path d="M33.0186 53.8184L31.478 53.5977C31.4563 53.5996 31.4345 53.5996 31.4108 53.5996H31.393C31.2743 53.5996 31.1596 53.578 31.0548 53.5366L29.9177 53.373L29.8643 58.11L32.9316 58.7445L33.0186 53.8184Z" fill="white"/>
  <path d="M27.8437 53.0772L26.0994 52.827L24.6755 52.6221L24.6201 57.03L27.7903 57.6822L27.8437 53.0772Z" fill="white"/>
  <path d="M30.4521 47.8633L27.3175 47.4121L27.2681 50.9057L30.3928 51.353L30.4521 47.8633Z" fill="white"/>
  <path d="M25.2488 47.1172L22.1261 46.6699L22.0767 50.1616L25.1974 50.6089L25.2488 47.1172Z" fill="white"/>
  <path d="M22.6027 52.3242L19.5314 51.8848L19.478 55.9695L22.5513 56.604L22.6027 52.3242Z" fill="white"/>
  <path d="M20.0554 46.3711L16.9347 45.9238L16.8853 49.4174L20.004 49.8647L20.0554 46.3711Z" fill="white"/>
  <path d="M17.4567 51.5903L15.7164 51.3381L14.0294 51.0977L13.978 54.8376L17.4073 55.543L17.4567 51.5903Z" fill="white"/>
  <path d="M14.8621 45.6309L11.7413 45.1816L11.6919 48.6733L13.1277 48.8802L14.8107 49.1206L14.8621 45.6309Z" fill="white"/>
  <path d="M11.9573 50.8009L8.00195 50.2354V53.6029L11.9098 54.4088L11.9573 50.8009Z" fill="white"/>
  <path d="M9.66911 44.8869L8.00195 44.6484V48.146L9.6177 48.3785L9.66911 44.8869Z" fill="white"/>
  <path d="M21.2245 44.4522L38.5943 46.9389V43.6069L8.00195 39.2266V42.5586L10.8379 42.9665L21.2245 44.4522Z" fill="white"/>
  <path d="M47.7781 45.9229V42.5908L40.6704 43.6076V46.9396L47.6337 45.9445L47.7781 45.9229Z" fill="white"/>
  <path d="M71.2605 39.2266L61.9497 40.5586V43.8906L68.4226 42.9665L71.2605 42.5586V39.2266Z" fill="white"/>
  <path d="M47.7781 28.0072C47.7781 27.4476 48.227 26.9884 48.7867 26.9746L60.884 26.6456C61.1648 26.6397 61.4358 26.7461 61.6355 26.9372C61.8372 27.1342 61.948 27.4003 61.948 27.6781V38.4722L71.2588 37.1383V21.9165L40.6685 16.7559V41.5186L47.7761 40.5018V28.0072H47.7781Z" fill="white"/>
  <path d="M38.5943 16.7559L8.00195 21.9165V37.1363L38.5943 41.5186V16.7559Z" fill="white"/>
  <mask id="mask0_120_1549" style="mask-type:luminance" maskUnits="userSpaceOnUse" x="40" y="0" width="32" height="14">
    <path d="M40.1702 0H71.5595V13.9824H40.1702V0Z" fill="white"/>
  </mask>
  <g mask="url(#mask0_120_1549)">
    <path d="M71.261 6.31036L40.6707 0.00292969V8.72811L71.261 13.8907V6.31036Z" fill="white"/>
  </g>
  <mask id="mask1_120_1549" style="mask-type:luminance" maskUnits="userSpaceOnUse" x="7" y="0" width="32" height="14">
    <path d="M7.76807 0H38.6511V13.9824H7.76807V0Z" fill="white"/>
  </mask>
  <g mask="url(#mask1_120_1549)">
    <path d="M38.5938 0.00292969L8.00146 6.31036V13.8907L38.5938 8.72811V0.00292969Z" fill="white"/>
  </g>
  <path d="M38.5943 10.8242L8.00195 15.9848V19.8193L38.5943 14.6587V10.8242Z" fill="white"/>
  <path d="M71.2607 15.9848L40.6704 10.8242V14.6587L71.2607 19.8193V15.9848Z" fill="white"/>
  <path d="M58.0385 44.4517L59.8757 44.1876V28.7393L49.855 29.0112V45.6201L56.5038 44.6704L58.0385 44.4517Z" fill="white"/>
  <mask id="mask2_120_1549" style="mask-type:luminance" maskUnits="userSpaceOnUse" x="0" y="51" width="80" height="17">
    <path d="M0 51.8164H80V67.9998H0V51.8164Z" fill="white"/>
  </mask>
  <g mask="url(#mask2_120_1549)">
    <path d="M79.9346 53.7331C79.8871 53.1636 79.3788 52.7419 78.8132 52.7912L75.4038 53.0769C75.386 53.0789 75.3721 53.0848 75.3543 53.0868C75.3504 53.0868 75.3464 53.0868 75.3444 53.0868C75.2812 53.0966 75.2198 53.1104 75.1605 53.1321C75.0972 53.1538 75.0379 53.1813 74.9825 53.2129C74.9805 53.2129 74.9786 53.2148 74.9786 53.2148C74.767 53.337 74.6068 53.5262 74.5217 53.7567C74.5 53.8198 74.4842 53.8828 74.4723 53.9498C74.4723 53.9518 74.4723 53.9538 74.4723 53.9538C74.4703 53.9754 74.4624 53.9971 74.4624 54.0188L74.1737 57.4119C74.1242 57.9814 74.5474 58.4819 75.119 58.5292C75.1467 58.5311 75.1783 58.5331 75.208 58.5331C75.74 58.5331 76.1948 58.1252 76.2403 57.5873L76.3708 56.0621C76.8395 56.5232 77.1777 57.0415 77.1777 57.5755C77.1777 59.0612 74.4169 61.3233 66.6665 63.207C59.4599 64.9607 49.8584 65.9282 39.634 65.9282C29.4095 65.9282 19.808 64.9627 12.5995 63.207C4.85299 61.3233 2.09218 59.0612 2.09218 57.5755C2.09218 56.4917 3.46863 55.27 5.92685 54.139V51.8828C2.00121 53.5124 0.0136719 55.4257 0.0136719 57.5755C0.0136719 61.4592 6.58937 63.875 12.105 65.2149C19.4698 67.008 29.2434 67.9933 39.632 67.9933C50.0166 67.9933 59.7922 67.008 67.157 65.2149C72.6726 63.873 79.2463 61.4592 79.2463 57.5755C79.2463 56.6474 78.8765 55.7607 78.1369 54.9213L78.9873 54.8503C79.5608 54.8011 79.982 54.3006 79.9346 53.7331Z" fill="white"/>
  </g>
</svg>