<svg xmlns="http://www.w3.org/2000/svg" width="92" height="94" viewBox="0 0 92 94" fill="none">
  <mask id="mask0_120_1015" style="mask-type:luminance" maskUnits="userSpaceOnUse" x="28" y="0" width="64" height="31">
    <path d="M28.7158 0H91.499V30.7278H28.7158V0Z" fill="white"/>
  </mask>
  <g mask="url(#mask0_120_1015)">
    <path fill-rule="evenodd" clip-rule="evenodd" d="M54.3295 13.2873L53.0313 17.0671C54.7581 17.6957 56.8971 18.1043 59.3287 18.179V14.4096C57.3999 14.3163 55.7019 13.9117 54.3295 13.2873ZM65.9869 13.2873C64.6144 13.9117 62.9185 14.3163 60.9876 14.4096V18.179C63.4213 18.1043 65.5582 17.6957 67.2872 17.0671L65.9869 13.2873ZM60.1633 -0.00830078C60.8722 -0.00830078 61.3997 0.730228 61.4533 1.64302L62.1395 7.70684C63.5305 8.03254 64.7319 8.70468 65.7354 9.64029L70.4338 9.67971C71.1324 9.7295 71.697 10.1983 71.697 10.8331C71.697 11.4742 71.1077 11.7895 70.4338 11.9866L67.9445 12.7085C68.5792 13.9885 69.0305 15.4386 69.3066 17.0111L88.3825 15.4987L89.9259 12.9969C90.4535 12.1401 91.5189 12.6753 91.5189 13.3972C91.5189 13.3972 91.5189 15.9012 91.5189 17.1604C91.5189 18.2952 90.165 18.7703 89.318 18.9175L80.3149 20.4942C80.3458 20.683 80.3581 20.8676 80.3581 21.0522C80.3581 23.3155 78.5385 25.1473 76.2924 25.1473C74.3739 25.1473 72.7191 23.7947 72.3214 21.9028L69.5519 22.3903C69.0614 26.8111 65.1729 30.2963 60.1633 30.2963C55.1517 30.2963 51.2549 26.8111 50.7645 22.3903L48.0032 21.9028C47.6055 23.7968 45.9445 25.1473 44.026 25.1473C41.7778 25.1473 39.9603 23.3155 39.9603 21.0522C39.9603 20.8676 39.9726 20.683 40.0015 20.4942L30.9983 18.9175C29.8505 18.7142 28.7996 18.1479 28.7996 17.1708C28.7996 15.9136 28.7996 13.3972 28.7996 13.3972C28.7996 12.6753 29.8588 12.138 30.3925 12.9969L31.9359 15.4987L51.0118 17.0111C51.2859 15.4386 51.7454 13.9885 52.3698 12.7085L49.8846 11.9866C49.2046 11.7895 48.6214 11.4742 48.6214 10.8331C48.6214 10.1983 49.186 9.7295 49.8846 9.67971L54.5768 9.64029C55.5886 8.70468 56.7879 8.03254 58.1789 7.70684L58.8651 1.64302C58.9187 0.732303 59.4462 -0.00830078 60.1633 -0.00830078Z" fill="#E97925"/>
  </g>
  <mask id="mask1_120_1015" style="mask-type:luminance" maskUnits="userSpaceOnUse" x="0" y="28" width="43" height="66">
    <path d="M0.5 28.6025H42.4331V93.9997H0.5V28.6025Z" fill="white"/>
  </mask>
  <g mask="url(#mask1_120_1015)">
    <path fill-rule="evenodd" clip-rule="evenodd" d="M9.96815 82.5533H32.9449L34.0041 86.0074H8.9069L9.96815 82.5533ZM12.4554 74.4502H30.4576L31.591 78.1449H11.32L12.4554 74.4502ZM33.4024 55.431C35.5043 55.4248 37.2064 57.1404 37.2064 59.2564C37.2064 61.3704 35.5043 63.086 33.4024 63.086C31.3087 63.086 29.6066 61.3704 29.6066 59.2564C29.6066 57.1404 31.3087 55.431 33.4024 55.431ZM9.41589 55.431C11.5157 55.431 13.2199 57.1404 13.2199 59.2564C13.2199 61.3704 11.5157 63.086 9.41589 63.086C7.32016 63.086 5.61597 61.3704 5.61597 59.2564C5.61597 57.1404 7.32016 55.431 9.41589 55.431ZM22.8866 36.4305H34.612C35.2158 39.424 35.7557 42.6789 36.0318 45.9525H22.8866V36.4305ZM8.29899 36.4305H20.0182V45.9525H6.87917C7.15531 42.6789 7.69521 39.424 8.29899 36.4305ZM21.3968 28.7734C17.2506 28.8232 11.2108 28.9145 8.65549 29.9684C6.87917 30.7048 6.04665 31.6715 5.29862 33.6444C4.45374 35.889 3.1658 43.2017 2.96591 48.1806L2.28383 64.9033C2.14164 68.2972 5.37281 71.8363 8.70495 73.4897L0.550781 93.9694H6.46085L7.55302 90.4157H35.358L36.446 93.9694H42.3581L34.206 73.4897C37.5382 71.8384 40.7652 68.2972 40.6251 64.9053L39.9451 48.1806C39.7431 43.2038 38.4572 35.889 37.6124 33.6465C36.8582 31.6715 36.0318 30.7048 34.2493 29.9704C31.6941 28.9145 25.6624 28.8253 21.5142 28.7755H21.3968V28.7734Z" fill="#E97925"/>
  </g>
  <mask id="mask2_120_1015" style="mask-type:luminance" maskUnits="userSpaceOnUse" x="43" y="37" width="49" height="49">
    <path d="M43.4883 37.1001H91.5004V85.4281H43.4883V37.1001Z" fill="white"/>
  </mask>
  <g mask="url(#mask2_120_1015)">
    <path fill-rule="evenodd" clip-rule="evenodd" d="M73.4858 72.6674H61.6739C60.9629 72.6674 60.3818 72.9869 60.219 73.7088L59.7574 75.6713C59.4401 77.1629 60.8661 78.0342 62.3745 78.0342H72.7872C74.2936 78.0342 75.7278 77.1629 75.4084 75.6713L74.9489 73.7088C74.784 72.9869 74.2029 72.6674 73.4858 72.6674ZM52.7181 69.9477C51.9721 69.9373 51.6527 70.3107 51.5332 70.9103C51.323 71.9641 51.0716 74.0594 52.2421 74.7523C53.2044 75.3124 55.226 75.719 56.3058 75.9783C57.3382 76.2314 57.604 75.2439 57.2413 73.7814C56.5695 71.0638 55.057 70.4829 53.6289 70.0929C53.2704 69.9975 52.9716 69.9477 52.7181 69.9477ZM82.4436 69.9477C82.1963 69.9477 81.8913 69.9975 81.5348 70.095C80.113 70.4829 78.5942 71.0638 77.9286 73.7835C77.5659 75.246 77.8235 76.2314 78.858 75.9804C79.9378 75.7211 81.9655 75.3124 82.9217 74.7523C84.0983 74.0615 83.8469 71.9662 83.6326 70.9103C83.5152 70.3107 83.1958 69.9373 82.4436 69.9477ZM81.065 45.0949H54.0967C53.4867 49.6983 52.8376 60.7534 52.8376 64.7075H82.3323C82.3303 60.7513 81.675 49.6962 81.065 45.0949ZM79.9502 37.498C82.6435 37.498 84.2488 39.7427 84.8113 42.396C84.9226 42.9208 85.0277 43.5349 85.1246 44.1884L90.1774 45.5762C91.0305 45.8065 91.521 46.4828 91.521 47.6051V51.0052C91.521 53.0134 89.7323 53.3163 88.3908 53.3163C87.7087 53.3163 87.3233 53.0217 87.3233 52.4844L87.3171 46.7815L85.3945 46.1633C86.326 53.6503 86.8638 65.892 86.8638 69.3399V78.2209C86.8638 80.1564 86.5155 81.0194 84.7949 82.0193V83.8988C84.7949 84.6394 84.1993 85.2369 83.4575 85.2369H79.6782C78.9363 85.2369 78.3243 84.6374 78.3408 83.8988V82.0193H56.8601V83.8988C56.8724 84.6394 56.2604 85.2369 55.5186 85.2369H51.7454C51.0057 85.2369 50.4101 84.6374 50.4101 83.8988V82.0193C48.6894 81.0194 48.335 80.1564 48.335 78.2209V69.3399C48.335 65.8858 48.879 53.6399 49.8166 46.1509L47.8487 46.7794L47.8363 52.4844C47.8363 53.0196 47.451 53.3142 46.775 53.3142C45.4356 53.3142 43.6387 53.0134 43.6387 51.0032V47.6051C43.6387 46.4807 44.1291 45.8044 44.9802 45.5762L50.0722 44.1801C50.1752 43.5287 50.2803 42.9125 50.3895 42.3939C50.9541 39.7427 52.5594 37.498 55.2548 37.498H79.9502Z" fill="#E97925"/>
  </g>
</svg>