<svg xmlns="http://www.w3.org/2000/svg" width="92" height="94" viewBox="0 0 92 94" fill="none">
  <path d="M19.48 33.7447H23.9326V31.1363C22.6829 31.0767 21.4179 30.9201 20.1507 30.6597C19.8186 31.6439 19.5783 32.6722 19.48 33.7447Z" fill="#E97925"/>
  <path d="M20.1507 38.8933C21.4179 38.633 22.6829 38.4719 23.9326 38.4189V35.8105H19.48C19.5783 36.8808 19.8186 37.9136 20.1507 38.8933Z" fill="#E97925"/>
  <path d="M34.3798 27.0942C32.6844 24.978 30.3117 23.4443 27.5981 22.833C28.6862 24.146 30.0167 26.0107 31.0239 28.2395C32.136 27.9372 33.2568 27.5532 34.3798 27.0898V27.0942Z" fill="#E97925"/>
  <path d="M23.9332 29.0647V24.1216C22.9959 25.2492 21.8532 26.8403 20.9487 28.7138C21.9516 28.8992 22.95 29.0161 23.9332 29.0647Z" fill="#E97925"/>
  <path d="M23.9332 45.4299V40.4868C22.95 40.5354 21.9516 40.6501 20.9487 40.8377C21.8532 42.7134 22.9959 44.3 23.9332 45.4299Z" fill="#E97925"/>
  <path d="M22.3153 22.835C19.6018 23.4484 17.2269 24.9821 15.5337 27.094C16.6501 27.5574 17.7731 27.9369 18.8896 28.2392C19.8968 26.0104 21.2251 24.1502 22.311 22.835H22.3153Z" fill="#E97925"/>
  <path d="M33.9829 63.7767H34.8962L34.4374 62.5542L33.9829 63.7767Z" fill="#E97925"/>
  <path d="M25.4101 94L37.6297 81.6577H13.1948L25.4101 94Z" fill="#E97925"/>
  <path d="M25.9771 24.1172V29.0647C26.9646 29.0161 27.963 28.9036 28.9681 28.7182C28.0635 26.8381 26.9187 25.2448 25.9771 24.1172Z" fill="#E97925"/>
  <path d="M17.4275 35.8105H12.8853C13.0338 37.5803 13.5516 39.2464 14.3709 40.7205C15.6316 40.1843 16.8966 39.7341 18.1441 39.381C17.7792 38.2534 17.5258 37.0596 17.4318 35.815L17.4275 35.8105Z" fill="#E97925"/>
  <path d="M18.1441 30.173C16.8878 29.8177 15.6228 29.3675 14.3709 28.8291C13.556 30.3054 13.0338 31.9715 12.8853 33.7413H17.4275C17.5214 32.4967 17.7792 31.3028 18.1397 30.173H18.1441Z" fill="#E97925"/>
  <path d="M15.5337 42.4617C17.2269 44.5735 19.5974 46.1072 22.3153 46.7185C21.2251 45.4055 19.8968 43.5452 18.8939 41.3164C17.7797 41.6187 16.6589 41.9983 15.5381 42.4617H15.5337Z" fill="#E97925"/>
  <path d="M31.7695 39.3744C33.0258 39.7297 34.2842 40.1799 35.5427 40.7161C36.3554 39.242 36.8754 37.5803 37.024 35.8105H32.4774C32.3813 37.0551 32.1278 38.249 31.7651 39.3744H31.7695Z" fill="#E97925"/>
  <mask id="mask0_120_968" style="mask-type:luminance" maskUnits="userSpaceOnUse" x="0" y="15" width="50" height="65">
    <path d="M0.500488 15.4907H49.5516V79.892H0.500488V15.4907Z" fill="white"/>
  </mask>
  <g mask="url(#mask0_120_968)">
    <path d="M47.6796 15.9649C47.4261 15.8789 47.1552 15.8325 46.8821 15.8325H3.02424C1.66092 15.8325 0.553223 16.9535 0.553223 18.3305V77.0936C0.553223 78.4706 1.66092 79.5916 3.02424 79.5916H46.8821C48.2454 79.5916 49.3531 78.4706 49.3531 77.0936V18.3305C49.3531 17.2603 48.678 16.3092 47.6752 15.9649H47.6796ZM19.4911 59.9914L16.4302 68.1916C16.2795 68.5932 15.8993 68.8603 15.4733 68.8603C15.0472 68.8603 14.6671 68.5955 14.5163 68.1916L11.4554 59.9914C11.2544 59.4574 11.5231 58.8616 12.0519 58.6607C12.5806 58.4577 13.1683 58.7292 13.3693 59.2632L15.4733 64.9014L17.5773 59.2632C17.7761 58.7292 18.366 58.4577 18.8947 58.6607C19.4212 58.8616 19.6878 59.4574 19.4911 59.9914ZM22.4537 67.8231C22.4537 68.3946 21.9971 68.8558 21.4313 68.8558C20.8676 68.8558 20.4088 68.3946 20.4088 67.8231V59.6229C20.4088 59.0513 20.8676 58.5901 21.4313 58.5901C21.9971 58.5901 22.4537 59.0513 22.4537 59.6229V67.8231ZM27.3652 68.8558H24.3283C23.7646 68.8558 23.3058 68.3946 23.3058 67.8231C23.3058 67.2538 23.7646 66.7903 24.3283 66.7903H27.3652C27.9311 66.7903 28.3877 66.3358 28.3877 65.773C28.3877 65.2103 27.9311 64.7557 27.3652 64.7557H26.3755C24.6801 64.7557 23.3058 63.3721 23.3058 61.6729C23.3058 59.9738 24.6801 58.5901 26.3755 58.5901H28.2653C28.8312 58.5901 29.2878 59.0513 29.2878 59.6229C29.2878 60.1922 28.8312 60.6556 28.2653 60.6556H26.3755C25.8096 60.6556 25.353 61.1102 25.353 61.6729C25.353 62.2357 25.8096 62.6902 26.3755 62.6902H27.3652C29.0606 62.6902 30.4349 64.0739 30.4349 65.773C30.4349 67.4722 29.0606 68.8558 27.3652 68.8558ZM37.8632 68.7896C37.743 68.836 37.6207 68.8558 37.5027 68.8558C37.0898 68.8558 36.7009 68.5999 36.5436 68.1872L35.6697 65.8392H33.2139L32.3378 68.1872C32.1368 68.7212 31.5469 68.9927 31.0204 68.7896C30.4917 68.5888 30.2251 67.993 30.4217 67.459L33.4827 59.2588C33.6356 58.8571 34.0158 58.5901 34.4418 58.5901C34.8656 58.5901 35.248 58.8549 35.3987 59.2588L38.4597 67.459C38.6607 67.993 38.3897 68.5888 37.8632 68.7896ZM36.8473 42.5318C36.8232 42.5715 36.7992 42.6134 36.7686 42.6509C34.2321 46.5193 29.8865 49.0791 24.9554 49.0791C17.1468 49.0791 10.7912 42.6642 10.7912 34.7729C10.7912 31.9284 11.6215 29.2759 13.046 27.0471C13.0744 26.9897 13.1115 26.9368 13.1486 26.886C15.6852 23.0265 20.033 20.4711 24.9554 20.4711C29.8777 20.4711 34.2233 23.0265 36.7621 26.8904C36.8014 26.939 36.8342 26.9986 36.8669 27.056C38.2871 29.2825 39.1151 31.9328 39.1151 34.7729C39.1151 37.613 38.2761 40.2941 36.8429 42.5318H36.8473Z" fill="#E97925"/>
  </g>
  <path d="M51.4048 67.7484L66.1763 52.8242L51.4048 37.9067V67.7484Z" fill="#E97925"/>
  <mask id="mask1_120_968" style="mask-type:luminance" maskUnits="userSpaceOnUse" x="49" y="0" width="43" height="52">
    <path d="M49.5513 0H91.4996V51.6463H49.5513V0Z" fill="white"/>
  </mask>
  <g mask="url(#mask1_120_968)">
    <path d="M64.3022 -0.00927734L49.688 14.7515C49.688 14.7515 49.7164 14.7802 49.7317 14.7913C49.8344 14.8751 49.9283 14.9612 50.0223 15.0517C50.0441 15.0693 50.0594 15.0892 50.0813 15.1068C50.1861 15.2128 50.2844 15.3253 50.3784 15.4423C50.4002 15.4665 50.4199 15.4952 50.4396 15.5195C50.5182 15.6188 50.5881 15.7225 50.658 15.8262C50.6733 15.8549 50.6952 15.8792 50.7105 15.9079C50.7891 16.0359 50.8612 16.1639 50.9268 16.3007C50.9399 16.3249 50.953 16.3514 50.9639 16.3801C51.0185 16.4949 51.0666 16.6118 51.1125 16.731C51.1234 16.7685 51.1409 16.8016 51.1518 16.8391C51.2021 16.9825 51.2458 17.1282 51.2785 17.276C51.2829 17.2981 51.2873 17.3136 51.2916 17.3334C51.32 17.4658 51.3441 17.6026 51.3616 17.735C51.3659 17.777 51.3725 17.8189 51.3768 17.8586C51.3943 18.0153 51.4052 18.1698 51.4052 18.3309V34.9829L67.6275 51.3656L91.4004 27.3542L64.3022 -0.00927734ZM78.5908 29.9118L72.3598 29.5984L62.7138 39.3411C62.5216 39.5353 62.2637 39.6413 61.9885 39.6413C61.7154 39.6413 61.4576 39.5353 61.2653 39.3411L60.1467 38.2113C59.7905 37.8516 59.7468 37.2867 60.0418 36.8718L65.5169 29.2498L59.0674 28.9254L54.9009 33.1314C54.5011 33.5374 53.8544 33.5374 53.4524 33.1314L52.1677 31.8338C51.8269 31.4918 51.7701 30.9622 52.0235 30.5539L54.9293 25.9022L52.0235 21.2526C51.7701 20.8443 51.8269 20.3103 52.1677 19.9705L53.4524 18.6729C53.8544 18.2691 54.5011 18.2691 54.9009 18.6729L59.0674 22.8811L65.5169 22.5545L60.0418 14.9325C59.7468 14.5198 59.7905 13.9527 60.1467 13.593L61.2653 12.4654C61.6651 12.0637 62.3118 12.0593 62.7138 12.4654L72.3598 22.2081L78.5908 21.8925C79.8973 21.8263 81.8811 22.6406 82.991 23.7087C83.6836 24.3729 84.0463 25.1342 84.0463 25.9022C84.0463 26.6723 83.6836 27.4358 82.991 28.0979C81.8811 29.1637 79.9061 29.978 78.5908 29.9118Z" fill="#E97925"/>
  </g>
  <path d="M29.7633 30.6597C28.494 30.9156 27.2246 31.0767 25.9771 31.1319V33.7403H30.4297C30.3357 32.67 30.0932 31.6395 29.7633 30.6597Z" fill="#E97925"/>
  <path d="M78.6942 23.9556L72.0087 24.2955C71.7203 24.3109 71.4384 24.2006 71.2352 23.9932L63.4005 16.082L68.2879 22.881C68.5086 23.1877 68.5457 23.5915 68.3819 23.9358C68.218 24.2778 67.8859 24.5007 67.5101 24.5228L58.7207 24.9685C58.4257 24.9818 58.1504 24.8736 57.9472 24.6662L54.2593 20.9435L56.9204 25.2002C57.0209 25.3657 57.0799 25.5555 57.0799 25.7497V26.0476C57.0799 26.2418 57.0252 26.4316 56.9204 26.5971L54.2593 30.8539L57.9472 27.1311C58.1395 26.9369 58.4017 26.8288 58.6704 26.8288C58.6879 26.8288 58.7032 26.8288 58.7207 26.8288L67.5101 27.2746C67.8859 27.2966 68.218 27.5195 68.3819 27.8616C68.5457 28.2058 68.5086 28.6052 68.2879 28.9164L63.4005 35.7153L71.2352 27.8042C71.4384 27.5968 71.7246 27.4908 72.0087 27.5019L78.6942 27.8417C79.2884 27.866 80.7523 27.3915 81.5803 26.5971C81.8447 26.3411 82.002 26.0851 82.002 25.8976C82.002 25.7122 81.8447 25.4562 81.5803 25.2002C80.7523 24.4058 79.3037 23.927 78.6942 23.9556Z" fill="#E97925"/>
  <path d="M27.5933 46.7175C30.3068 46.1063 32.6839 44.5726 34.3749 42.4607C33.2519 41.9973 32.1311 41.6178 31.019 41.311C30.0118 43.5398 28.6813 45.4045 27.5933 46.7175Z" fill="#E97925"/>
  <path d="M25.9771 40.4868V45.4299C26.9143 44.3 28.0614 42.709 28.9637 40.8333C27.9587 40.6479 26.9602 40.531 25.9771 40.4868Z" fill="#E97925"/>
  <path d="M31.769 30.1813C32.1317 31.3045 32.3852 32.5006 32.4791 33.7452H37.0257C36.8793 31.9754 36.3593 30.3137 35.5444 28.8374C34.2881 29.3758 33.0253 29.826 31.769 30.1813Z" fill="#E97925"/>
  <path d="M30.4297 35.8105H25.9771V38.4189C27.2224 38.4763 28.4852 38.633 29.759 38.8911C30.091 37.9114 30.3314 36.8764 30.4297 35.8105Z" fill="#E97925"/>
</svg>