<svg xmlns="http://www.w3.org/2000/svg" width="106" height="94" viewBox="0 0 106 94" fill="none">
  <mask id="mask0_120_1057" style="mask-type:luminance" maskUnits="userSpaceOnUse" x="0" y="0" width="106" height="94">
    <path d="M0.614746 0H105.078V94H0.614746V0Z" fill="white"/>
  </mask>
  <g mask="url(#mask0_120_1057)">
    <path d="M1.44428 18.5158L53.1388 0.0454102L103.398 17.716L105.01 89.5851L52.3487 93.8832L0.603027 89.5652L1.44428 18.5158Z" fill="#E97925"/>
  </g>
  <mask id="mask1_120_1057" style="mask-type:luminance" maskUnits="userSpaceOnUse" x="51" y="0" width="55" height="94">
    <path d="M51.9653 0H105.385V94H51.9653V0Z" fill="white"/>
  </mask>
  <g mask="url(#mask1_120_1057)">
    <path d="M53.0683 0.03125L103.353 17.5709C103.97 41.6031 104.587 65.6326 105.203 89.662L52.355 94.0085L53.0683 0.03125Z" fill="#E97925"/>
  </g>
  <path d="M54.8048 36.0096L52.8125 36.0552L50.8173 36.1007V41.3097C52.136 41.3011 53.4576 41.2897 54.7763 41.2784C54.7849 39.5221 54.7962 37.7659 54.8048 36.0096ZM52.4629 26.3916L1.24014 35.9242L1.15771 42.787L51.3914 32.7078L103.993 42.4625C103.944 40.6322 103.896 38.7991 103.85 36.9689L52.4629 26.3916ZM68.4297 39.2232L68.1853 43.8771C71.1552 44.1447 74.1252 44.4123 77.0952 44.6827C77.1435 43.1655 77.189 41.6484 77.2344 40.1341L68.4297 39.2232ZM36.9537 38.338L27.9244 40.1369L28.274 44.8762L37.4795 43.5583L36.9537 38.338ZM87.1135 41.3182L87.0282 46.2453C90.092 46.4588 93.1586 46.6723 96.2252 46.8858C96.2934 45.3516 96.3616 43.8145 96.4298 42.2803L87.1135 41.3182ZM17.8379 41.0734L13.3218 41.9729L8.80859 42.8723L9.161 47.6088C12.2276 47.1704 15.2942 46.7321 18.3636 46.2937C18.1874 44.5517 18.0112 42.8126 17.8379 41.0734Z" fill="white"/>
  <mask id="mask2_120_1057" style="mask-type:luminance" maskUnits="userSpaceOnUse" x="0" y="3" width="106" height="73">
    <path d="M0.614746 3.7832H105.078V75.9227H0.614746V3.7832Z" fill="white"/>
  </mask>
  <g mask="url(#mask2_120_1057)">
    <path d="M21.1658 11.4687L20.7849 11.6053L20.0829 32.4183L19.8613 39.0333L20.2393 38.9593L20.4609 32.3471L21.1658 11.4687ZM64.0271 3.85449L64.7945 46.2746H64.7917C63.5269 52.2122 61.7847 57.1878 59.5651 61.2012C57.0896 65.505 54.7023 67.6796 52.403 67.728C50.3312 67.5516 48.4753 65.8209 46.8326 62.5305C45.7071 60.834 43.5329 55.5141 40.3157 46.5678L40.6852 34.8548L40.887 28.5471L41.6572 4.14767L41.2792 4.2843L40.509 28.6155L40.3072 34.9316L39.9661 45.7679H39.9633C36.9507 51.845 34.6571 55.9923 33.0854 58.2096C31.5223 60.2704 30.5986 61.3293 30.3173 61.3834C29.7233 61.8644 29.1435 62.1548 28.5836 62.2572C28.4557 62.28 28.3278 62.2942 28.1971 62.2942C25.75 62.2942 22.9819 57.9762 19.8897 49.343L20.2393 38.9593L19.8613 39.0333L19.4946 49.8639C16.3627 56.5502 14.1174 59.9089 12.7532 59.9402C12.6594 59.9545 12.5657 59.963 12.4719 59.963C10.8831 59.963 9.10685 57.5834 7.14866 52.8185L7.16855 41.5809L7.18276 34.8178L7.21687 16.4527L6.83887 16.5865L6.80476 34.889L6.7934 41.6577L6.77066 52.7616L0.677246 70.4094C2.42228 72.0916 4.5311 73.1419 7.00655 73.5603C7.89044 73.6941 8.86811 73.7596 9.93958 73.7596C9.95947 73.7596 9.97652 73.7596 9.99358 73.7596C13.5888 73.6315 16.3911 73.5689 18.4004 73.5689C19.8442 73.5689 20.8816 73.6002 21.5068 73.6657C21.5267 73.6657 21.5495 73.6657 21.575 73.6657C22.4675 73.6657 25.8922 74.1439 31.8435 75.1031C33.2531 75.2312 34.1967 75.2938 34.6656 75.2938C34.7623 75.2938 34.839 75.291 34.8959 75.2881C34.9925 75.2881 35.0891 75.291 35.1886 75.291C37.2576 75.291 39.3551 74.8697 41.4838 74.03C42.3677 73.6827 43.2345 73.2956 44.0871 72.8687L50.9394 69.2793C52.2354 68.7841 53.0283 68.5393 53.3182 68.5393C53.3694 68.5393 53.4063 68.545 53.4262 68.562C53.5115 68.5478 53.5996 68.5393 53.6962 68.5393C54.1282 68.5393 54.671 68.6844 55.3304 68.9691L59.5622 72.2595C60.7815 72.9768 61.583 73.3867 61.9695 73.4835C64.5416 74.437 67.557 75.0006 71.013 75.18C71.7661 75.2198 72.542 75.2397 73.3463 75.2397C78.0983 75.2397 83.7512 74.5452 90.3078 73.159C92.5019 73.4266 94.2782 73.5603 95.6424 73.5603C96.3813 73.5603 96.9981 73.5205 97.4954 73.4436C99.4735 73.196 101.79 72.3819 104.444 71.0043L98.3196 52.8641V15.818L97.9445 15.687V51.7511L97.9132 51.6629C96.4069 56.5189 94.8864 58.9468 93.3574 58.9468C93.2721 58.9468 93.1897 58.9383 93.1073 58.9241C93.1016 58.9241 93.0959 58.9241 93.0902 58.9241C91.7488 58.9241 89.1937 55.7133 85.428 49.2918C85.4053 49.3544 85.3825 49.4199 85.3598 49.4825L84.5981 11.0303L84.2201 10.8965L85.0017 50.4475C81.9464 58.5569 79.2266 62.613 76.8449 62.613C76.7142 62.613 76.5863 62.6016 76.4584 62.576C75.8871 62.4878 75.296 62.206 74.6878 61.7392C74.4007 61.6908 73.4572 60.649 71.8599 58.6167C70.3138 56.5132 68.0885 52.6335 65.1839 46.9748L65.181 46.9777L64.4051 3.98543L64.0271 3.85449Z" fill="white"/>
  </g>
</svg>