<svg xmlns="http://www.w3.org/2000/svg" width="24" height="24" viewBox="0 0 24 24" fill="none">
  <path d="M12 12.0002V18.0002M12 12.0002L17 8.66684M12 12.0002L7 8.66684M4.33984 6.42282L11.0001 2.57752C11.6189 2.22025 12.3813 2.22025 13.0001 2.57752L19.6604 6.42282C20.2792 6.78008 20.6604 7.44034 20.6604 8.15487V15.8455C20.6604 16.56 20.2792 17.2203 19.6604 17.5775L13.0001 21.4228C12.3813 21.7801 11.6189 21.7801 11.0001 21.4228L4.33984 17.5775C3.72104 17.2203 3.33984 16.56 3.33984 15.8455V8.15487C3.33984 7.44034 3.72104 6.78008 4.33984 6.42282Z" stroke="white" stroke-width="2" stroke-linecap="round"/>
</svg>