<svg xmlns="http://www.w3.org/2000/svg" width="80" height="54" viewBox="0 0 80 54" fill="none">
  <mask id="mask0_120_1604" style="mask-type:luminance" maskUnits="userSpaceOnUse" x="0" y="0" width="80" height="54">
    <path d="M0 0H80V54H0V0Z" fill="white"/>
  </mask>
  <g mask="url(#mask0_120_1604)">
    <path d="M49.8523 32.5222C49.8804 32.5363 49.9037 32.5503 49.9318 32.5691L49.9365 32.5738C49.9505 32.5785 49.9599 32.5879 49.9739 32.5973L61.6247 39.351C61.9583 39.5435 62.2966 39.6859 62.6348 39.7798C62.9731 39.8752 63.327 39.9222 63.6839 39.9222C64.0409 39.9222 64.3932 39.8752 64.7315 39.7798C65.0698 39.6859 65.4096 39.5435 65.7432 39.351L77.3924 32.5973C77.4065 32.5879 77.4205 32.5785 77.4345 32.5691C77.4641 32.5503 77.4969 32.5316 77.5249 32.5175C80.0877 30.9448 79.3441 28.6931 78.5631 26.313C78.4743 26.0329 78.3854 25.7544 78.3013 25.4899C77.3924 22.5903 76.5366 19.456 75.6917 16.3436C74.8079 13.081 73.9287 9.84652 72.9451 6.80453C72.3013 4.81566 71.0417 3.10219 69.3909 1.89416C67.7884 0.722119 65.8133 0.0273438 63.6839 0.0273438C61.553 0.0273438 59.5795 0.722119 57.9755 1.89416C56.3262 3.10219 55.0651 4.81566 54.4213 6.80453C53.4392 9.84496 52.56 13.081 51.6762 16.3436C50.8297 19.456 49.9786 22.5903 49.0666 25.4899C48.9825 25.7544 48.8921 26.0329 48.8032 26.3067C48.0175 28.6915 47.2802 30.9495 49.8523 32.5222ZM57.9755 7.92806C59.4283 6.14888 61.4454 5.04725 63.6839 5.04725C65.9225 5.04725 67.938 6.14888 69.3909 7.92806C70.8016 9.65718 71.6762 12.0373 71.6762 14.663C71.6762 17.2872 70.8016 19.6626 69.3909 21.3964C67.938 23.1724 65.9225 24.2725 63.6839 24.2725C61.4454 24.2725 59.4283 23.1724 57.9755 21.3917C56.5663 19.6626 55.6917 17.2825 55.6917 14.663C55.6917 12.0419 56.5663 9.65718 57.9755 7.92806ZM59.288 20.3198C58.1126 18.8786 57.3831 16.8772 57.3831 14.663C57.3831 12.4472 58.1126 10.4411 59.288 9.00465C60.4213 7.61197 61.977 6.7482 63.6839 6.7482C65.3909 6.7482 66.9466 7.61197 68.0799 9.00465C69.2553 10.4411 69.9832 12.4425 69.9832 14.663C69.9832 16.8819 69.2553 18.8786 68.0799 20.3198C66.9466 21.7078 65.3909 22.5715 63.6839 22.5715C61.977 22.5715 60.4213 21.7078 59.288 20.3198ZM79.6122 39.085V53.9898H47.7557V39.085C47.7557 38.0804 47.9614 37.1258 48.3433 36.2621C48.6535 35.5485 49.0807 34.9022 49.5935 34.3358L60.7783 40.8188C61.235 41.0832 61.7042 41.282 62.1937 41.4181C62.6925 41.5558 63.1898 41.6215 63.6839 41.6215C64.1781 41.6215 64.6754 41.5558 65.1742 41.4181C65.6637 41.282 66.1329 41.0832 66.5896 40.8188L77.7744 34.3358C78.2872 34.9022 78.7143 35.5485 79.0246 36.2621C79.4049 37.1258 79.6122 38.0804 79.6122 39.085ZM32.2358 25.202H29.274C26.2498 29.089 22.9918 32.5363 19.5514 35.6393C16.1282 38.7219 12.5226 41.4713 8.78449 43.9734V53.9898H41.5359V34.5439C41.5359 31.9792 40.4914 29.6414 38.8032 27.9467C37.1212 26.2551 34.7938 25.202 32.2358 25.202ZM29.659 40.908C27.9801 42.5808 26.2405 44.119 24.4493 45.5602C22.6582 46.9951 20.8157 48.3267 18.9201 49.5833C18.5351 49.843 18.0082 49.7351 17.7494 49.3423C17.4969 48.9511 17.5998 48.4269 17.9895 48.1671C19.8383 46.9388 21.6481 45.6353 23.3971 44.2285C25.1508 42.8264 26.8422 41.3242 28.4649 39.7046C28.7985 39.3792 29.3301 39.3792 29.659 39.7093C29.9879 40.0442 29.9879 40.5778 29.659 40.908ZM34.9622 34.8882C34.6894 35.2465 34.4213 35.5861 34.1578 35.9131C33.8757 36.2574 33.6029 36.5922 33.3363 36.913C33.0355 37.2682 32.4992 37.3152 32.1454 37.0132C31.7884 36.7112 31.7416 36.1713 32.0425 35.813C32.32 35.4875 32.5834 35.1667 32.8422 34.8506C33.115 34.5095 33.3737 34.1793 33.6263 33.8538C33.9084 33.4798 34.44 33.4141 34.811 33.6973C35.1789 33.9853 35.2444 34.5189 34.9622 34.8882ZM14.6801 18.8223C13.1196 17.2496 12.15 15.0871 12.15 12.707V8.86852C12.15 6.48844 13.1196 4.32118 14.6801 2.75324C16.2451 1.1853 18.3995 0.207297 20.7689 0.207297C23.1384 0.207297 25.2958 1.1853 26.8562 2.75324C28.4228 4.32118 29.3909 6.48844 29.3909 8.86852V12.707C29.3909 15.0871 28.4228 17.2496 26.8562 18.8223C25.2958 20.3902 23.1384 21.3635 20.7689 21.3635C18.3979 21.3635 16.2451 20.3902 14.6801 18.8223ZM8.78449 37.8488C8.78449 37.3762 8.40258 36.9944 7.93804 36.9944C7.46727 36.9944 7.09159 37.3762 7.09159 37.8488V53.9898H0.00195312V34.5423C0.00195312 31.9792 1.0495 29.6414 2.73305 27.9467C4.42128 26.2551 6.74396 25.202 9.30203 25.202H16.4431V22.6905C17.8445 22.9268 19.288 23.0535 20.7689 23.0535C22.2498 23.0535 23.698 22.9268 25.0931 22.6905V25.202H27.115C24.3979 28.5788 21.4829 31.6099 18.4228 34.3733C15.3472 37.1446 12.122 39.6389 8.78449 41.9235V37.8488Z" fill="white"/>
  </g>
</svg>