<svg xmlns="http://www.w3.org/2000/svg" width="62" height="68" viewBox="0 0 62 68" fill="none">
  <path d="M35.8154 19.2778H40.7585L39.5697 11.6826H37.0043L35.8154 19.2778Z" fill="white"/>
  <path d="M25.2183 49.4261H51.3503V40.1912C51.3543 39.7624 51.337 39.3349 51.2984 38.9075C51.2612 38.4813 51.2012 38.0578 51.12 37.637C51.0402 37.2161 50.939 36.8006 50.8178 36.389C50.6954 35.9787 50.5542 35.5751 50.3918 35.178C50.2307 34.781 50.0483 34.3919 49.8486 34.0134C49.6476 33.6349 49.4293 33.2657 49.1923 32.9084C48.9553 32.551 48.7011 32.2056 48.4295 31.8734C48.1579 31.5399 47.8717 31.2223 47.5681 30.9179C47.2646 30.6135 46.9478 30.325 46.6163 30.0511C46.2848 29.7785 45.94 29.5217 45.5832 29.2822C45.2264 29.044 44.8576 28.8216 44.4782 28.6191C44.1001 28.4166 43.7114 28.2327 43.3133 28.0673C42.9166 27.9018 42.5119 27.7576 42.1005 27.6319C41.6878 27.5075 41.2711 27.4029 40.8491 27.3182C40.4271 27.2348 40.001 27.1713 39.5724 27.129C39.145 27.0866 38.715 27.0654 38.285 27.0654C37.8537 27.0654 37.425 27.0866 36.9963 27.129C36.5676 27.1713 36.1416 27.2348 35.7196 27.3182C35.2976 27.4029 34.8809 27.5075 34.4682 27.6319C34.0568 27.7576 33.6521 27.9018 33.2554 28.0673C32.8573 28.2327 32.4699 28.4166 32.0905 28.6191C31.7111 28.8216 31.3436 29.044 30.9855 29.2822C30.6287 29.5217 30.2839 29.7785 29.9524 30.0511C29.6209 30.325 29.3041 30.6135 29.0005 30.9179C28.697 31.2223 28.4108 31.5399 28.1392 31.8734C27.8676 32.2056 27.6133 32.551 27.3764 32.9084C27.1394 33.2657 26.9211 33.6349 26.72 34.0134C26.5203 34.3919 26.3393 34.781 26.1769 35.178C26.0145 35.5751 25.8733 35.9787 25.7509 36.389C25.6297 36.8006 25.5285 37.2161 25.4486 37.637C25.3674 38.0578 25.3089 38.4813 25.2703 38.9075C25.2316 39.3349 25.2143 39.7624 25.2183 40.1912V49.4261Z" fill="white"/>
  <mask id="mask0_120_1705" style="mask-type:luminance" maskUnits="userSpaceOnUse" x="14" y="61" width="48" height="7">
    <path d="M14.9458 61.0508H61.4999V67.9988H14.9458V61.0508Z" fill="white"/>
  </mask>
  <g mask="url(#mask0_120_1705)">
    <path d="M59.3938 61.1318H17.2449C17.1065 61.1318 16.9693 61.1451 16.8335 61.1729C16.6978 61.2007 16.5673 61.2404 16.4395 61.2933C16.3117 61.3462 16.1905 61.4111 16.076 61.4878C15.9602 61.5646 15.855 61.6519 15.7565 61.7486C15.6593 61.8465 15.5715 61.9524 15.4956 62.0675C15.4184 62.1813 15.3531 62.3017 15.3012 62.4288C15.248 62.5558 15.208 62.6869 15.1814 62.8219C15.1534 62.9568 15.1401 63.0932 15.1401 63.2308V67.9845H61.4999V63.2308C61.4999 63.0932 61.4866 62.9568 61.4599 62.8219C61.432 62.6869 61.392 62.5558 61.3401 62.4288C61.2869 62.3017 61.2216 62.18 61.1444 62.0662C61.0685 61.951 60.9807 61.8452 60.8835 61.7486C60.785 61.6506 60.6785 61.5633 60.564 61.4865C60.4481 61.4098 60.327 61.3449 60.1992 61.292C60.0714 61.239 59.9396 61.1993 59.8038 61.1729C59.6693 61.1451 59.5322 61.1318 59.3938 61.1318Z" fill="white"/>
  </g>
  <path d="M55.6011 53.2832C55.5997 53.1892 55.5904 53.0952 55.5731 53.0039C55.5545 52.9113 55.5265 52.8226 55.4906 52.7353C55.4546 52.6492 55.4107 52.5659 55.3574 52.4891C55.3055 52.411 55.2456 52.3382 55.1791 52.2721C55.1125 52.2059 55.0393 52.1463 54.962 52.0947C54.8835 52.0418 54.7996 51.9981 54.7131 51.9624C54.6266 51.9253 54.536 51.8989 54.4442 51.8803C54.351 51.8618 54.2578 51.8525 54.1633 51.8525H22.4731C22.3799 51.8525 22.2854 51.8618 22.1935 51.8803C22.1003 51.8989 22.0111 51.9253 21.9233 51.9624C21.8367 51.9981 21.7542 52.0418 21.6756 52.0947C21.5971 52.1463 21.5239 52.2059 21.4573 52.2721C21.3907 52.3382 21.3322 52.411 21.2789 52.4891C21.227 52.5659 21.1817 52.6492 21.1458 52.7353C21.1098 52.8226 21.0832 52.9113 21.0646 53.0039C21.0459 53.0952 21.0366 53.1892 21.0366 53.2832V58.7039H55.6011V53.2832Z" fill="white"/>
  <mask id="mask1_120_1705" style="mask-type:luminance" maskUnits="userSpaceOnUse" x="0" y="27" width="16" height="6">
    <path d="M0.5 27.8467H15.2867V32.5898H0.5V27.8467Z" fill="white"/>
  </mask>
  <g mask="url(#mask1_120_1705)">
    <path d="M15.1897 27.876H0.497559V29.7897L2.40664 32.4736H13.282L15.1897 29.7897V27.876Z" fill="white"/>
  </g>
  <mask id="mask2_120_1705" style="mask-type:luminance" maskUnits="userSpaceOnUse" x="2" y="34" width="11" height="34">
    <path d="M2.67627 34.626H12.9006V68.0002H2.67627V34.626Z" fill="white"/>
  </mask>
  <g mask="url(#mask2_120_1705)">
    <path d="M2.99219 67.986H6.62396V57.2186C6.62396 57.0572 6.65458 56.9023 6.71582 56.7541C6.77839 56.6045 6.86626 56.4735 6.98075 56.3597C7.09524 56.2459 7.22704 56.1585 7.37615 56.0977C7.52658 56.0355 7.68101 56.005 7.84343 56.005C8.00452 56.005 8.16028 56.0355 8.31072 56.0977C8.45982 56.1585 8.59162 56.2459 8.70611 56.3597C8.8206 56.4735 8.90847 56.6045 8.97104 56.7541C9.03228 56.9023 9.0629 57.0572 9.0629 57.2186V67.986H12.7V34.9043H2.99219V67.986Z" fill="white"/>
  </g>
  <path d="M44.19 25.9279V23.1553C44.19 23.0587 44.1807 22.9648 44.1621 22.8708C44.1434 22.7768 44.1155 22.6855 44.0795 22.5982C44.0423 22.5095 43.997 22.4248 43.9437 22.3454C43.8905 22.266 43.8293 22.1932 43.7614 22.1257C43.6935 22.0569 43.6202 21.9973 43.5404 21.9444C43.4605 21.8915 43.3753 21.8465 43.2861 21.8094C43.1982 21.7724 43.1064 21.7446 43.0118 21.726C42.9173 21.7075 42.8228 21.6982 42.7269 21.6982H33.8405C33.7447 21.6982 33.6502 21.7075 33.5556 21.726C33.4611 21.7446 33.3693 21.7724 33.2814 21.8094C33.1922 21.8465 33.1083 21.8915 33.0284 21.9444C32.9472 21.9973 32.874 22.0569 32.8061 22.1257C32.7382 22.1932 32.677 22.266 32.6237 22.3454C32.5705 22.4248 32.5252 22.5095 32.4893 22.5982C32.452 22.6855 32.424 22.7768 32.4054 22.8708C32.3868 22.9648 32.3774 23.0587 32.3774 23.1553V25.9266C33.3133 25.5415 34.2785 25.2503 35.2717 25.0545C36.2648 24.8573 37.2686 24.7593 38.2817 24.7593C39.2949 24.7593 40.2973 24.8573 41.2918 25.0545C42.2849 25.2503 43.2501 25.5415 44.186 25.9266L44.19 25.9279Z" fill="white"/>
  <path d="M12.6935 25.4502V16.4893H2.99365V25.4502H6.6241V21.6281C6.6241 21.4667 6.65472 21.3118 6.71596 21.1636C6.77853 21.0154 6.86639 20.883 6.98089 20.7692C7.09538 20.6554 7.22717 20.5681 7.37628 20.5072C7.52672 20.445 7.68115 20.4145 7.84356 20.4145C8.00465 20.4145 8.16041 20.445 8.31085 20.5072C8.45996 20.5681 8.59175 20.6554 8.70625 20.7692C8.82074 20.883 8.9086 21.0154 8.97117 21.1636C9.03241 21.3118 9.06303 21.4667 9.06303 21.6281V25.4502H12.6935Z" fill="white"/>
  <mask id="mask3_120_1705" style="mask-type:luminance" maskUnits="userSpaceOnUse" x="5" y="0" width="6" height="8">
    <path d="M5.0625 0H10.5155V7.18092H5.0625V0Z" fill="white"/>
  </mask>
  <g mask="url(#mask3_120_1705)">
    <path d="M5.19971 2.64493V7.03739H10.4876V2.64493C10.4876 2.47288 10.4703 2.30216 10.4357 2.13276C10.4024 1.96336 10.3518 1.79926 10.2853 1.63912C10.2187 1.48031 10.1375 1.32812 10.0416 1.18519C9.94445 1.04093 9.83528 0.908592 9.7128 0.786836C9.58899 0.665081 9.45586 0.555237 9.31208 0.45995C9.16697 0.36334 9.0152 0.282611 8.85545 0.216439C8.69436 0.150268 8.52928 0.101301 8.35887 0.0668918C8.18847 0.0338062 8.01673 0.0166016 7.84366 0.0166016C7.67059 0.0166016 7.49886 0.0338062 7.32845 0.0668918C7.15804 0.101301 6.99296 0.150268 6.83188 0.216439C6.67212 0.282611 6.51902 0.36334 6.37524 0.45995C6.23146 0.555237 6.097 0.665081 5.97452 0.786836C5.85204 0.908592 5.74288 1.04093 5.64569 1.18519C5.54984 1.32812 5.46863 1.48031 5.40206 1.63912C5.3355 1.79926 5.28491 1.96336 5.2503 2.13276C5.21701 2.30216 5.19971 2.47288 5.19971 2.64493Z" fill="white"/>
  </g>
  <mask id="mask4_120_1705" style="mask-type:luminance" maskUnits="userSpaceOnUse" x="0" y="9" width="16" height="6">
    <path d="M0.5 9.21484H15.2867V14.2968H0.5V9.21484Z" fill="white"/>
  </mask>
  <g mask="url(#mask4_120_1705)">
    <path d="M13.2842 14.0631L15.1906 11.3765V9.4668H0.49707V11.3752L2.40748 14.0631H13.2842Z" fill="white"/>
  </g>
</svg>