<svg xmlns="http://www.w3.org/2000/svg" width="68" height="68" viewBox="0 0 68 68" fill="none">
  <mask id="mask0_120_1691" style="mask-type:luminance" maskUnits="userSpaceOnUse" x="0" y="-1" width="68" height="69">
    <path d="M0 -0.000976562H68V68.0003H0V-0.000976562Z" fill="white"/>
  </mask>
  <g mask="url(#mask0_120_1691)">
    <path d="M67.6075 58.3675C67.9048 57.9006 67.9791 57.3177 67.777 56.7974C67.0559 54.8453 65.4858 52.9036 63.7997 51.8538C63.6928 51.4717 63.4489 51.1327 63.089 50.8888C61.4225 49.7635 59.4821 49.0645 57.4869 48.8728C56.9249 48.8089 56.3837 49.0319 56.0238 49.457C53.8382 48.9158 53.2436 47.5153 53.1693 45.4354C56.1829 44.0674 58.538 40.9912 59.4716 37.1509C59.4821 37.1509 59.4821 37.1509 59.4925 37.1509C61.5085 37.1509 63.1529 35.5169 63.1529 33.5009C63.1529 31.8356 62.038 30.4351 60.511 29.9891C60.7444 27.2637 60.288 25.2477 59.1104 24.0167C58.0815 22.9461 56.7984 22.7544 56.0238 22.7544H56.012C55.1853 21.0787 53.5409 20.3993 52.0765 20.1346V2.91614C52.0765 1.30436 50.7724 -0.000976562 49.1594 -0.000976562H2.91712C1.30403 -0.000976562 0 1.30436 0 2.91614V49.1701C0 50.7819 1.30403 52.0872 2.91712 52.0872H35.8674C33.2254 54.2089 31.5171 57.4664 31.5171 61.115V67.0979C31.5171 67.5439 31.8783 67.8947 32.3126 67.8947C32.7586 67.8947 33.1093 67.5439 33.1093 67.0979V61.115C33.1093 55.6094 37.5861 51.1327 43.0917 51.1327C44.8 51.1327 46.3583 50.0712 46.9738 48.4803C47.1864 47.9287 47.4094 47.218 47.6323 45.9661C48.2896 46.1356 48.969 46.2204 49.6692 46.2204C50.3265 46.2204 50.9733 46.1356 51.5992 45.987C51.7583 48.003 52.4912 50.0608 55.2388 50.8993C53.7848 53.4773 39.3048 58.8134 39.3048 59.2581V67.0979C39.3048 67.5439 39.6647 67.8947 40.1003 67.8947C40.5449 67.8947 67.8201 67.9899 67.8201 67.5439V61.115C67.8201 60.2348 67.704 59.3546 67.5123 58.5057C67.5436 58.4626 67.5762 58.4105 67.6075 58.3675ZM7.64814 50.4963H2.91712C2.18425 50.4963 1.59092 49.9017 1.59092 49.1701V47.7696H7.64814V50.4963ZM7.64814 46.1787H1.59092V43.4519H7.64814V46.1787ZM7.64814 41.861H1.59092V39.1343H7.64814V41.861ZM22.5428 25.3324H10.0345C8.72006 25.3324 7.64814 26.4043 7.64814 27.7188V37.5434H1.59092V14.4581H50.4856V17.0258H43.5586C42.5401 17.0258 41.7016 17.8538 41.7016 18.8827V20.9092C41.7016 21.2586 41.819 21.5768 41.9989 21.8637C41.2139 22.3945 40.5449 23.0308 40.0155 23.7937C38.6671 25.768 38.4872 28.1113 38.6671 30.0426C37.2144 30.5407 36.196 31.91 36.196 33.5009C36.196 35.5169 37.8404 37.1509 39.8564 37.1509C39.8668 37.1509 39.8668 37.1509 39.8668 37.1509C39.8981 37.2878 39.9307 37.4156 39.9725 37.5434H24.9292V27.7188C24.9292 26.4043 23.8586 25.3324 22.5428 25.3324ZM24.9292 41.861V39.1343H30.9877V41.861H24.9292ZM27.1578 43.4519V46.1787H24.9292V43.4519H27.1578ZM28.7487 43.4519H34.8059V46.1787H28.7487V43.4519ZM32.5786 41.861V39.1343H38.6358V41.861H32.5786ZM36.3968 43.4519H42.4553V46.1787H36.3968V43.4519ZM40.2268 41.861V39.1343H40.5032C40.8957 40.1214 41.3939 41.033 41.9663 41.861H40.2268ZM30.9877 50.4963H24.9292V47.7696H30.9877V50.4963ZM38.6358 50.4324C38.5824 50.4533 38.5406 50.4755 38.4976 50.4963H32.5786V47.7696H38.6358V50.4324ZM45.4885 47.9078C45.1064 48.8832 44.1519 49.5418 43.0917 49.5418C42.1046 49.5418 41.15 49.6787 40.2268 49.9121V47.7696H45.542C45.5211 47.8126 45.499 47.8648 45.4885 47.9078ZM45.9775 46.1787H44.0463V44.1209C44.6931 44.6503 45.3829 45.0755 46.1145 45.4145C46.0623 45.7014 46.0193 45.9453 45.9775 46.1787ZM49.6692 44.6295C47.5997 44.6295 45.7011 43.6854 44.2053 42.1257C44.1949 42.1049 44.1845 42.0944 44.1741 42.084C43.1439 40.9912 42.3275 39.6116 41.7759 38.0311C41.3091 36.684 41.0339 35.1883 41.0222 33.6287C41.0222 33.6078 41.0118 33.5961 41.0222 33.5752C41.0222 33.5543 41.0222 33.5439 41.0339 33.5335C41.1187 31.3153 42.0198 29.7557 43.569 29.1415C45.2773 28.4621 47.4511 29.0776 49.1176 30.7116C49.4254 31.0193 49.9235 31.0193 50.2313 30.7116C51.8965 29.0776 54.0717 28.4621 55.7682 29.1415C57.3174 29.7557 58.2198 31.3153 58.315 33.5217C58.3045 39.6429 54.4316 44.6295 49.6692 44.6295Z" fill="white"/>
  </g>
  <path d="M13.6635 17.0254H6.00367C4.98522 17.0254 4.14673 17.8535 4.14673 18.8823V20.9088C4.14673 21.9272 4.98522 22.7644 6.00367 22.7644H13.6635C14.682 22.7644 15.5192 21.9272 15.5192 20.9088V18.8823C15.5192 17.8535 14.682 17.0254 13.6635 17.0254Z" fill="white"/>
  <path d="M25.4064 18.8823C25.4064 17.8535 24.5692 17.0254 23.5507 17.0254H19.9334C18.9149 17.0254 18.0764 17.8535 18.0764 18.8823V20.9088C18.0764 21.9272 18.9149 22.7644 19.9334 22.7644H23.5507C24.5692 22.7644 25.4064 21.9272 25.4064 20.9088V18.8823Z" fill="white"/>
  <path d="M29.8206 22.7644H37.2783C38.2968 22.7644 39.134 21.9272 39.134 20.9088V18.8823C39.134 17.8535 38.2968 17.0254 37.2783 17.0254H29.8206C28.7917 17.0254 27.9636 17.8535 27.9636 18.8823V20.9088C27.9636 21.9272 28.7917 22.7644 29.8206 22.7644Z" fill="white"/>
</svg>