<svg xmlns="http://www.w3.org/2000/svg" width="80" height="68" viewBox="0 0 80 68" fill="none">
  <mask id="mask0_120_1615" style="mask-type:luminance" maskUnits="userSpaceOnUse" x="0" y="33" width="16" height="21">
    <path d="M0 33.5889H15.0222V53.8779H0V33.5889Z" fill="white"/>
  </mask>
  <g mask="url(#mask0_120_1615)">
    <path d="M1.78063 53.1479H14.6522L14.0187 48.7063L11.0284 45.6694C10.873 45.5126 10.7733 45.3102 10.7429 45.0927L9.75461 38.1335L5.54124 33.7139H0L0.902141 53.6403C1.08291 53.3452 1.40896 53.1479 1.78063 53.1479Z" fill="white"/>
  </g>
  <path d="M17.69 49.2588H16.1797L16.7389 53.149H21.9118L20.584 51.9248L17.69 49.2588Z" fill="white"/>
  <path d="M25.375 37.4375H54.4952V41.208H25.375V37.4375Z" fill="white"/>
  <path d="M6.72885 31.974L11.4761 36.9535C11.6247 37.1086 11.7193 37.3076 11.7498 37.5184L12.7381 44.4674L15.4208 47.1975H18.0935C18.3536 47.1975 18.602 47.2936 18.7929 47.4706L20.8083 49.3272L23.3103 42.0611V36.4054C23.3103 35.8389 23.7716 35.3768 24.3426 35.3768H29.4784V28.0787C29.4784 23.5697 31.8503 19.3878 35.6666 17.1636C35.7832 17.0962 35.8998 17.0304 36.0214 16.963C36.9303 16.4672 37.8967 16.0709 38.9035 15.7775V12.8468C38.9035 12.2802 39.3647 11.8182 39.9341 11.8182C40.5051 11.8182 40.9663 12.2785 40.9663 12.8468V15.7775C41.9749 16.0692 42.9378 16.4672 43.8501 16.963C43.9684 17.0287 44.0866 17.0945 44.2049 17.1636C48.0212 19.3878 50.3932 23.5697 50.3932 28.0787V35.3768H55.5273C56.0983 35.3768 56.5595 35.8372 56.5595 36.4054V42.0611L59.102 49.4419L61.8355 46.9766C62.0247 46.8062 62.2731 46.7101 62.5282 46.7101H64.1618C64.226 46.4926 64.3645 46.3004 64.5537 46.1688L67.8008 43.9008L68.2535 36.9855C68.2704 36.7343 68.3786 36.4982 68.561 36.3211L73.0041 31.9487C73.1984 31.7598 73.4569 31.6536 73.7272 31.6536H74.5145C72.3064 15.0693 59.4957 1.92327 43.666 0.189805C25.2278 -1.82864 7.73574 12.4927 4.9043 31.6536H5.98045C6.26258 31.6536 6.53457 31.7699 6.72885 31.974ZM39.7026 4.09685C40.2703 4.09685 40.7348 4.5572 40.7348 5.12547C40.7348 5.69205 40.272 6.15408 39.7026 6.15408C38.9745 6.15408 38.3815 6.74595 38.3815 7.47273C38.3815 8.1995 38.9745 8.79138 39.7026 8.79138C40.4308 8.79138 41.0237 8.1995 41.0237 7.47273C41.0237 6.90446 41.4849 6.44411 42.056 6.44411C42.6236 6.44411 43.0882 6.90277 43.0882 7.47273C43.0882 9.33435 41.5677 10.8503 39.7026 10.8503C37.8358 10.8503 36.3171 9.33435 36.3171 7.47273C36.3154 5.61111 37.8341 4.09685 39.7026 4.09685Z" fill="white"/>
  <path d="M48.3272 28.0804C48.3272 24.2998 46.3489 20.7992 43.1626 18.9426C43.063 18.8853 42.9616 18.8279 42.8586 18.7723C41.9429 18.2748 40.9614 17.8921 39.9342 17.6357C38.907 17.8904 37.9238 18.2748 37.0098 18.7723C36.9068 18.8279 36.8037 18.8853 36.7041 18.9426C33.5178 20.7992 31.5396 24.3015 31.5396 28.0804V28.5576H48.3238V28.0804H48.3272Z" fill="white"/>
  <path d="M31.543 30.6152H48.3272V32.2003H31.543V30.6152Z" fill="white"/>
  <path d="M31.543 34.2578H48.3272V35.3792H31.543V34.2578Z" fill="white"/>
  <path d="M44.0314 48.6971C44.1193 48.7207 44.2122 48.7359 44.3068 48.7359C44.616 48.7359 44.893 48.5942 45.0772 48.3733C45.0789 48.3716 45.0789 48.3716 45.0789 48.3716C45.2225 48.2013 45.3052 47.9821 45.3052 47.741C45.3052 47.193 44.8559 46.7461 44.3068 46.7461C43.7578 46.7461 43.3101 47.193 43.3101 47.741C43.3101 48.1946 43.6142 48.579 44.0314 48.6971Z" fill="white"/>
  <path d="M40.7367 53.3447C40.3532 53.3447 40.0086 53.1677 39.789 52.8557C39.7433 52.7899 39.6555 52.6651 39.6048 52.4561H38.7686V54.0782C38.7686 54.2131 38.8784 54.3244 39.0152 54.3244H41.2435C41.2486 54.0276 41.2587 53.6938 41.2807 53.3464H40.7367V53.3447Z" fill="white"/>
  <path d="M59.317 52.0257L58.207 53.0273H63.3851L63.8378 49.2417V48.7695H62.9238L59.3254 52.0173C59.3237 52.0206 59.3203 52.0223 59.317 52.0257Z" fill="white"/>
  <mask id="mask1_120_1615" style="mask-type:luminance" maskUnits="userSpaceOnUse" x="40" y="49" width="8" height="19">
    <path d="M40.9722 49.9902H47.892V67.9809H40.9722V49.9902Z" fill="white"/>
  </mask>
  <g mask="url(#mask1_120_1615)">
    <path d="M46.2498 50.0986C45.7193 50.532 45.0453 50.7934 44.307 50.7934C44.1566 50.7934 44.0113 50.7833 43.8677 50.7596C43.7039 51.0227 43.5586 51.5977 43.4555 52.3346V52.365L43.3609 54.321H44.3881C44.9574 54.321 45.4203 54.7814 45.4203 55.3496C45.4203 55.9196 44.9591 56.3799 44.3881 56.3799H41.2407V67.9628H47.5371V51.7107C47.5388 50.9266 46.9847 50.2656 46.2498 50.0986Z" fill="white"/>
  </g>
  <mask id="mask2_120_1615" style="mask-type:luminance" maskUnits="userSpaceOnUse" x="0" y="33" width="80" height="35">
    <path d="M0.75 33.5889H79.9999V67.9834H0.75V33.5889Z" fill="white"/>
  </mask>
  <g mask="url(#mask2_120_1615)">
    <path d="M74.148 33.7129L70.286 37.5137L69.8265 44.5302C69.8062 44.8405 69.644 45.1271 69.3873 45.3042L66.1149 47.5907L65.9003 49.3681V54.0542C65.9003 54.6241 65.4408 55.0845 64.8698 55.0845H64.7718L59.8472 59.8262H77.1957C77.7667 59.8262 78.2279 60.2865 78.2279 60.8548C78.2279 61.4231 77.7684 61.8834 77.1957 61.8834H52.5422C51.9746 61.8834 51.5117 61.4231 51.5117 60.8548C51.5117 60.2865 51.9729 59.8262 52.5422 59.8262H56.8738L61.8018 55.0845H55.5274C55.1017 55.0845 54.7198 54.8214 54.5644 54.4251C54.4107 54.0289 54.5188 53.5769 54.8364 53.292L57.4381 50.9447L54.7908 43.2655H25.0793L22.4624 50.8553L24.9492 53.1486H28.3821C28.6676 53.1486 28.9412 53.2684 29.1372 53.4775L35.04 59.8279H36.5976C37.1686 59.8279 37.6298 60.2882 37.6298 60.8565C37.6298 61.4248 37.1703 61.8851 36.5976 61.8851H34.5889C34.3034 61.8851 34.0297 61.7671 33.8321 61.5563L27.931 55.2075H1.78071C1.44283 55.2075 1.14211 55.044 0.95459 54.791L1.18435 59.8903C1.29416 59.8481 1.41411 59.8279 1.53912 59.8279H21.2595C21.8272 59.8279 22.2918 60.2882 22.2918 60.8565C22.2918 61.4248 21.8289 61.8851 21.2595 61.8851H1.53743C1.44621 61.8851 1.35836 61.8733 1.2722 61.8497L1.54926 67.964H7.62773V65.5291H5.37238C4.80474 65.5291 4.34184 65.0688 4.34184 64.4988C4.34184 63.9322 4.80305 63.4702 5.37238 63.4702H27.289V61.8851H27.0407C26.473 61.8851 26.0101 61.4248 26.0101 60.8565C26.0101 60.2882 26.4713 59.8279 27.0407 59.8279H28.3212C28.8889 59.8279 29.3535 60.2882 29.3535 60.8565V63.4702H36.9034C37.4727 63.4702 37.9339 63.9305 37.9339 64.4988C37.9339 65.0671 37.4744 65.5291 36.9034 65.5291H9.69049V67.964H39.1773V56.3812H39.0118C37.7397 56.3812 36.7024 55.3475 36.7024 54.0778V51.427C36.7024 50.8587 37.1653 50.3967 37.7346 50.3967H40.7367C41.0728 50.3967 41.3888 50.5619 41.583 50.8351C41.6016 50.8638 41.6219 50.8924 41.6371 50.9228C41.7469 50.513 41.8855 50.1319 42.0595 49.8082C41.556 49.2652 41.2485 48.5401 41.2485 47.7425C41.2485 46.0596 42.622 44.6887 44.3081 44.6887C45.9958 44.6887 47.3693 46.0596 47.3693 47.7425C47.3693 47.928 47.3524 48.1118 47.3203 48.2889C48.66 48.8504 49.601 50.1741 49.601 51.7119V67.964H80.0001V33.7129H74.148ZM54.1286 65.5915H52.1199C51.5488 65.5915 51.0876 65.1311 51.0876 64.5629C51.0876 63.9946 51.5471 63.5326 52.1199 63.5326H54.1286C54.6962 63.5326 55.1591 63.9929 55.1591 64.5629C55.1591 65.1295 54.6962 65.5915 54.1286 65.5915ZM76.8308 65.954H62.4066C61.8356 65.954 61.3744 65.4937 61.3744 64.9254C61.3744 64.3572 61.8339 63.8951 62.4066 63.8951H76.8308C77.4001 63.8951 77.863 64.3555 77.863 64.9254C77.863 65.4937 77.4001 65.954 76.8308 65.954Z" fill="white"/>
  </g>
</svg>