<svg xmlns="http://www.w3.org/2000/svg" width="80" height="62" viewBox="0 0 80 62" fill="none">
  <mask id="mask0_120_1681" style="mask-type:luminance" maskUnits="userSpaceOnUse" x="0" y="0" width="80" height="62">
    <path d="M0 0H80V62H0V0Z" fill="white"/>
  </mask>
  <g mask="url(#mask0_120_1681)">
    <path d="M74.8635 55.4038H47.2716C47.6135 55.1034 47.6041 54.8842 47.6041 54.8842V53.1941C45.6375 47.649 33.4932 45.8643 33.4932 45.8643L33.119 35.7673C33.119 35.7673 38.0308 35.9756 40.7364 34.6401C43.442 33.3032 50.2693 23.78 50.2693 23.78L46.188 20.9438C47.5099 19.7774 49.8642 17.4595 50.2491 15.4461C50.7876 12.6221 49.9718 12.6194 49.9718 12.6194C49.7457 12.5585 49.3971 13.0741 49.4657 13.1701C49.4415 13.0538 48.9596 12.9428 48.7038 13.5571C48.7038 13.5571 46.7453 17.3608 45.3481 16.6598L45.97 15.3446C45.97 15.3446 46.6107 14.9238 46.5717 14.4313C46.534 13.9387 45.6604 14.6464 45.6604 14.6464L44.9779 15.1227L44.0585 17.1808C44.0585 17.1808 43.6413 18.2917 43.8903 19.1063C43.928 19.2524 43.9226 19.3972 43.8714 19.5393L43.3182 19.2064V19.2281L37.0334 27.6648L32.4446 24.3226C32.4446 24.3226 30.412 21.0643 29.3728 20.8545C28.3337 20.6448 28.58 19.5623 28.58 19.5623L29.9544 15.5936C31.1106 15.392 32.1915 14.9468 32.3638 13.8819C32.3988 13.6695 32.2346 13.1634 32.2709 12.6073C32.3463 11.4503 31.641 12.0457 31.5885 11.9902C31.4404 11.8387 32.1013 11.5342 32.069 11.3597C32.0044 10.9767 31.9519 10.7075 31.9519 10.7075C32.5334 10.7075 32.3275 10.039 32.3275 10.039C32.3275 10.039 30.2034 8.95382 30.3272 7.90921C30.4511 6.86461 29.1225 5.52908 29.1225 5.52908L24.5983 0.00292969C24.5983 0.00292969 24.3008 0.793152 20.9289 2.92296C17.5583 5.05278 16.7157 10.8347 16.7157 10.8347L20.2559 13.1729L20.8374 13.8413C21.0043 15.2404 21.1079 14.8426 21.8792 15.8047C22.6505 16.7654 22.1081 18.8722 20.6287 20.1468C19.1494 21.4215 18.7577 25.1886 18.7577 25.1886L17.1639 46.6139C14.955 50.0616 16.7467 54.3686 17.2366 55.4024H5.13809L0.00146484 62.0124H80.0001L74.8635 55.4038Z" fill="white"/>
  </g>
</svg>