<svg xmlns="http://www.w3.org/2000/svg" width="88" height="94" viewBox="0 0 88 94" fill="none">
  <mask id="mask0_230_997" style="mask-type:luminance" maskUnits="userSpaceOnUse" x="0" y="0" width="88" height="94">
    <path d="M0.5 0H87.5V94H0.5V0Z" fill="white"/>
  </mask>
  <g mask="url(#mask0_230_997)">
    <path d="M54.6507 34.5108V28.2398C54.6507 17.241 45.7069 8.29408 34.7144 8.29408C23.7194 8.29408 14.7781 17.241 14.7781 28.2398V34.5108C13.8736 35.4564 13.4538 36.8339 13.7872 38.1803C14.3054 40.2754 16.4622 41.5737 18.5542 41.0554C19.0532 40.9306 19.3627 40.4218 19.2379 39.9202L17.7961 34.098C17.6713 33.5964 17.1603 33.2892 16.6589 33.4116C16.6445 33.4164 16.6277 33.4212 16.6109 33.426V28.2398C16.6109 18.2537 24.7318 10.13 34.7144 10.13C44.6945 10.13 52.8154 18.2537 52.8154 28.2398V33.426C52.7986 33.4212 52.7842 33.4164 52.7674 33.4116C52.2684 33.2892 51.7574 33.5964 51.6326 34.098L50.1884 39.9202C50.1788 39.9562 50.174 39.9946 50.1692 40.0306C49.4135 41.0338 48.3219 41.7873 47.0072 42.0969L46.8537 42.1353C46.7601 41.317 46.0284 40.717 45.2055 40.7962L40.3018 41.2618C39.4693 41.3386 38.8576 42.0801 38.9367 42.9129L39.0471 44.0769C39.1262 44.9096 39.8652 45.5216 40.6976 45.4448L45.6013 44.9792C46.4338 44.9 47.048 44.1585 46.9688 43.3257L46.9424 43.0401L47.2159 42.9753C48.5786 42.6513 49.7374 41.9169 50.5938 40.9354C50.6778 40.9882 50.7714 41.0314 50.8745 41.0554C52.9641 41.5737 55.1209 40.2754 55.6415 38.1803C55.9749 36.8339 55.5527 35.4564 54.6507 34.5108ZM38.1786 80.8556L37.1686 62.633H32.6703L31.929 80.9444L23.4939 52.7982L24.6526 50.1703C24.7774 50.3262 24.9117 50.4822 25.0557 50.6406C25.1109 50.703 25.1732 50.7654 25.2308 50.8278C25.3508 50.9526 25.4707 51.0798 25.5979 51.207C25.6507 51.2598 25.7058 51.3126 25.7586 51.3654C25.9002 51.5022 26.0441 51.6366 26.1904 51.7734C26.2432 51.819 26.2912 51.8646 26.344 51.9126C26.5407 52.0902 26.7446 52.2702 26.9533 52.4478C26.9725 52.4622 26.9917 52.479 27.0109 52.4934C27.2077 52.6614 27.4092 52.827 27.6107 52.9902C27.6587 53.0286 27.7067 53.0646 27.7522 53.103C27.9562 53.2637 28.1601 53.4245 28.364 53.5829C28.3808 53.5949 28.3976 53.6069 28.412 53.6213C28.8918 53.9885 29.374 54.3413 29.837 54.6725C30.9742 55.4813 32.0058 56.1581 32.6535 56.5684L30.2737 59.2803L32.6176 61.5963H37.4973L39.8436 58.9228L37.1446 56.2564C37.61 55.9469 38.1882 55.5485 38.824 55.0949C39.251 54.7925 39.6996 54.4613 40.1578 54.1157C40.3306 53.9837 40.5033 53.8517 40.676 53.7149C40.6784 53.7149 40.6784 53.7125 40.6808 53.7125C40.7168 53.6861 40.7504 53.6573 40.7864 53.6309C40.9064 53.5349 41.0287 53.4389 41.1511 53.3405C41.722 52.8822 42.2858 52.407 42.8136 51.927C42.8376 51.903 42.864 51.879 42.888 51.855C43.0991 51.6606 43.303 51.4662 43.4998 51.2718C43.5046 51.267 43.5118 51.2598 43.519 51.2526C43.7373 51.0366 43.9436 50.8206 44.1355 50.607C44.2123 50.523 44.2843 50.439 44.3562 50.355C44.4714 50.2183 44.5865 50.0839 44.6873 49.9519L44.6897 49.9159L45.8101 52.4094L38.1786 80.8556ZM67.5841 66.7657C67.0275 65.5897 66.3413 64.4786 65.5496 63.449C63.7743 61.1427 61.7231 59.5587 59.5568 58.2892C57.1289 56.8684 54.6123 55.8845 52.098 54.8957C50.3827 54.2213 48.6578 53.6117 46.9952 52.6758L47 52.6686L45.1383 48.5263L44.7737 48.4495L44.9032 46.1576C44.9248 46.124 44.9488 46.088 44.9704 46.052C45.0855 45.8624 45.1959 45.6704 45.2991 45.4808L44.1043 45.596C42.6049 48.0199 39.8868 50.451 34.9902 50.5542C34.9758 50.5542 34.9639 50.5542 34.9495 50.5542C34.8703 50.5542 34.7959 50.5518 34.7144 50.5518C34.6352 50.5518 34.5608 50.5542 34.4816 50.5566C34.4696 50.5566 34.4552 50.5566 34.4409 50.5494C24.5807 50.4054 23.4891 40.7506 23.4891 40.7506C23.1268 40.9762 22.8125 41.0722 22.5391 41.0722C21.078 41.0746 20.7877 38.3939 20.7877 38.3939C20.2503 37.2203 19.5114 36.0587 19.3603 34.7508C19.2955 34.2036 19.2955 33.4284 19.8161 33.1356C19.8161 33.1356 20.02 33.1164 20.2815 33.2172C20.7709 33.3684 21.5027 33.81 21.7306 35.0964C21.7306 35.0964 22.3591 35.0604 22.3567 35.0532L22.635 35.0364C22.5079 34.1484 22.4335 33.2436 22.3999 32.3341C22.5606 30.1885 22.8629 28.0598 23.5131 26.0007C23.8681 24.8751 24.3863 23.5288 25.3268 22.7464C25.8546 22.3072 26.3968 22.3216 27.0277 22.4512C28.3472 22.72 29.6979 22.8568 31.0462 22.852C34.5272 22.8424 37.9987 21.916 41.451 22.3216C42.0339 22.3912 42.6265 22.504 43.1351 22.7824C43.7852 23.14 44.2459 23.7472 44.5386 24.3999C45.1983 25.8759 45.0496 27.551 45.3734 29.123C45.527 29.8597 45.7837 30.5749 46.0356 31.2853C46.2059 31.7677 46.3714 32.2549 46.5274 32.742C46.5466 33.4572 46.5418 34.1724 46.5106 34.8876L47.2879 34.8828C47.3191 34.782 47.3527 34.6788 47.3911 34.5804C47.5782 34.0956 47.974 33.2124 48.509 32.8716H48.5642C48.5642 32.8596 48.5642 32.8476 48.5642 32.8356C48.6866 32.7684 48.8137 32.7276 48.9481 32.7276C49.8597 32.7252 50.7066 33.5916 48.5762 38.3171C48.5762 38.3171 48.3291 40.7098 47.0696 40.9786C47.1416 41.0794 47.2039 41.185 47.2567 41.3002C47.9308 41.0818 48.5474 40.7194 49.0704 40.2466C49.104 40.1674 49.1376 40.0858 49.1688 40.0018C49.3847 39.421 49.4854 38.8594 49.5238 38.5834C49.9916 37.5395 50.3347 36.6347 50.5602 35.8547L50.7594 35.058C50.9825 33.9468 50.9033 33.1404 50.5314 32.5669C50.1908 32.0389 49.627 31.7485 48.9457 31.7509C48.9337 31.7509 48.9193 31.7509 48.9073 31.7509C48.9121 31.7149 48.9145 31.6765 48.9193 31.6405C49.1664 29.135 49.4135 26.6031 49.0896 24.1071C48.7681 21.6112 47.8157 19.1153 45.9924 17.3826C45.4886 16.9026 44.9248 16.4898 44.4138 16.0194C43.79 15.4434 43.2431 14.7859 42.6337 14.1931C40.2586 11.8844 36.8831 10.6436 33.5772 10.8668C30.8566 11.0492 28.2776 12.1651 25.9385 13.5643C19.9073 17.169 20.0608 24.8343 20.2599 30.9997C20.2647 31.1557 20.2719 31.3141 20.2887 31.4725C20.3247 31.7029 20.3487 31.8301 20.3487 31.8301C19.6842 31.8397 19.1348 32.1325 18.7989 32.6532C18.5422 33.0564 18.4294 33.57 18.4606 34.2204L19.1588 37.0379C19.3483 37.5395 19.5738 38.0795 19.8401 38.6674C19.8809 38.941 19.984 39.5026 20.2048 40.081C20.8573 41.7969 21.9489 42.0489 22.5415 42.0489C22.6086 42.0489 22.6758 42.0441 22.7454 42.0369C22.9781 42.9921 23.4339 44.4081 24.288 45.8624L24.4967 48.7999L24.1536 48.8767L22.4551 52.7262C20.6558 53.8565 18.7509 54.4997 16.8772 55.2749C14.4902 56.2612 12.1031 57.2452 9.80477 58.6372C7.98148 59.7363 6.24455 61.0731 4.68035 62.8826C3.67994 64.037 2.82827 65.3161 2.15173 66.6865C0.042942 70.9583 0.731476 76.1014 0.731476 80.7932C0.731476 82.6603 0.793852 84.7411 2.32206 86.1234C4.21973 87.8418 6.98586 88.8641 9.31296 89.8289C12.4414 91.1249 15.6249 91.9936 18.8373 92.6584C21.4523 93.1984 24.0769 93.5728 26.7086 93.8416C27.9969 93.9736 29.2852 94.0336 30.5736 94.1248C30.9166 94.1248 31.2573 94.1248 31.598 94.1248C31.8043 94.1584 32.0106 94.192 32.2145 94.2232C33.937 94.2112 35.6596 94.1992 37.3821 94.1872C37.586 94.1512 37.7924 94.1152 37.9963 94.0816C38.3394 94.0744 38.68 94.0696 39.0207 94.0672C40.9927 93.868 42.9672 93.7408 44.9344 93.4552C47.0408 93.1504 49.1424 92.7352 51.2392 92.3008C54.0317 91.7248 56.7906 90.8777 59.5088 89.7617C61.8023 88.8185 64.3333 87.8826 66.291 86.3202C68.75 84.3571 68.8028 81.9788 68.8028 79.0749C68.8028 76.5646 68.8028 74.0566 68.8028 71.5487C68.8028 69.7128 68.359 68.4048 67.5841 66.7657ZM86.9134 18.8441C86.9134 19.1633 86.6543 19.4225 86.3352 19.4225C86.3328 19.4225 86.3304 19.4225 86.328 19.4225C84.7686 19.4225 83.0917 19.4129 81.1964 19.3913C80.599 19.3841 79.9513 19.3769 79.1596 19.3625H61.428C60.7659 19.3625 59.9454 19.6841 59.3864 20.1641C59.1129 20.3969 58.8778 20.6609 58.6499 20.9152C58.3524 21.2464 58.0693 21.5608 57.7263 21.7936C57.6759 21.8296 57.6399 21.8488 57.6159 21.8608C57.6087 21.8272 57.6015 21.772 57.6015 21.688L57.5943 20.7233C57.5559 15.7506 57.5607 10.694 57.5655 5.80296C57.5655 4.30541 57.5655 2.80786 57.5655 1.30791C57.5655 0.988725 57.827 0.729534 58.1437 0.729534H86.3352C86.6543 0.729534 86.9134 0.988725 86.9134 1.30791V18.8441ZM86.3352 -0.00244141H58.1437C57.4216 -0.00244141 56.8338 0.585539 56.8338 1.30791C56.8338 2.80546 56.8338 4.30541 56.8338 5.80296C56.829 10.694 56.8242 15.753 56.8626 20.7281L56.8698 21.6928C56.8698 21.856 56.8746 22.3528 57.2896 22.5472C57.3832 22.5928 57.4792 22.6096 57.5679 22.6096C57.8294 22.6096 58.0501 22.4584 58.1389 22.3984C58.5539 22.1152 58.8802 21.7528 59.1945 21.4048C59.4152 21.1552 59.6263 20.9224 59.8614 20.7209C60.2933 20.3513 60.9362 20.0945 61.428 20.0945H79.15C79.9417 20.1065 80.5894 20.1161 81.1892 20.1233C83.0869 20.1449 84.7662 20.1545 86.328 20.1545C86.3304 20.1545 86.3328 20.1545 86.3352 20.1545C87.0573 20.1545 87.6451 19.5665 87.6451 18.8441V1.30791C87.6451 0.585539 87.0573 -0.00244141 86.3352 -0.00244141ZM77.3075 6.72213H81.1244C81.2012 6.72213 81.2684 6.72693 81.3307 6.73173C81.3955 6.73893 81.4411 6.76773 81.4723 6.81813C81.4987 6.84933 81.5107 6.89012 81.5155 6.94292C81.5179 6.99812 81.5203 7.05332 81.5203 7.10852V7.4949C81.5203 7.5573 81.5203 7.6173 81.5203 7.6725C81.5203 7.7301 81.5107 7.78289 81.4915 7.83329C81.4723 7.86929 81.4507 7.90529 81.4219 7.94129C81.3931 7.97489 81.3643 8.00849 81.3307 8.03969C81.3068 8.06608 81.2852 8.08288 81.266 8.09488C81.254 8.12128 81.2348 8.14288 81.2132 8.16208C81.1916 8.18128 81.1724 8.20048 81.1532 8.21728C81.1148 8.26768 81.074 8.31808 81.0309 8.36847C80.9877 8.41887 80.9469 8.46927 80.9085 8.51967C80.5942 8.95885 80.3255 9.43404 80.1 9.94762C80.0257 10.1252 79.9585 10.3052 79.8985 10.49C79.8385 10.6748 79.7761 10.862 79.7138 11.0492C79.6826 11.138 79.6586 11.222 79.6442 11.3036C79.6298 11.3852 79.6106 11.4668 79.5938 11.5484C79.5602 11.6492 79.5386 11.7476 79.5266 11.8484C79.5146 11.9492 79.4955 12.0523 79.4691 12.1603C79.4643 12.1891 79.4595 12.2203 79.4595 12.2491C79.4595 12.2755 79.4547 12.3067 79.4427 12.3379C79.4355 12.4075 79.4307 12.4699 79.4235 12.5299C79.4163 12.5899 79.4067 12.6547 79.3947 12.7243C79.3875 12.7555 79.3875 12.7819 79.3899 12.8083C79.3923 12.8323 79.3923 12.8611 79.3851 12.8923V13.0051C79.3659 13.0747 79.3491 13.1299 79.3347 13.1755C79.3179 13.2187 79.2747 13.2547 79.2076 13.2787C79.1692 13.2907 79.126 13.2955 79.0756 13.2931C79.0252 13.2907 78.9749 13.2883 78.9245 13.2883H78.3415C78.2743 13.2883 78.2095 13.2835 78.1496 13.2787C78.0896 13.2715 78.044 13.2427 78.0128 13.1947C77.9936 13.1635 77.984 13.1131 77.9792 13.0435C77.9768 12.9739 77.9816 12.9139 77.9936 12.8659C78.0056 12.8275 78.0128 12.7867 78.0128 12.7411C78.0128 12.6979 78.02 12.6547 78.032 12.6115C78.056 12.5155 78.0752 12.4219 78.0824 12.3235C78.092 12.2275 78.1136 12.1315 78.1448 12.0379C78.188 11.8796 78.2287 11.7236 78.2671 11.5676C78.3055 11.4092 78.3487 11.2604 78.3991 11.1164C78.4111 11.0828 78.4231 11.0516 78.4303 11.0156C78.4399 10.982 78.4519 10.9484 78.4639 10.9172C78.5142 10.7924 78.5646 10.67 78.615 10.55C78.6654 10.4324 78.7158 10.31 78.7637 10.1852C78.8525 9.97642 78.9509 9.77723 79.0612 9.58283C79.1716 9.38844 79.2843 9.19645 79.4043 9.00925C79.4787 8.89646 79.5554 8.78366 79.6298 8.67086C79.7066 8.55807 79.7833 8.44527 79.8649 8.33008C79.8769 8.30608 79.9057 8.26768 79.9489 8.21248C79.9945 8.15968 80.0089 8.11168 79.9969 8.06848C79.9849 8.02529 79.9633 7.99649 79.9321 7.98689C79.8985 7.97969 79.8625 7.96769 79.8193 7.95569H79.733C79.709 7.94369 79.6778 7.93889 79.6442 7.94129C79.6106 7.94369 79.577 7.94609 79.5458 7.94609H77.7393C77.653 7.94609 77.545 7.94849 77.4155 7.95089C77.2883 7.95329 77.1971 7.93889 77.1492 7.90769C77.1036 7.88369 77.0772 7.84769 77.0628 7.80449C77.0508 7.77329 77.046 7.7349 77.046 7.6917C77.046 7.6485 77.046 7.6029 77.046 7.5597V7.13732C77.046 7.07972 77.046 7.02452 77.046 6.96692C77.046 6.91172 77.058 6.86373 77.082 6.82533C77.106 6.78213 77.154 6.75093 77.2235 6.73173C77.2355 6.72693 77.2499 6.72453 77.2667 6.72693C77.2811 6.73173 77.2955 6.72933 77.3075 6.72213ZM75.9448 6.44134H76.2831C76.3143 6.44134 76.3479 6.43894 76.3815 6.43654C76.4174 6.43414 76.4486 6.43414 76.4798 6.44134H76.5182C76.5566 6.45334 76.5878 6.46534 76.6166 6.47974C76.6454 6.49174 76.6646 6.51334 76.6789 6.54454C76.6909 6.56853 76.6933 6.59733 76.6885 6.62373C76.6813 6.65253 76.6741 6.67893 76.6693 6.70533C76.655 6.74853 76.643 6.79173 76.6262 6.83253C76.6118 6.87092 76.5926 6.91412 76.5734 6.95732C76.5614 6.99572 76.5494 7.03172 76.5374 7.06532C76.5254 7.10132 76.5134 7.13732 76.499 7.17331C76.4438 7.31971 76.3887 7.4613 76.3407 7.6029C76.2903 7.7445 76.2327 7.88609 76.1703 8.03009C76.12 8.16208 76.072 8.29408 76.0288 8.42607C75.9856 8.55807 75.9352 8.68766 75.8801 8.81966C75.8657 8.84606 75.8585 8.87006 75.8561 8.89166C75.8513 8.91326 75.8441 8.93725 75.8321 8.96125C75.7817 9.08125 75.7385 9.19885 75.7001 9.31404C75.6617 9.42924 75.6186 9.54683 75.5682 9.66683C75.5178 9.77963 75.4746 9.89722 75.4362 10.0196C75.4002 10.142 75.3547 10.262 75.3043 10.382C75.1795 10.682 75.0644 10.9868 74.9588 11.294C74.8509 11.6012 74.7357 11.906 74.6085 12.2059C74.5534 12.3451 74.5006 12.4819 74.455 12.6187C74.407 12.7579 74.359 12.8947 74.3087 13.0339C74.2775 13.1035 74.2511 13.1731 74.2295 13.2403C74.2079 13.3099 74.1647 13.3627 74.1023 13.4011C74.052 13.4323 73.98 13.4467 73.8864 13.4467C73.7929 13.4467 73.7017 13.4467 73.6129 13.4467C73.5577 13.4467 73.4978 13.4467 73.4402 13.4467C73.3802 13.4467 73.3274 13.4371 73.2843 13.4203C73.2459 13.4011 73.2219 13.3747 73.2099 13.3387C73.1955 13.3051 73.1931 13.2667 73.2003 13.2259C73.2051 13.1851 73.2171 13.1443 73.2315 13.1035C73.2483 13.0627 73.2627 13.0267 73.2747 12.9955C73.3442 12.8323 73.4066 12.6643 73.4618 12.4939C73.5194 12.3211 73.5817 12.1531 73.6513 11.99C73.6705 11.9516 73.6825 11.9132 73.6921 11.8724C73.7017 11.8316 73.7161 11.7932 73.7353 11.7548C73.7785 11.6492 73.8192 11.5412 73.8528 11.4308C73.8864 11.3204 73.9296 11.21 73.98 11.0948C74.0112 11.0156 74.0424 10.934 74.0687 10.8524C74.0975 10.7708 74.1263 10.6892 74.1575 10.6076C74.2847 10.3004 74.3998 9.99082 74.5054 9.67643C74.6133 9.36204 74.7285 9.05485 74.8556 8.75486C74.8724 8.71166 74.8868 8.67086 74.8964 8.63247C74.906 8.59407 74.9204 8.55807 74.9396 8.51967C74.9756 8.42607 75.0116 8.32767 75.0476 8.22688C75.0812 8.12848 75.1171 8.03009 75.1555 7.93649C75.1747 7.89329 75.1915 7.84769 75.2059 7.80449C75.2227 7.76129 75.2395 7.7181 75.2587 7.6725C75.3091 7.5477 75.3547 7.42531 75.3954 7.30051C75.4362 7.17811 75.4818 7.05572 75.5322 6.93092C75.561 6.86133 75.5922 6.78213 75.6209 6.69573C75.6473 6.60693 75.6905 6.54214 75.7481 6.49894C75.7649 6.47974 75.8081 6.46294 75.8681 6.45094C75.8825 6.44374 75.8944 6.44134 75.9064 6.44614C75.9208 6.44854 75.9328 6.44614 75.9448 6.44134ZM70.9044 10.2404C70.9116 10.2092 70.914 10.1708 70.9092 10.1276C70.9068 10.0844 70.9044 10.046 70.9044 10.0148V9.22524C70.9044 9.19405 70.9068 9.16285 70.9092 9.12925C70.914 9.10045 70.9116 9.06925 70.9044 9.03565C70.8924 8.99965 70.8924 8.96125 70.902 8.91806C70.9092 8.87966 70.9092 8.83886 70.8972 8.80046C70.8828 8.75246 70.8756 8.70686 70.8732 8.66606C70.8708 8.62527 70.8372 8.60127 70.7748 8.59407C70.7628 8.60607 70.746 8.61567 70.7316 8.61807C70.7149 8.62286 70.7029 8.63006 70.6885 8.64207C70.6573 8.66606 70.6285 8.70206 70.5997 8.74526C70.5709 8.78846 70.5421 8.82686 70.5109 8.85806C70.4677 8.92766 70.4198 8.99005 70.3742 9.04525C70.3262 9.10285 70.2782 9.16525 70.2278 9.23484C70.2086 9.26604 70.187 9.29724 70.1631 9.32844C70.1391 9.35964 70.1127 9.39084 70.0863 9.42204L69.5801 10.0988C69.5561 10.13 69.5321 10.166 69.5105 10.202C69.4865 10.2404 69.4601 10.2788 69.4289 10.3148C69.4169 10.3412 69.4002 10.3628 69.3786 10.3868C69.357 10.4084 69.3378 10.4348 69.3258 10.466C69.3138 10.4972 69.3114 10.5308 69.3162 10.5644C69.3234 10.6004 69.3378 10.622 69.3642 10.6364C69.4002 10.6676 69.4553 10.682 69.5297 10.682C69.5993 10.682 69.6689 10.682 69.7312 10.682H70.2854C70.3286 10.682 70.3766 10.6844 70.427 10.6868C70.4773 10.6916 70.5205 10.6892 70.5589 10.682H70.6525C70.6957 10.67 70.734 10.658 70.77 10.6484C70.8036 10.6412 70.83 10.6196 70.8492 10.5884C70.8756 10.5572 70.89 10.5212 70.8972 10.4804C70.902 10.4396 70.9044 10.394 70.9044 10.3436V10.2404ZM72.8692 10.6916C72.97 10.7228 73.0228 10.7924 73.0252 10.898C73.03 11.006 73.03 11.1212 73.03 11.246V11.51C73.018 11.5724 73.0036 11.6252 72.9868 11.666C72.9724 11.7068 72.9364 11.7332 72.8788 11.7452C72.8236 11.7644 72.7613 11.7716 72.6917 11.7692C72.6221 11.7644 72.5573 11.7644 72.495 11.7644C72.4326 11.7644 72.3726 11.7716 72.315 11.7884C72.2598 11.8028 72.2191 11.8364 72.1927 11.8868C72.1807 11.9108 72.1687 11.9564 72.1567 12.0188V12.1219C72.1495 12.1531 72.1471 12.1915 72.1519 12.2395C72.1543 12.2851 72.1567 12.3307 72.1567 12.3763V12.8659C72.1567 12.9331 72.1567 12.9979 72.1567 13.0579C72.1567 13.1155 72.1399 13.1659 72.1087 13.2019C72.0895 13.2283 72.0655 13.2451 72.0391 13.2547C72.0103 13.2643 71.9816 13.2763 71.948 13.2883H71.9024C71.852 13.3003 71.792 13.3027 71.7225 13.2979C71.6553 13.2907 71.5953 13.2883 71.5449 13.2883C71.4826 13.2883 71.4178 13.2907 71.353 13.2931C71.2858 13.2955 71.2259 13.2931 71.1683 13.2883C71.1131 13.2811 71.0627 13.2691 71.0195 13.2499C70.9739 13.2307 70.9428 13.1995 70.9236 13.1563C70.9116 13.1251 70.9044 13.0867 70.9044 13.0387C70.9044 12.9907 70.9044 12.9427 70.9044 12.8923V12.4411C70.9044 12.4099 70.9068 12.3715 70.9092 12.3283C70.914 12.2851 70.9116 12.2467 70.9044 12.2155V12.0188C70.8924 11.9684 70.8804 11.9276 70.8684 11.8964C70.8564 11.8652 70.8324 11.8364 70.8012 11.81C70.746 11.774 70.6573 11.7572 70.5397 11.7596C70.4198 11.762 70.3166 11.7644 70.2278 11.7644H68.8364C68.786 11.7644 68.7284 11.7644 68.6636 11.7692C68.5989 11.7716 68.5317 11.7716 68.4645 11.7692C68.3997 11.7644 68.3398 11.7596 68.287 11.75C68.2342 11.7404 68.1982 11.7212 68.179 11.6876C68.1406 11.6444 68.1238 11.5748 68.1238 11.4812V11.3684C68.1095 11.3252 68.1047 11.2772 68.1095 11.2292C68.1119 11.1788 68.1143 11.1284 68.1143 11.078C68.1143 11.0012 68.1143 10.9172 68.1143 10.8188C68.1143 10.7228 68.1238 10.6412 68.1406 10.5788C68.155 10.5356 68.1718 10.4948 68.1934 10.4564C68.215 10.4204 68.239 10.3844 68.263 10.3532C68.3254 10.2644 68.3901 10.1852 68.4525 10.1084C68.5149 10.034 68.5773 9.95242 68.6396 9.86362C68.8028 9.62603 68.9731 9.39324 69.1531 9.16285C69.3306 8.93485 69.5033 8.70206 69.6737 8.46207C69.7048 8.41167 69.7408 8.36607 69.7816 8.32288C69.8224 8.27728 69.8584 8.23168 69.8896 8.18128C70.0023 8.02529 70.1175 7.86929 70.235 7.7205C70.3502 7.5693 70.4629 7.41571 70.5757 7.25971C70.6069 7.20931 70.6429 7.16132 70.6789 7.11812C70.7172 7.07492 70.7556 7.02692 70.7916 6.97652C70.8108 6.94532 70.83 6.91652 70.8492 6.88772C70.8684 6.85893 70.8924 6.83253 70.9236 6.80853C70.95 6.79653 70.9739 6.78213 70.9955 6.77013C71.0171 6.75813 71.0435 6.74853 71.0747 6.74133C71.0867 6.73653 71.1035 6.73413 71.1251 6.73653C71.1491 6.74133 71.1659 6.73653 71.1779 6.72213H71.7896C71.8568 6.72213 71.9216 6.72693 71.9768 6.73173C72.0343 6.73893 72.0775 6.76293 72.1087 6.80853C72.1351 6.84453 72.1471 6.89252 72.1519 6.94772C72.1543 7.00532 72.1567 7.06772 72.1567 7.13732V10.202C72.1567 10.2524 72.1567 10.3076 72.1567 10.3628C72.1567 10.4204 72.1615 10.4684 72.1735 10.514C72.1927 10.5956 72.2431 10.646 72.3246 10.6628C72.4014 10.6892 72.4902 10.694 72.5981 10.6772C72.7037 10.6628 72.7948 10.6676 72.8692 10.6916ZM65.3865 6.59253C65.8879 6.57813 66.3102 6.66933 66.6508 6.86373C66.9939 7.05812 67.2578 7.30771 67.4449 7.6077C67.4761 7.6581 67.5025 7.7085 67.5217 7.75889C67.5385 7.80929 67.5625 7.85729 67.5865 7.90769C67.6248 8.00849 67.6536 8.12368 67.6776 8.25088C67.6992 8.38047 67.7112 8.51247 67.7136 8.65166C67.716 8.78846 67.7088 8.92286 67.6896 9.05485C67.6728 9.18685 67.6392 9.30444 67.5961 9.40284C67.5337 9.56603 67.4521 9.72203 67.3513 9.87322C67.2266 10.0556 67.0826 10.2116 66.9195 10.3436C66.7564 10.4756 66.586 10.6052 66.4109 10.73C66.3605 10.7612 66.3102 10.7948 66.2574 10.8332C66.2022 10.8716 66.1518 10.9052 66.1014 10.9364C65.9647 11.0252 65.8303 11.1116 65.7008 11.2004C65.5736 11.2868 65.4465 11.378 65.3217 11.4716C65.2761 11.5028 65.2378 11.5364 65.2042 11.5676C65.1682 11.5988 65.1322 11.63 65.0962 11.6612C65.089 11.666 65.0842 11.6732 65.0818 11.6804C65.077 11.6852 65.0698 11.6924 65.0578 11.6972C65.0194 11.7308 64.9811 11.7644 64.9403 11.8052C64.8995 11.8484 64.8659 11.8916 64.8419 11.942C64.8347 11.9564 64.8275 11.9684 64.8179 11.9852C64.8083 11.9995 64.8083 12.0236 64.8131 12.0547C64.8251 12.0859 64.8467 12.1075 64.8779 12.1219C64.9115 12.1339 64.9427 12.1435 64.9739 12.1507H65.0194C65.0506 12.1627 65.0866 12.1675 65.1274 12.1627C65.1682 12.1603 65.2042 12.1603 65.2354 12.1603H67.0874C67.1762 12.1603 67.2818 12.1579 67.4089 12.1555C67.5337 12.1507 67.62 12.1675 67.6728 12.2059C67.704 12.2323 67.7256 12.2683 67.7376 12.3187C67.7496 12.3691 67.7568 12.4267 67.7592 12.4939C67.764 12.5587 67.764 12.6235 67.7592 12.6907C67.7568 12.7555 67.7568 12.8179 67.7568 12.8731C67.7568 12.9115 67.7568 12.9523 67.7592 12.9955C67.764 13.0387 67.7592 13.0771 67.7472 13.1083C67.74 13.1731 67.7088 13.2187 67.6512 13.2499C67.6152 13.2763 67.5673 13.2883 67.5073 13.2883C67.4473 13.2883 67.3897 13.2883 67.3322 13.2883H63.4313C63.3761 13.2883 63.3137 13.2907 63.2489 13.2931C63.1818 13.2955 63.1266 13.2883 63.0834 13.2691C63.021 13.2379 62.9826 13.1875 62.9658 13.1179C62.9514 13.0483 62.9514 12.9739 62.9706 12.8923C62.9706 12.8731 62.973 12.8539 62.9754 12.8323C62.9778 12.8083 62.9802 12.7891 62.9802 12.7699C62.9922 12.7195 63.0042 12.6667 63.0162 12.6115C63.0306 12.5539 63.0426 12.5011 63.0546 12.4507C63.1506 12.1747 63.2681 11.9348 63.4121 11.726C63.5704 11.5076 63.7527 11.3108 63.9687 11.138C64.1798 10.9652 64.3981 10.7996 64.6164 10.6364C64.7915 10.5164 64.9643 10.3988 65.137 10.2836C65.3097 10.166 65.4825 10.046 65.66 9.92122C65.7032 9.89002 65.7416 9.85882 65.7776 9.82762C65.8111 9.79643 65.8471 9.76523 65.8855 9.73163C65.9719 9.66443 66.0534 9.58043 66.1302 9.48444C66.2046 9.38604 66.2646 9.28524 66.3077 9.17725C66.3197 9.14605 66.3293 9.11725 66.3365 9.08845C66.3437 9.05965 66.3533 9.03085 66.3653 8.99965C66.3773 8.94925 66.3869 8.87966 66.3917 8.79326C66.3989 8.70446 66.3965 8.63006 66.3821 8.56767C66.3773 8.53647 66.3701 8.50047 66.3653 8.46207C66.3581 8.42607 66.3485 8.39007 66.3365 8.35887C66.2502 8.13328 66.1134 7.96769 65.9335 7.86209C65.8951 7.83569 65.8543 7.81649 65.8111 7.79969C65.7656 7.78529 65.72 7.77089 65.6696 7.75889C65.6384 7.7445 65.6048 7.7397 65.5712 7.7445C65.5352 7.74689 65.4993 7.7421 65.4609 7.7301C65.4177 7.7181 65.3673 7.7157 65.3121 7.7253C65.2546 7.7349 65.209 7.7445 65.1706 7.75889C64.9259 7.83329 64.7436 7.96769 64.626 8.16208C64.5684 8.25088 64.5252 8.34208 64.494 8.44047C64.4629 8.53647 64.4317 8.64206 64.4005 8.75486C64.3813 8.83646 64.3693 8.91806 64.3669 9.00445C64.3645 9.08845 64.3285 9.15325 64.2589 9.19645C64.2278 9.21564 64.1846 9.22525 64.1318 9.23004C64.079 9.23244 64.0238 9.23484 63.9687 9.23484H63.4888C63.4193 9.23484 63.3569 9.23244 63.3041 9.23004C63.2513 9.22525 63.2057 9.20845 63.1674 9.17725C63.1362 9.16045 63.1146 9.12445 63.1026 9.07405C63.0906 9.02365 63.0906 8.97805 63.1026 8.93246V8.84846C63.1074 8.81006 63.1122 8.77166 63.117 8.73086C63.1194 8.69006 63.1242 8.65166 63.129 8.61327C63.1506 8.53167 63.165 8.45247 63.177 8.37327C63.189 8.29408 63.2129 8.22208 63.2441 8.15248C63.2633 8.09488 63.2801 8.04208 63.2993 7.99169C63.3185 7.94369 63.3377 7.89329 63.3569 7.84289C63.3761 7.80449 63.3977 7.76609 63.4217 7.7253C63.4457 7.6845 63.472 7.6461 63.4984 7.6077C63.6232 7.40131 63.7719 7.22851 63.9423 7.09412C64.115 6.95972 64.3213 6.84213 64.5588 6.74133C64.6476 6.71013 64.734 6.68853 64.8227 6.67173C64.9115 6.65493 65.0027 6.63573 65.0962 6.60933C65.1274 6.60933 65.1586 6.60933 65.1898 6.60453C65.221 6.60213 65.2522 6.59733 65.2833 6.59253C65.2953 6.59253 65.3145 6.59253 65.3361 6.59733C65.3577 6.59973 65.3745 6.59733 65.3865 6.59253Z" fill="#D1A61B"/>
  </g>
</svg>