<svg xmlns="http://www.w3.org/2000/svg" width="92" height="94" viewBox="0 0 92 94" fill="none">
  <path d="M19.4795 33.7447H23.9321V31.1363C22.6824 31.0767 21.4174 30.9201 20.1502 30.6597C19.8181 31.6439 19.5778 32.6722 19.4795 33.7447Z" fill="#D1A61B"/>
  <path d="M20.1502 38.8933C21.4174 38.633 22.6824 38.4719 23.9321 38.4189V35.8105H19.4795C19.5778 36.8808 19.8181 37.9136 20.1502 38.8933Z" fill="#D1A61B"/>
  <path d="M34.3793 27.0942C32.6839 24.978 30.3112 23.4443 27.5977 22.833C28.6857 24.146 30.0162 26.0107 31.0234 28.2395C32.1355 27.9372 33.2563 27.5532 34.3793 27.0898V27.0942Z" fill="#D1A61B"/>
  <path d="M23.9327 29.0647V24.1216C22.9954 25.2492 21.8528 26.8403 20.9482 28.7138C21.9511 28.8992 22.9495 29.0161 23.9327 29.0647Z" fill="#D1A61B"/>
  <path d="M23.9327 45.4299V40.4868C22.9495 40.5354 21.9511 40.6501 20.9482 40.8377C21.8528 42.7134 22.9954 44.3 23.9327 45.4299Z" fill="#D1A61B"/>
  <path d="M22.3149 22.835C19.6013 23.4484 17.2264 24.9821 15.5332 27.094C16.6496 27.5574 17.7726 27.9369 18.8891 28.2392C19.8963 26.0104 21.2246 24.1502 22.3105 22.835H22.3149Z" fill="#D1A61B"/>
  <path d="M33.9824 63.7767H34.8957L34.4369 62.5542L33.9824 63.7767Z" fill="#D1A61B"/>
  <path d="M25.4096 94L37.6292 81.6577H13.1943L25.4096 94Z" fill="#D1A61B"/>
  <path d="M25.9766 24.1172V29.0647C26.9641 29.0161 27.9626 28.9036 28.9676 28.7182C28.0631 26.8381 26.9182 25.2448 25.9766 24.1172Z" fill="#D1A61B"/>
  <path d="M17.427 35.8105H12.8848C13.0333 37.5803 13.5511 39.2464 14.3704 40.7205C15.6311 40.1843 16.8961 39.7341 18.1436 39.381C17.7787 38.2534 17.5253 37.0596 17.4314 35.815L17.427 35.8105Z" fill="#D1A61B"/>
  <path d="M18.1436 30.173C16.8873 29.8177 15.6223 29.3675 14.3704 28.8291C13.5555 30.3054 13.0333 31.9715 12.8848 33.7413H17.427C17.5209 32.4967 17.7787 31.3028 18.1392 30.173H18.1436Z" fill="#D1A61B"/>
  <path d="M15.5332 42.4617C17.2264 44.5735 19.5969 46.1072 22.3149 46.7185C21.2246 45.4055 19.8963 43.5452 18.8934 41.3164C17.7792 41.6187 16.6584 41.9983 15.5376 42.4617H15.5332Z" fill="#D1A61B"/>
  <path d="M31.769 39.3744C33.0253 39.7297 34.2837 40.1799 35.5422 40.7161C36.3549 39.242 36.8749 37.5803 37.0235 35.8105H32.4769C32.3808 37.0551 32.1273 38.249 31.7646 39.3744H31.769Z" fill="#D1A61B"/>
  <mask id="mask0_230_887" style="mask-type:luminance" maskUnits="userSpaceOnUse" x="0" y="15" width="50" height="65">
    <path d="M0.5 15.4907H49.5511V79.892H0.5V15.4907Z" fill="white"/>
  </mask>
  <g mask="url(#mask0_230_887)">
    <path d="M47.6791 15.9649C47.4256 15.8789 47.1547 15.8325 46.8816 15.8325H3.02375C1.66043 15.8325 0.552734 16.9535 0.552734 18.3305V77.0936C0.552734 78.4706 1.66043 79.5916 3.02375 79.5916H46.8816C48.2449 79.5916 49.3526 78.4706 49.3526 77.0936V18.3305C49.3526 17.2603 48.6775 16.3092 47.6747 15.9649H47.6791ZM19.4907 59.9914L16.4297 68.1916C16.279 68.5932 15.8988 68.8603 15.4728 68.8603C15.0468 68.8603 14.6666 68.5955 14.5158 68.1916L11.4549 59.9914C11.2539 59.4574 11.5227 58.8616 12.0514 58.6607C12.5801 58.4577 13.1678 58.7292 13.3688 59.2632L15.4728 64.9014L17.5768 59.2632C17.7756 58.7292 18.3655 58.4577 18.8942 58.6607C19.4207 58.8616 19.6873 59.4574 19.4907 59.9914ZM22.4533 67.8231C22.4533 68.3946 21.9966 68.8558 21.4308 68.8558C20.8671 68.8558 20.4083 68.3946 20.4083 67.8231V59.6229C20.4083 59.0513 20.8671 58.5901 21.4308 58.5901C21.9966 58.5901 22.4533 59.0513 22.4533 59.6229V67.8231ZM27.3647 68.8558H24.3278C23.7641 68.8558 23.3053 68.3946 23.3053 67.8231C23.3053 67.2538 23.7641 66.7903 24.3278 66.7903H27.3647C27.9306 66.7903 28.3872 66.3358 28.3872 65.773C28.3872 65.2103 27.9306 64.7557 27.3647 64.7557H26.375C24.6796 64.7557 23.3053 63.3721 23.3053 61.6729C23.3053 59.9738 24.6796 58.5901 26.375 58.5901H28.2649C28.8307 58.5901 29.2873 59.0513 29.2873 59.6229C29.2873 60.1922 28.8307 60.6556 28.2649 60.6556H26.375C25.8091 60.6556 25.3525 61.1102 25.3525 61.6729C25.3525 62.2357 25.8091 62.6902 26.375 62.6902H27.3647C29.0601 62.6902 30.4344 64.0739 30.4344 65.773C30.4344 67.4722 29.0601 68.8558 27.3647 68.8558ZM37.8627 68.7896C37.7426 68.836 37.6202 68.8558 37.5022 68.8558C37.0893 68.8558 36.7004 68.5999 36.5431 68.1872L35.6692 65.8392H33.2134L32.3373 68.1872C32.1363 68.7212 31.5464 68.9927 31.0199 68.7896C30.4912 68.5888 30.2246 67.993 30.4213 67.459L33.4822 59.2588C33.6351 58.8571 34.0153 58.5901 34.4413 58.5901C34.8652 58.5901 35.2475 58.8549 35.3983 59.2588L38.4592 67.459C38.6602 67.993 38.3893 68.5888 37.8627 68.7896ZM36.8468 42.5318C36.8228 42.5715 36.7987 42.6134 36.7681 42.6509C34.2316 46.5193 29.886 49.0791 24.9549 49.0791C17.1464 49.0791 10.7907 42.6642 10.7907 34.7729C10.7907 31.9284 11.621 29.2759 13.0455 27.0471C13.0739 26.9897 13.111 26.9368 13.1482 26.886C15.6847 23.0265 20.0325 20.4711 24.9549 20.4711C29.8772 20.4711 34.2228 23.0265 36.7616 26.8904C36.8009 26.939 36.8337 26.9986 36.8664 27.056C38.2866 29.2825 39.1146 31.9328 39.1146 34.7729C39.1146 37.613 38.2756 40.2941 36.8424 42.5318H36.8468Z" fill="#D1A61B"/>
  </g>
  <path d="M51.4043 67.7484L66.1758 52.8242L51.4043 37.9067V67.7484Z" fill="#D1A61B"/>
  <mask id="mask1_230_887" style="mask-type:luminance" maskUnits="userSpaceOnUse" x="49" y="0" width="43" height="52">
    <path d="M49.5508 0H91.4991V51.6463H49.5508V0Z" fill="white"/>
  </mask>
  <g mask="url(#mask1_230_887)">
    <path d="M64.3017 -0.00927734L49.6875 14.7515C49.6875 14.7515 49.7159 14.7802 49.7312 14.7913C49.8339 14.8751 49.9278 14.9612 50.0218 15.0517C50.0436 15.0693 50.0589 15.0892 50.0808 15.1068C50.1856 15.2128 50.284 15.3253 50.3779 15.4423C50.3997 15.4665 50.4194 15.4952 50.4391 15.5195C50.5177 15.6188 50.5876 15.7225 50.6576 15.8262C50.6728 15.8549 50.6947 15.8792 50.71 15.9079C50.7886 16.0359 50.8607 16.1639 50.9263 16.3007C50.9394 16.3249 50.9525 16.3514 50.9634 16.3801C51.018 16.4949 51.0661 16.6118 51.112 16.731C51.1229 16.7685 51.1404 16.8016 51.1513 16.8391C51.2016 16.9825 51.2453 17.1282 51.278 17.276C51.2824 17.2981 51.2868 17.3136 51.2911 17.3334C51.3196 17.4658 51.3436 17.6026 51.3611 17.735C51.3654 17.777 51.372 17.8189 51.3764 17.8586C51.3938 18.0153 51.4048 18.1698 51.4048 18.3309V34.9829L67.627 51.3656L91.3999 27.3542L64.3017 -0.00927734ZM78.5903 29.9118L72.3593 29.5984L62.7133 39.3411C62.5211 39.5353 62.2633 39.6413 61.988 39.6413C61.7149 39.6413 61.4571 39.5353 61.2648 39.3411L60.1462 38.2113C59.7901 37.8516 59.7464 37.2867 60.0413 36.8718L65.5164 29.2498L59.0669 28.9254L54.9005 33.1314C54.5006 33.5374 53.8539 33.5374 53.4519 33.1314L52.1673 31.8338C51.8264 31.4918 51.7696 30.9622 52.0231 30.5539L54.9289 25.9022L52.0231 21.2526C51.7696 20.8443 51.8264 20.3103 52.1673 19.9705L53.4519 18.6729C53.8539 18.2691 54.5006 18.2691 54.9005 18.6729L59.0669 22.8811L65.5164 22.5545L60.0413 14.9325C59.7464 14.5198 59.7901 13.9527 60.1462 13.593L61.2648 12.4654C61.6646 12.0637 62.3113 12.0593 62.7133 12.4654L72.3593 22.2081L78.5903 21.8925C79.8969 21.8263 81.8807 22.6406 82.9905 23.7087C83.6831 24.3729 84.0458 25.1342 84.0458 25.9022C84.0458 26.6723 83.6831 27.4358 82.9905 28.0979C81.8807 29.1637 79.9056 29.978 78.5903 29.9118Z" fill="#D1A61B"/>
  </g>
  <path d="M29.7628 30.6597C28.4935 30.9156 27.2241 31.0767 25.9766 31.1319V33.7403H30.4292C30.3353 32.67 30.0927 31.6395 29.7628 30.6597Z" fill="#D1A61B"/>
  <path d="M78.6937 23.9556L72.0082 24.2955C71.7198 24.3109 71.4379 24.2006 71.2348 23.9932L63.4 16.082L68.2874 22.881C68.5081 23.1877 68.5453 23.5915 68.3814 23.9358C68.2175 24.2778 67.8854 24.5007 67.5097 24.5228L58.7202 24.9685C58.4252 24.9818 58.1499 24.8736 57.9467 24.6662L54.2588 20.9435L56.9199 25.2002C57.0204 25.3657 57.0794 25.5555 57.0794 25.7497V26.0476C57.0794 26.2418 57.0248 26.4316 56.9199 26.5971L54.2588 30.8539L57.9467 27.1311C58.139 26.9369 58.4012 26.8288 58.6699 26.8288C58.6874 26.8288 58.7027 26.8288 58.7202 26.8288L67.5097 27.2746C67.8854 27.2966 68.2175 27.5195 68.3814 27.8616C68.5453 28.2058 68.5081 28.6052 68.2874 28.9164L63.4 35.7153L71.2348 27.8042C71.4379 27.5968 71.7242 27.4908 72.0082 27.5019L78.6937 27.8417C79.288 27.866 80.7518 27.3915 81.5798 26.5971C81.8442 26.3411 82.0015 26.0851 82.0015 25.8976C82.0015 25.7122 81.8442 25.4562 81.5798 25.2002C80.7518 24.4058 79.3033 23.927 78.6937 23.9556Z" fill="#D1A61B"/>
  <path d="M27.5928 46.7175C30.3063 46.1063 32.6834 44.5726 34.3744 42.4607C33.2514 41.9973 32.1306 41.6178 31.0186 41.311C30.0114 43.5398 28.6808 45.4045 27.5928 46.7175Z" fill="#D1A61B"/>
  <path d="M25.9766 40.4868V45.4299C26.9138 44.3 28.0609 42.709 28.9632 40.8333C27.9582 40.6479 26.9597 40.531 25.9766 40.4868Z" fill="#D1A61B"/>
  <path d="M31.7686 30.1813C32.1312 31.3045 32.3847 32.5006 32.4786 33.7452H37.0252C36.8788 31.9754 36.3588 30.3137 35.5439 28.8374C34.2876 29.3758 33.0248 29.826 31.7686 30.1813Z" fill="#D1A61B"/>
  <path d="M30.4292 35.8105H25.9766V38.4189C27.2219 38.4763 28.4847 38.633 29.7585 38.8911C30.0906 37.9114 30.3309 36.8764 30.4292 35.8105Z" fill="#D1A61B"/>
</svg>