<svg xmlns="http://www.w3.org/2000/svg" width="40" height="68" viewBox="0 0 40 68" fill="none">
  <path d="M4.72692 47.8327H35.3936C36.1195 47.7888 36.8356 47.8567 37.5416 48.0365V32.8799C36.8356 33.0597 36.1195 33.1276 35.3936 33.0837H4.72692C4.00095 33.1276 3.28493 33.0597 2.57886 32.8799V48.0365C3.28493 47.8567 4.00095 47.7888 4.72692 47.8327ZM29.4878 34.7569C29.5773 34.7584 29.664 34.7753 29.7464 34.8107C29.8288 34.8461 29.9012 34.8957 29.9638 34.9594C30.0277 35.0231 30.076 35.0967 30.1101 35.1788C30.1442 35.2623 30.1612 35.3487 30.1612 35.4378C30.1612 35.527 30.1442 35.6134 30.1101 35.6969C30.076 35.779 30.0277 35.8526 29.9638 35.9163C29.9012 35.98 29.8288 36.0295 29.7464 36.0649C29.664 36.1003 29.5773 36.1173 29.4878 36.1187C29.3983 36.1173 29.3117 36.1003 29.2293 36.0649C29.1469 36.0295 29.0744 35.98 29.0119 35.9163C28.948 35.8526 28.8997 35.779 28.8656 35.6969C28.8315 35.6134 28.8144 35.527 28.8144 35.4378C28.8144 35.3487 28.8315 35.2623 28.8656 35.1788C28.8997 35.0967 28.948 35.0231 29.0119 34.9594C29.0744 34.8957 29.1469 34.8461 29.2293 34.8107C29.3117 34.7753 29.3983 34.7584 29.4878 34.7569ZM28.4138 40.432V37.782C28.4152 37.6405 28.4436 37.5046 28.499 37.3743C28.5544 37.2441 28.6326 37.1295 28.732 37.0304C28.8329 36.9313 28.948 36.8548 29.0801 36.801C29.2108 36.7472 29.3458 36.7204 29.4878 36.7204C29.6299 36.7204 29.7649 36.7472 29.8956 36.801C30.0277 36.8548 30.1428 36.9313 30.2436 37.0304C30.3445 37.1295 30.4212 37.2441 30.4766 37.3743C30.532 37.5046 30.5604 37.6405 30.5619 37.782V40.432C30.5619 40.8015 30.5221 41.1681 30.4425 41.5305C30.363 41.8915 30.245 42.2411 30.0902 42.578C29.9339 42.9135 29.7435 43.2292 29.5191 43.5236C29.2946 43.8181 29.0403 44.0856 28.7576 44.3248C28.1098 44.7977 26.7857 46.2628 26.2132 46.1594C25.9901 46.1566 25.7884 46.0901 25.6066 45.9613C25.4247 45.8324 25.2954 45.6626 25.2173 45.4545C25.1406 45.245 25.1292 45.0326 25.1832 44.8175C25.2372 44.6009 25.348 44.4197 25.5156 44.2725C26.6053 43.2971 28.5488 42.1279 28.4138 40.432ZM18.9862 34.7569C19.0757 34.7584 19.1624 34.7753 19.2448 34.8107C19.3272 34.8461 19.3996 34.8957 19.4636 34.9594C19.5261 35.0231 19.5744 35.0967 19.6085 35.1788C19.6426 35.2623 19.6596 35.3487 19.6596 35.4378C19.6596 35.527 19.6426 35.6134 19.6085 35.6969C19.5744 35.779 19.5261 35.8526 19.4636 35.9163C19.3996 35.98 19.3272 36.0295 19.2448 36.0649C19.1624 36.1003 19.0757 36.1173 18.9862 36.1187C18.8967 36.1173 18.81 36.1003 18.7276 36.0649C18.6453 36.0295 18.5728 35.98 18.5103 35.9163C18.4464 35.8526 18.3981 35.779 18.364 35.6969C18.3299 35.6134 18.3128 35.527 18.3128 35.4378C18.3128 35.3487 18.3299 35.2623 18.364 35.1788C18.3981 35.0967 18.4464 35.0231 18.5103 34.9594C18.5728 34.8957 18.6453 34.8461 18.7276 34.8107C18.81 34.7753 18.8967 34.7584 18.9862 34.7569ZM18.0528 40.432V37.782C18.0543 37.6405 18.0827 37.5046 18.1367 37.3743C18.1921 37.2441 18.2702 37.1295 18.3711 37.0304C18.4705 36.9313 18.587 36.8548 18.7177 36.801C18.8484 36.7472 18.9848 36.7204 19.1254 36.7204C19.2675 36.7204 19.4039 36.7472 19.5346 36.801C19.6653 36.8548 19.7804 36.9313 19.8812 37.0304C19.9821 37.1295 20.0602 37.2441 20.1156 37.3743C20.1696 37.5046 20.198 37.6405 20.1995 37.782V40.9784C20.2009 41.0789 20.2364 41.1639 20.3074 41.2346C20.3785 41.3068 20.4651 41.3422 20.5646 41.3436C20.6129 41.3436 20.6598 41.3351 20.7052 41.3167C20.7507 41.2983 20.789 41.2714 20.8246 41.2375C20.8587 41.2035 20.8842 41.1639 20.9027 41.1186C20.9212 41.0733 20.9311 41.0265 20.9297 40.9784V37.8684C20.9297 37.7735 20.9368 37.6787 20.9482 37.5839C20.9595 37.4904 20.9766 37.397 20.9993 37.305C21.022 37.213 21.0505 37.1224 21.0831 37.0346C21.1172 36.9454 21.1556 36.8591 21.1996 36.7756C21.2437 36.6906 21.292 36.6099 21.346 36.5321C21.3985 36.4542 21.4568 36.3792 21.5193 36.307C21.5818 36.2362 21.6486 36.1683 21.7182 36.1046C21.7892 36.0423 21.8631 35.9828 21.9398 35.9276C22.0179 35.8738 22.0989 35.8229 22.1813 35.7776C22.2651 35.7337 22.3518 35.6926 22.4399 35.6587C22.528 35.6233 22.6175 35.5935 22.7098 35.5695C22.8007 35.5454 22.8945 35.527 22.9882 35.5143C23.082 35.5015 23.1758 35.493 23.271 35.4916C23.3661 35.4902 23.4599 35.493 23.5551 35.503C23.6489 35.5129 23.7426 35.527 23.835 35.5483C23.9273 35.5681 24.0182 35.595 24.1077 35.6261C28.8116 37.0742 27.354 43.5633 22.5947 42.4591C22.5052 42.5794 22.4058 42.6913 22.2978 42.7932C22.1884 42.8965 22.0705 42.9885 21.9455 43.0706C21.8205 43.1527 21.6883 43.2221 21.5505 43.2816C21.4127 43.3396 21.2707 43.3849 21.1243 43.4189C20.978 43.4514 20.8302 43.4713 20.6811 43.4783C20.5305 43.4854 20.3813 43.4797 20.2336 43.4599C20.0844 43.4401 19.9395 43.4076 19.796 43.3623C19.6539 43.3155 19.5161 43.2589 19.384 43.1881C19.1169 43.6171 18.7916 43.9964 18.4066 44.3248C17.7701 44.7849 16.4176 46.2656 15.8508 46.1594C15.6277 46.1566 15.426 46.0901 15.2442 45.9613C15.0623 45.8324 14.933 45.6626 14.8563 45.4545C14.7796 45.245 14.7668 45.0326 14.8222 44.8175C14.8762 44.6009 14.987 44.4197 15.1532 44.2725C16.2457 43.2943 18.1864 42.1293 18.0528 40.432ZM8.87244 39.8743C9.23045 34.3577 17.7374 36.157 16.2486 41.2898C16.1335 41.5531 15.9815 41.7924 15.7925 42.009C15.6022 42.2255 15.3848 42.4067 15.139 42.5554C14.8933 42.704 14.6304 42.813 14.3506 42.8795C14.0707 42.9461 13.788 42.9701 13.501 42.9489C13.214 42.9291 12.937 42.8654 12.6699 42.7592C12.4028 42.653 12.1585 42.5087 11.9368 42.326C11.7138 42.1434 11.5248 41.9325 11.3686 41.6905C11.2123 41.4498 11.0958 41.1908 11.0191 40.9147V44.8401C11.0162 44.9817 10.9878 45.1162 10.9324 45.245C10.877 45.3738 10.7989 45.4885 10.698 45.5861C10.5971 45.6852 10.4821 45.7602 10.3514 45.814C10.2221 45.8678 10.0857 45.8933 9.94505 45.8933C9.8044 45.8933 9.66944 45.8678 9.53874 45.814C9.40945 45.7602 9.29296 45.6852 9.19351 45.5861C9.09264 45.4885 9.01451 45.3738 8.9591 45.245C8.90369 45.1162 8.87386 44.9803 8.87244 44.8401V39.8743Z" fill="white"/>
  <mask id="mask0_120_1655" style="mask-type:luminance" maskUnits="userSpaceOnUse" x="2" y="60" width="36" height="8">
    <path d="M2.60278 60.834H37.5172V67.9997H2.60278V60.834Z" fill="white"/>
  </mask>
  <g mask="url(#mask0_120_1655)">
    <path d="M34.9318 61.0595H5.18859C4.41858 61.1005 3.65284 61.0581 2.89136 60.9307C3.02206 61.4261 3.19254 61.906 3.40138 62.3731C3.61164 62.8389 3.85884 63.2848 4.14155 63.7109C4.42568 64.137 4.74107 64.5376 5.09056 64.9113C5.44004 65.2864 5.81652 65.629 6.22284 65.9418C6.62773 66.2532 7.05677 66.5307 7.50712 66.7728C7.9589 67.0148 8.4263 67.2173 8.91075 67.3829C9.3952 67.5485 9.89101 67.6717 10.3954 67.7566C10.9011 67.8401 11.4097 67.8826 11.9212 67.8826H28.1992C28.7107 67.8826 29.2193 67.8401 29.725 67.7566C30.2294 67.6717 30.7252 67.5485 31.2096 67.3829C31.6941 67.2173 32.1615 67.0148 32.6133 66.7728C33.0636 66.5307 33.4927 66.2532 33.8975 65.9418C34.3039 65.629 34.6818 65.2864 35.0298 64.9113C35.3793 64.5376 35.6961 64.137 35.9788 63.7109C36.2615 63.2848 36.5087 62.8389 36.719 62.3731C36.9278 61.906 37.0983 61.4261 37.229 60.9307C36.469 61.0581 35.7018 61.1005 34.9318 61.0595Z" fill="white"/>
  </g>
  <mask id="mask1_120_1655" style="mask-type:luminance" maskUnits="userSpaceOnUse" x="0" y="21" width="40" height="11">
    <path d="M0.526123 21.6973H39.4739V31.1194H0.526123V21.6973Z" fill="white"/>
  </mask>
  <g mask="url(#mask1_120_1655)">
    <path d="M37.0359 22.1515C36.7191 22.0453 36.3938 21.9957 36.0599 22.0014H4.06213C3.83198 22.0014 3.60609 22.0241 3.38162 22.0694C3.15716 22.1147 2.9398 22.1812 2.72812 22.269C2.51643 22.3581 2.31612 22.4657 2.12575 22.5917C1.93538 22.7191 1.75922 22.8635 1.59726 23.0263C1.4353 23.1877 1.29181 23.3632 1.16395 23.5529C1.03609 23.744 0.928122 23.9436 0.841461 24.1545C0.753379 24.3654 0.686608 24.5834 0.641146 24.8085C0.595685 25.0322 0.572954 25.2587 0.571533 25.4866V27.45C0.571533 27.6793 0.594264 27.9058 0.639726 28.1295C0.685187 28.3545 0.751958 28.5725 0.83862 28.7835C0.926701 28.9944 1.03467 29.1954 1.16253 29.3851C1.28897 29.5762 1.43388 29.7517 1.59584 29.9131C1.7578 30.0759 1.93396 30.2203 2.12433 30.3477C2.3147 30.4737 2.51501 30.5812 2.72669 30.669C2.93837 30.7568 3.15716 30.8233 3.38162 30.8686C3.60609 30.9139 3.83198 30.9366 4.06213 30.9366H36.0599C36.2887 30.9366 36.5146 30.9139 36.739 30.8686C36.9649 30.8233 37.1823 30.7568 37.394 30.669C37.6056 30.5812 37.806 30.4737 37.9963 30.3477C38.1867 30.2203 38.3629 30.0759 38.5248 29.9131C38.6868 29.7517 38.8317 29.5762 38.9595 29.3851C39.086 29.1954 39.194 28.9944 39.282 28.7835C39.3701 28.5725 39.4355 28.3545 39.4809 28.1295C39.5264 27.9058 39.5491 27.6793 39.5491 27.45V25.4866C39.5491 25.2997 39.5349 25.1143 39.5051 24.9288C39.4752 24.7448 39.4312 24.5636 39.3715 24.3852C39.3119 24.2083 39.2394 24.037 39.1528 23.8714C39.0647 23.7058 38.9652 23.5472 38.853 23.3986C38.7408 23.2485 38.6157 23.1098 38.4808 22.9796C38.3458 22.8508 38.2009 22.7319 38.046 22.6271C37.8926 22.5209 37.7307 22.4275 37.5602 22.3482C37.3911 22.2675 37.2164 22.2024 37.0359 22.1515Z" fill="white"/>
  </g>
  <mask id="mask2_120_1655" style="mask-type:luminance" maskUnits="userSpaceOnUse" x="0" y="49" width="40" height="11">
    <path d="M0.526123 49.6045H39.4739V59.0266H0.526123V49.6045Z" fill="white"/>
  </mask>
  <g mask="url(#mask2_120_1655)">
    <path d="M36.4142 50.0007C35.8658 49.9059 4.57264 50.0248 4.06119 49.9795C3.83247 49.9795 3.60516 50.0022 3.38069 50.0475C3.15623 50.0928 2.93886 50.1593 2.72718 50.2471C2.5155 50.3348 2.31519 50.4424 2.12482 50.5698C1.93445 50.6972 1.75828 50.8416 1.59633 51.003C1.43437 51.1644 1.28946 51.3413 1.16302 51.531C1.03516 51.7207 0.92719 51.9217 0.840529 52.1326C0.752447 52.3449 0.685675 52.5615 0.640214 52.7866C0.596173 53.0103 0.572021 53.2368 0.572021 53.4661V55.4295C0.576284 55.6871 0.608959 55.9405 0.668627 56.1925C0.728295 56.443 0.813536 56.6851 0.924348 56.9173C1.03658 57.1494 1.17155 57.3674 1.32924 57.5713C1.48836 57.7751 1.66594 57.9591 1.86341 58.1248C2.06231 58.2904 2.27541 58.4319 2.50414 58.5523C2.73287 58.6712 2.97154 58.766 3.22016 58.834C3.46877 58.9019 3.72307 58.943 3.98022 58.9571C4.23878 58.9699 4.4945 58.9571 4.7488 58.9147L35.3828 58.9161C35.6371 58.9557 35.8942 58.9699 36.1514 58.9543C36.4085 58.9401 36.6614 58.8991 36.9086 58.8311C37.1572 58.7618 37.3959 58.6683 37.6232 58.548C37.8519 58.4291 38.065 58.2861 38.2625 58.1219C38.46 57.9563 38.6375 57.7723 38.7952 57.5684C38.9529 57.3646 39.0879 57.1466 39.1987 56.9144C39.3095 56.6823 39.3948 56.4416 39.4544 56.1911C39.5127 55.9405 39.5453 55.6857 39.5496 55.4295V53.4661C39.5496 53.2523 39.5297 53.04 39.4914 52.8291C39.4516 52.6196 39.3933 52.4143 39.3166 52.2147C39.2399 52.0151 39.1461 51.824 39.0339 51.6414C38.9217 51.4588 38.7938 51.2889 38.6503 51.1304C38.5054 50.9718 38.3491 50.8274 38.1787 50.6972C38.0082 50.5684 37.8278 50.4551 37.6374 50.3575C37.4456 50.2612 37.2481 50.1834 37.0421 50.1239C36.8361 50.063 36.6273 50.022 36.4142 50.0007Z" fill="white"/>
  </g>
  <path d="M13.7795 40.829C14.9984 40.5714 13.859 38.7736 13.0052 38.6943C12.8844 39.2365 12.8489 40.914 13.7795 40.829Z" fill="white"/>
  <path d="M24.6562 39.9604C25.3794 38.995 24.3195 37.8993 23.3563 37.6431C23.2242 37.5865 23.0864 37.6941 23.0779 37.8682V40.3356C23.2128 40.3879 23.3521 40.4191 23.497 40.429C23.6419 40.4389 23.784 40.4276 23.926 40.3936C24.0667 40.361 24.1988 40.3072 24.3238 40.2322C24.4488 40.1586 24.5596 40.068 24.6562 39.9604Z" fill="white"/>
  <path d="M36.1993 19.8678C35.8029 19.0411 35.327 18.2639 34.7686 17.5363C34.2103 16.8087 33.5838 16.1476 32.8877 15.5502C32.1915 14.9543 31.4414 14.4362 30.6373 13.9959C29.8332 13.5557 28.9922 13.2018 28.1142 12.9371C27.8059 12.8479 27.5161 12.7191 27.2433 12.5506C26.9691 12.3836 26.7234 12.184 26.5032 11.9518C26.283 11.7183 26.0983 11.4606 25.9463 11.1789C25.7957 10.8972 25.6834 10.6 25.6124 10.2871C25.4931 10.2984 25.3752 10.2984 25.2572 10.2984C22.6816 10.2885 17.0756 10.3168 14.5098 10.2871C14.4374 10.6 14.3252 10.8972 14.1746 11.1789C14.0226 11.4606 13.8379 11.7183 13.6177 11.9518C13.3975 12.184 13.1517 12.3836 12.8775 12.5506C12.6047 12.7191 12.3149 12.8479 12.0066 12.9371C8.60837 13.9464 5.00412 16.8512 4.06079 19.8564C4.06221 19.8564 36.1566 19.8564 36.1993 19.8678Z" fill="white"/>
  <path d="M14.8636 8.15301C14.8792 8.16717 25.1876 8.14452 25.2146 8.15301C25.4135 8.16009 25.6096 8.14735 25.8056 8.11479C26.0017 8.08223 26.192 8.03127 26.3782 7.96191C26.5643 7.89113 26.7404 7.80336 26.9095 7.69861C27.0771 7.59244 27.2334 7.47212 27.3783 7.33622C27.5218 7.20033 27.6511 7.05027 27.7661 6.8889C27.8812 6.72752 27.9792 6.55624 28.0588 6.37504C28.1398 6.19385 28.2023 6.00558 28.2449 5.81306C28.289 5.61912 28.3131 5.42377 28.3174 5.22559V2.92952C28.3131 2.73275 28.2904 2.53882 28.2478 2.3463C28.2051 2.1552 28.144 1.96976 28.0645 1.78998C27.9849 1.6102 27.8897 1.43891 27.7761 1.27754C27.6639 1.11758 27.536 0.968941 27.3939 0.833045C27.2519 0.69715 27.0984 0.57541 26.9322 0.470657C26.766 0.364488 26.5913 0.276722 26.408 0.204528C26.2247 0.133749 26.0372 0.0799567 25.8426 0.0459828C25.6493 0.0120088 25.4547 -0.00356228 25.2572 0.000684193H14.8636C14.6661 -0.00356228 14.4715 0.0120088 14.2783 0.0459828C14.0836 0.0799567 13.8961 0.133749 13.7129 0.204528C13.5296 0.276722 13.3548 0.364488 13.1886 0.470657C13.0224 0.57541 12.869 0.69715 12.7269 0.833045C12.5848 0.968941 12.457 1.11758 12.3447 1.27754C12.2325 1.43891 12.1359 1.6102 12.0563 1.78998C11.9768 1.96976 11.9171 2.1552 11.8745 2.3463C11.8319 2.53882 11.8077 2.73275 11.8035 2.92952V5.22559C11.8077 5.42094 11.8319 5.61629 11.8745 5.80739C11.9171 5.99991 11.9768 6.18535 12.0563 6.36513C12.1359 6.54491 12.2325 6.71478 12.3447 6.87616C12.457 7.03753 12.5848 7.18617 12.7269 7.32207C12.869 7.45796 13.0224 7.57829 13.1886 7.68445C13.3548 7.78921 13.5296 7.87839 13.7129 7.94917C13.8961 8.02136 14.0836 8.07374 14.2783 8.10771C14.4715 8.1431 14.6661 8.15726 14.8636 8.15301Z" fill="white"/>
</svg>