<svg xmlns="http://www.w3.org/2000/svg" width="106" height="94" viewBox="0 0 106 94" fill="none">
  <mask id="mask0_230_976" style="mask-type:luminance" maskUnits="userSpaceOnUse" x="0" y="0" width="106" height="94">
    <path d="M0.615234 0H105.079V94H0.615234V0Z" fill="white"/>
  </mask>
  <g mask="url(#mask0_230_976)">
    <path d="M1.44477 18.5158L53.1393 0.0454102L103.399 17.716L105.01 89.5851L52.3492 93.8832L0.603516 89.5652L1.44477 18.5158Z" fill="#D1A61B"/>
  </g>
  <mask id="mask1_230_976" style="mask-type:luminance" maskUnits="userSpaceOnUse" x="51" y="0" width="55" height="94">
    <path d="M51.9658 0H105.386V94H51.9658V0Z" fill="white"/>
  </mask>
  <g mask="url(#mask1_230_976)">
    <path d="M53.0688 0.03125L103.354 17.5709C103.97 41.6031 104.587 65.6326 105.204 89.662L52.3555 94.0085L53.0688 0.03125Z" fill="#D1A61B"/>
  </g>
  <path d="M54.8052 36.0096L52.813 36.0552L50.8178 36.1007V41.3097C52.1365 41.3011 53.4581 41.2897 54.7768 41.2784C54.7854 39.5221 54.7967 37.7659 54.8052 36.0096ZM52.4634 26.3916L1.24062 35.9242L1.1582 42.787L51.3919 32.7078L103.993 42.4625C103.945 40.6322 103.896 38.7991 103.851 36.9689L52.4634 26.3916ZM68.4302 39.2232L68.1857 43.8771C71.1557 44.1447 74.1257 44.4123 77.0957 44.6827C77.144 43.1655 77.1894 41.6484 77.2349 40.1341L68.4302 39.2232ZM36.9542 38.338L27.9249 40.1369L28.2745 44.8762L37.4799 43.5583L36.9542 38.338ZM87.114 41.3182L87.0287 46.2453C90.0925 46.4588 93.1591 46.6723 96.2257 46.8858C96.2939 45.3516 96.3621 43.8145 96.4303 42.2803L87.114 41.3182ZM17.8384 41.0734L13.3223 41.9729L8.80907 42.8723L9.16149 47.6088C12.2281 47.1704 15.2947 46.7321 18.3641 46.2937C18.1879 44.5517 18.0117 42.8126 17.8384 41.0734Z" fill="white"/>
  <mask id="mask2_230_976" style="mask-type:luminance" maskUnits="userSpaceOnUse" x="0" y="3" width="106" height="73">
    <path d="M0.615234 3.7832H105.079V75.9227H0.615234V3.7832Z" fill="white"/>
  </mask>
  <g mask="url(#mask2_230_976)">
    <path d="M21.1663 11.4687L20.7854 11.6053L20.0834 32.4183L19.8618 39.0333L20.2397 38.9593L20.4614 32.3471L21.1663 11.4687ZM64.0276 3.85449L64.795 46.2746H64.7922C63.5274 52.2122 61.7852 57.1878 59.5656 61.2012C57.0901 65.505 54.7028 67.6796 52.4035 67.728C50.3317 67.5516 48.4758 65.8209 46.8331 62.5305C45.7076 60.834 43.5334 55.5141 40.3162 46.5678L40.6857 34.8548L40.8874 28.5471L41.6576 4.14767L41.2796 4.2843L40.5094 28.6155L40.3077 34.9316L39.9666 45.7679H39.9638C36.9512 51.845 34.6576 55.9923 33.0859 58.2096C31.5228 60.2704 30.5991 61.3293 30.3178 61.3834C29.7238 61.8644 29.144 62.1548 28.5841 62.2572C28.4562 62.28 28.3283 62.2942 28.1976 62.2942C25.7505 62.2942 22.9824 57.9762 19.8902 49.343L20.2397 38.9593L19.8618 39.0333L19.4951 49.8639C16.3632 56.5502 14.1179 59.9089 12.7537 59.9402C12.6599 59.9545 12.5661 59.963 12.4724 59.963C10.8836 59.963 9.10734 57.5834 7.14914 52.8185L7.16904 41.5809L7.18325 34.8178L7.21735 16.4527L6.83936 16.5865L6.80525 34.889L6.79388 41.6577L6.77115 52.7616L0.677734 70.4094C2.42277 72.0916 4.53159 73.1419 7.00704 73.5603C7.89093 73.6941 8.8686 73.7596 9.94006 73.7596C9.95996 73.7596 9.97701 73.7596 9.99406 73.7596C13.5893 73.6315 16.3916 73.5689 18.4009 73.5689C19.8447 73.5689 20.8821 73.6002 21.5073 73.6657C21.5272 73.6657 21.5499 73.6657 21.5755 73.6657C22.4679 73.6657 25.8926 74.1439 31.844 75.1031C33.2536 75.2312 34.1972 75.2938 34.6661 75.2938C34.7628 75.2938 34.8395 75.291 34.8963 75.2881C34.993 75.2881 35.0896 75.291 35.1891 75.291C37.2581 75.291 39.3556 74.8697 41.4843 74.03C42.3682 73.6827 43.235 73.2956 44.0876 72.8687L50.9399 69.2793C52.2359 68.7841 53.0288 68.5393 53.3187 68.5393C53.3698 68.5393 53.4068 68.545 53.4267 68.562C53.5119 68.5478 53.6001 68.5393 53.6967 68.5393C54.1287 68.5393 54.6715 68.6844 55.3309 68.9691L59.5627 72.2595C60.782 72.9768 61.5834 73.3867 61.97 73.4835C64.542 74.437 67.5575 75.0006 71.0135 75.18C71.7666 75.2198 72.5425 75.2397 73.3468 75.2397C78.0988 75.2397 83.7516 74.5452 90.3083 73.159C92.5024 73.4266 94.2787 73.5603 95.6429 73.5603C96.3818 73.5603 96.9986 73.5205 97.4959 73.4436C99.474 73.196 101.79 72.3819 104.445 71.0043L98.3201 52.8641V15.818L97.945 15.687V51.7511L97.9137 51.6629C96.4074 56.5189 94.8869 58.9468 93.3579 58.9468C93.2726 58.9468 93.1902 58.9383 93.1078 58.9241C93.1021 58.9241 93.0964 58.9241 93.0907 58.9241C91.7493 58.9241 89.1942 55.7133 85.4285 49.2918C85.4057 49.3544 85.383 49.4199 85.3603 49.4825L84.5986 11.0303L84.2206 10.8965L85.0022 50.4475C81.9469 58.5569 79.2271 62.613 76.8454 62.613C76.7147 62.613 76.5868 62.6016 76.4589 62.576C75.8876 62.4878 75.2965 62.206 74.6883 61.7392C74.4012 61.6908 73.4576 60.649 71.8604 58.6167C70.3143 56.5132 68.089 52.6335 65.1844 46.9748L65.1815 46.9777L64.4056 3.98543L64.0276 3.85449Z" fill="white"/>
  </g>
</svg>