<svg xmlns="http://www.w3.org/2000/svg" width="41" height="40" viewBox="0 0 41 40" fill="none">
  <path d="M3.83331 31.668V28.3346H37.1666V31.668H3.83331ZM5.49998 26.668V25.0013C5.49998 21.4458 6.59053 18.3069 8.77165 15.5846C10.9528 12.8624 13.7511 11.1402 17.1666 10.418V10.0013C17.1666 9.08464 17.4933 8.30019 18.1466 7.64797C18.8 6.99575 19.5844 6.66908 20.5 6.66797C21.4155 6.66686 22.2005 6.99353 22.855 7.64797C23.5094 8.30242 23.8355 9.08686 23.8333 10.0013V10.418C27.2778 11.1402 30.0833 12.8624 32.25 15.5846C34.4166 18.3069 35.5 21.4458 35.5 25.0013V26.668H5.49998ZM8.91665 23.3346H32.0833C31.6944 20.4458 30.4028 18.0569 28.2083 16.168C26.0139 14.2791 23.4444 13.3346 20.5 13.3346C17.5555 13.3346 14.9933 14.2791 12.8133 16.168C10.6333 18.0569 9.33442 20.4458 8.91665 23.3346Z" fill="#FF636D"/>
</svg>