<svg xmlns="http://www.w3.org/2000/svg" width="20" height="20" viewBox="0 0 20 20" fill="none">
  <g clip-path="url(#clip0_272_3440)">
    <path d="M16.6665 3.33203H3.33317C2.4165 3.33203 1.67484 4.08203 1.67484 4.9987L1.6665 14.9987C1.6665 15.9154 2.4165 16.6654 3.33317 16.6654H16.6665C17.5832 16.6654 18.3332 15.9154 18.3332 14.9987V4.9987C18.3332 4.08203 17.5832 3.33203 16.6665 3.33203ZM15.8332 14.9987H4.1665C3.70817 14.9987 3.33317 14.6237 3.33317 14.1654V6.66536L9.1165 10.282C9.65817 10.6237 10.3415 10.6237 10.8832 10.282L16.6665 6.66536V14.1654C16.6665 14.6237 16.2915 14.9987 15.8332 14.9987ZM9.99984 9.16536L3.33317 4.9987H16.6665L9.99984 9.16536Z" fill="#39434D"/>
  </g>
  <defs>
    <clipPath id="clip0_272_3440">
      <rect width="20" height="20" fill="white"/>
    </clipPath>
  </defs>
</svg>