<svg width="23" height="15" viewBox="0 0 23 15" fill="none" xmlns="http://www.w3.org/2000/svg">
<path d="M22.8438 6.95312C22.9219 7.10938 22.9609 7.30469 22.9609 7.53906C22.9609 7.73438 22.9219 7.92969 22.8438 8.08594C20.7344 12.2266 16.5156 15 11.75 15C6.94531 15 2.72656 12.2266 0.617188 8.08594C0.539062 7.92969 0.5 7.73438 0.5 7.5C0.5 7.30469 0.539062 7.10938 0.617188 6.95312C2.72656 2.8125 6.94531 0 11.75 0C16.5156 0 20.7344 2.8125 22.8438 6.95312ZM11.75 13.125V13.1641C14.8359 13.1641 17.375 10.625 17.375 7.53906V7.5C17.375 4.41406 14.8359 1.875 11.75 1.875C8.625 1.875 6.125 4.41406 6.125 7.5C6.125 10.625 8.625 13.125 11.75 13.125ZM11.75 3.75V3.78906C13.8203 3.78906 15.5 5.42969 15.5 7.5C15.5 9.57031 13.8203 11.25 11.75 11.25C9.67969 11.25 8 9.57031 8 7.5C8 7.1875 8.03906 6.83594 8.11719 6.52344C8.42969 6.75781 8.82031 6.875 9.25 6.875C10.2656 6.875 11.0859 6.05469 11.0859 5.03906C11.0859 4.60938 10.9688 4.21875 10.7344 3.90625C11.0469 3.82812 11.3984 3.78906 11.75 3.75Z" fill="#C02D63"/>
</svg>
