<svg xmlns="http://www.w3.org/2000/svg" width="40" height="40" viewBox="0 0 40 40" fill="none">
  <path fill-rule="evenodd" clip-rule="evenodd" d="M8.33333 8.33333C8.33333 7.44928 8.68452 6.60143 9.30964 5.97631C9.93476 5.35119 10.7826 5 11.6667 5H28.3333C29.2174 5 30.0652 5.35119 30.6904 5.97631C31.3155 6.60143 31.6667 7.44928 31.6667 8.33333V10H33.3333C33.7754 10 34.1993 10.1756 34.5118 10.4882C34.8244 10.8007 35 11.2246 35 11.6667C35 12.1087 34.8244 12.5326 34.5118 12.8452C34.1993 13.1577 33.7754 13.3333 33.3333 13.3333V31.6667C33.7754 31.6667 34.1993 31.8423 34.5118 32.1548C34.8244 32.4674 35 32.8913 35 33.3333C35 33.7754 34.8244 34.1993 34.5118 34.5118C34.1993 34.8244 33.7754 35 33.3333 35H6.66667C6.22464 35 5.80072 34.8244 5.48816 34.5118C5.17559 34.1993 5 33.7754 5 33.3333C5 32.8913 5.17559 32.4674 5.48816 32.1548C5.80072 31.8423 6.22464 31.6667 6.66667 31.6667V13.3333C6.22464 13.3333 5.80072 13.1577 5.48816 12.8452C5.17559 12.5326 5 12.1087 5 11.6667C5 11.2246 5.17559 10.8007 5.48816 10.4882C5.80072 10.1756 6.22464 10 6.66667 10H8.33333V8.33333ZM28.3333 8.33333V10H11.6667V8.33333H28.3333ZM30 13.3333V31.6667H24.1667V27.5C24.1667 26.3949 23.7277 25.3351 22.9463 24.5537C22.1649 23.7723 21.1051 23.3333 20 23.3333C18.8949 23.3333 17.8351 23.7723 17.0537 24.5537C16.2723 25.3351 15.8333 26.3949 15.8333 27.5V31.6667H10V13.3333H30ZM20 26.6667C20.221 26.6667 20.433 26.7545 20.5893 26.9107C20.7455 27.067 20.8333 27.279 20.8333 27.5V31.6667H19.1667V27.5C19.1667 27.279 19.2545 27.067 19.4107 26.9107C19.567 26.7545 19.779 26.6667 20 26.6667ZM13.3333 21.6667C13.7754 21.6667 14.1993 21.8423 14.5118 22.1548C14.8244 22.4674 15 22.8913 15 23.3333V25C15 25.442 14.8244 25.8659 14.5118 26.1785C14.1993 26.4911 13.7754 26.6667 13.3333 26.6667C12.8913 26.6667 12.4674 26.4911 12.1548 26.1785C11.8423 25.8659 11.6667 25.442 11.6667 25V23.3333C11.6667 22.8913 11.8423 22.4674 12.1548 22.1548C12.4674 21.8423 12.8913 21.6667 13.3333 21.6667ZM26.6667 21.6667C27.0749 21.6667 27.4689 21.8166 27.774 22.0879C28.079 22.3591 28.2739 22.7329 28.3217 23.1383L28.3333 23.3333V25C28.3329 25.4248 28.1702 25.8334 27.8786 26.1423C27.587 26.4512 27.1884 26.6371 26.7643 26.662C26.3403 26.6868 25.9227 26.5489 25.5969 26.2762C25.2712 26.0036 25.0618 25.6168 25.0117 25.195L25 25V23.3333C25 22.8913 25.1756 22.4674 25.4882 22.1548C25.8007 21.8423 26.2246 21.6667 26.6667 21.6667ZM13.3333 15C13.7416 15.0001 14.1356 15.1499 14.4406 15.4212C14.7457 15.6925 14.9406 16.0662 14.9883 16.4717L15 16.6667V18.3333C14.9995 18.7581 14.8369 19.1667 14.5453 19.4756C14.2536 19.7845 13.8551 19.9704 13.431 19.9953C13.0069 20.0202 12.5894 19.8822 12.2636 19.6096C11.9379 19.3369 11.7285 18.9502 11.6783 18.5283L11.6667 18.3333V16.6667C11.6667 16.2246 11.8423 15.8007 12.1548 15.4882C12.4674 15.1756 12.8913 15 13.3333 15ZM20 15C20.4082 15.0001 20.8022 15.1499 21.1073 15.4212C21.4123 15.6925 21.6072 16.0662 21.655 16.4717L21.6667 16.6667V18.3333C21.6662 18.7581 21.5035 19.1667 21.2119 19.4756C20.9203 19.7845 20.5217 19.9704 20.0977 19.9953C19.6736 20.0202 19.256 19.8822 18.9303 19.6096C18.6045 19.3369 18.3952 18.9502 18.345 18.5283L18.3333 18.3333V16.6667C18.3333 16.2246 18.5089 15.8007 18.8215 15.4882C19.134 15.1756 19.558 15 20 15ZM26.6667 15C27.1087 15 27.5326 15.1756 27.8452 15.4882C28.1577 15.8007 28.3333 16.2246 28.3333 16.6667V18.3333C28.3333 18.7754 28.1577 19.1993 27.8452 19.5118C27.5326 19.8244 27.1087 20 26.6667 20C26.2246 20 25.8007 19.8244 25.4882 19.5118C25.1756 19.1993 25 18.7754 25 18.3333V16.6667C25 16.2246 25.1756 15.8007 25.4882 15.4882C25.8007 15.1756 26.2246 15 26.6667 15Z" fill="#FF636D"/>
</svg>