<svg width="19" height="16" viewBox="0 0 19 16" fill="none" xmlns="http://www.w3.org/2000/svg">
<path d="M16 6H12.4062L9.125 0.28125C9.03125 0.125 8.875 0 8.6875 0H6.65625C6.3125 0 6.0625 0.34375 6.15625 0.65625L7.6875 6H4.5L3.125 4.21875C3.03125 4.09375 2.90625 4 2.75 4H1.5C1.15625 4 0.90625 4.3125 1 4.625L2 8L1 11.4062C0.90625 11.7188 1.15625 12 1.5 12H2.75C2.90625 12 3.03125 11.9375 3.125 11.8125L4.5 10H7.6875L6.15625 15.375C6.0625 15.6875 6.3125 16 6.65625 16H8.6875C8.875 16 9.03125 15.9062 9.125 15.75L12.4062 10H16C17.0938 10 19 9.125 19 8C19 6.90625 17.0938 6 16 6Z" fill="#607080"/>
</svg>
