<svg xmlns="http://www.w3.org/2000/svg" width="40" height="40" viewBox="0 0 40 40" fill="none">
  <path d="M5 35V31.6667H8.33333V5H25V6.66667H31.6667V31.6667H35V35H28.3333V10H25V35H5ZM18.3333 21.6667C18.8056 21.6667 19.2017 21.5067 19.5217 21.1867C19.8417 20.8667 20.0011 20.4711 20 20C19.9989 19.5289 19.8389 19.1333 19.52 18.8133C19.2011 18.4933 18.8056 18.3333 18.3333 18.3333C17.8611 18.3333 17.4656 18.4933 17.1467 18.8133C16.8278 19.1333 16.6678 19.5289 16.6667 20C16.6656 20.4711 16.8256 20.8672 17.1467 21.1883C17.4678 21.5094 17.8633 21.6689 18.3333 21.6667ZM11.6667 31.6667H21.6667V8.33333H11.6667V31.6667Z" fill="#FF636D"/>
</svg>