<svg xmlns="http://www.w3.org/2000/svg" width="164" height="64" viewBox="0 0 164 64" fill="none">
  <path d="M115.665 42.0752C116.932 42.0627 118.18 42.3871 119.281 43.0152C120.322 43.619 121.184 44.4886 121.779 45.5352C122.428 46.6652 122.748 47.9452 122.728 49.2552C122.744 50.5369 122.42 51.8001 121.789 52.9152C121.2 54.0025 120.308 54.8953 119.221 55.4852C118.139 56.1052 116.913 56.4314 115.665 56.4314C114.418 56.4314 113.192 56.1052 112.109 55.4852C111.026 54.8938 110.138 54.0011 109.552 52.9152C108.916 51.801 108.589 50.5378 108.602 49.2552C108.583 47.9552 108.902 46.6652 109.552 45.5352C110.155 44.4746 111.04 43.6023 112.109 43.0152C113.185 42.3804 114.416 42.0551 115.665 42.0752ZM104.886 43.5452C106.057 44.5194 106.855 45.8691 107.144 47.3652H103.588C103.352 46.7304 102.908 46.1945 102.329 45.8452C101.76 45.4452 101.08 45.2452 100.391 45.2652C99.472 45.2352 98.5929 45.6452 98.0335 46.3652C97.3842 47.1852 97.0445 48.2052 97.0945 49.2552C97.0357 50.3143 97.3702 51.3579 98.0335 52.1852C98.6229 52.8852 99.492 53.2652 100.391 53.2352C101.07 53.265 101.742 53.084 102.314 52.717C102.886 52.3501 103.331 51.815 103.588 51.1852H107.144C106.84 52.6617 106.044 53.991 104.886 54.9552C103.612 55.9262 102.042 56.4278 100.441 56.3752C99.1947 56.4152 97.9623 56.1033 96.8847 55.4752C95.8441 54.9292 95.0172 54.0486 94.5371 52.9752C93.9335 51.8292 93.6245 50.5507 93.6381 49.2552C93.6243 47.9756 93.9336 46.7132 94.5371 45.5852C95.0154 44.508 95.8424 43.6237 96.8847 43.0752C97.9623 42.447 99.1947 42.1351 100.441 42.1752C102.039 42.1152 103.608 42.5952 104.886 43.5452ZM85.5965 42.0752C87.1727 42.0375 88.7116 42.5581 89.9419 43.5452C91.126 44.5062 91.924 45.8625 92.1896 47.3652H88.6333C88.4001 46.7467 87.9814 46.2157 87.4345 45.8452C86.8412 45.4568 86.1455 45.2548 85.4366 45.2652C84.5276 45.2452 83.6485 45.6452 83.0891 46.3652C82.4297 47.1852 82.0901 48.2052 82.1401 49.2552C82.0841 50.3156 82.4222 51.3593 83.0891 52.1852C83.6784 52.8652 84.5375 53.2452 85.4366 53.2352C86.1309 53.2447 86.8119 53.0447 87.391 52.6612C87.9701 52.2777 88.4204 51.7285 88.6832 51.0852H92.2395C91.9488 52.6086 91.1145 53.9741 89.8922 54.9272C88.67 55.8803 87.1431 56.3558 85.5965 56.2652C84.3354 56.3065 83.0875 55.9985 81.9902 55.3752C80.967 54.7989 80.1443 53.923 79.6327 52.8652C79.0498 51.7138 78.7615 50.4356 78.7935 49.1452C78.7613 47.8707 79.0499 46.6087 79.6327 45.4752C80.146 44.421 80.9685 43.5488 81.9902 42.9752C83.0865 42.3483 84.3345 42.0369 85.5965 42.0752ZM163.176 42.1252V44.8552H159.36V56.2652H155.963V45.0052H152.247V42.1252H163.176ZM141.778 42.1252L147.432 50.8252V42.1252H150.829V56.2652H147.432L141.778 47.6752V56.2752H138.381V42.1152H141.778V42.1252ZM127.922 42.1252V50.1952C127.875 50.9588 128.094 51.7153 128.542 52.3352C129.001 52.8352 129.651 53.1052 130.33 53.0752C131.009 53.1052 131.678 52.8452 132.158 52.3352C132.61 51.7166 132.832 50.96 132.787 50.1952V42.1252H136.134V50.1952C136.163 51.3542 135.912 52.5032 135.405 53.5452C134.9 54.4179 134.154 55.1262 133.257 55.5852C132.325 56.0273 131.306 56.2567 130.275 56.2567C129.244 56.2567 128.225 56.0273 127.293 55.5852C126.451 55.1035 125.759 54.3973 125.295 53.5452C124.761 52.5123 124.51 51.3566 124.566 50.1952V42.1252H127.922ZM72.8797 42.3852L78.1043 56.2652H74.508L73.3592 53.7052H68.1147L67.2755 56.2652H63.7192L68.9538 42.3852H72.8697H72.8797ZM113.058 46.3152C112.703 46.7132 112.432 47.1786 112.26 47.6836C112.088 48.1887 112.02 48.7231 112.059 49.2552C112.001 50.3244 112.359 51.3746 113.058 52.1852C113.766 52.8532 114.702 53.2252 115.675 53.2252C116.648 53.2252 117.584 52.8532 118.292 52.1852C118.991 51.3746 119.349 50.3244 119.291 49.2552C119.35 48.1913 119.012 47.1436 118.342 46.3152C118.003 45.9503 117.589 45.6632 117.129 45.4733C116.668 45.2834 116.173 45.1954 115.675 45.2152C115.185 45.1918 114.695 45.2784 114.242 45.4687C113.789 45.659 113.385 45.9482 113.058 46.3152ZM70.7419 45.8952L69.0137 51.1352H72.5101L70.7419 45.8952ZM110.76 25.6352C111.205 26.0109 111.569 26.4732 111.83 26.9941C112.091 27.5149 112.244 28.0835 112.279 28.6652H108.403C108.513 28.2952 108.513 27.8952 108.403 27.5152C108.103 27.2452 107.703 27.1152 107.304 27.1552C106.944 27.1352 106.605 27.2552 106.305 27.4652C106.065 27.7152 105.935 28.0652 105.945 28.4052C105.965 28.7252 106.095 29.0152 106.315 29.2452C106.535 29.4752 106.804 29.6552 107.094 29.7652L108.563 30.3452C109.302 30.5752 110.021 30.8752 110.71 31.2352C111.3 31.5352 111.809 31.9952 112.169 32.5352C112.608 33.1952 112.828 33.9652 112.798 34.7352C112.736 35.5219 112.444 36.2729 111.959 36.8952C111.577 37.5327 111.014 38.0413 110.341 38.3552C109.512 38.7552 108.592 38.9552 107.673 38.9352C106.288 39.0069 104.92 38.601 103.797 37.7852C103.296 37.4125 102.886 36.931 102.597 36.3767C102.308 35.8225 102.148 35.21 102.129 34.5852H105.735C105.755 35.0652 105.955 35.5152 106.315 35.8452C106.655 36.1152 107.074 36.2652 107.514 36.2652C107.903 36.2852 108.283 36.1652 108.563 35.8952C108.832 35.6552 108.962 35.3052 108.932 34.9552C108.932 34.5552 108.732 34.1852 108.403 33.9552C108.157 33.7244 107.877 33.5323 107.574 33.3852L106.155 32.8552L103.957 31.9652C103.395 31.6674 102.912 31.2387 102.549 30.7152C102.11 30.0677 101.89 29.2969 101.919 28.5152C101.959 27.7452 102.229 27.0152 102.699 26.4152C103.161 25.7961 103.777 25.3098 104.487 25.0052C105.286 24.6752 106.165 24.5052 107.044 24.5352C108.371 24.4736 109.68 24.8611 110.76 25.6352ZM92.0298 24.6852V32.7552C91.9827 33.5234 92.2053 34.2839 92.6591 34.9052C93.1086 35.4052 93.7579 35.6652 94.4372 35.6352C95.1265 35.6652 95.7958 35.4052 96.2653 34.9052C96.7192 34.2839 96.9418 33.5234 96.8947 32.7552V24.6852H100.241V32.7552C100.287 33.9216 100.018 35.0788 99.462 36.1052C98.9857 36.9825 98.2541 37.694 97.3642 38.1452C96.4451 38.6152 95.4162 38.8452 94.3873 38.8252C93.3495 38.8627 92.3199 38.6283 91.4004 38.1452C90.5432 37.687 89.8488 36.9743 89.4125 36.1052C88.8743 35.074 88.6224 33.917 88.6832 32.7552V24.6852H92.0298ZM81.9403 24.6852C82.9092 24.6752 83.8683 24.8652 84.7573 25.2652C85.4466 25.6552 86.036 26.1852 86.4855 26.8352C86.8751 27.5352 87.0649 28.3352 87.0649 29.1352C87.0649 30.0652 86.7752 30.9652 86.2258 31.7052C85.596 32.459 84.7299 32.9771 83.7684 33.1752L87.0649 38.6752H83.3488L80.312 33.4352H79.5328V38.6752H76.1763V24.6852H81.9303H81.9403ZM124.466 24.6852V27.4152H120.65V38.6752H117.253V27.4152H113.637V24.6852H124.466ZM74.7677 24.6852V27.4152H70.9517V38.6752H67.5552V27.4152H63.8191V24.6852H74.7478H74.7677ZM81.6705 27.5652H79.5328V31.0752H81.6705C82.1936 31.1069 82.7117 30.9587 83.139 30.6552C83.7684 29.9052 83.7684 28.7952 83.139 28.0452C82.7294 27.7052 82.2 27.5452 81.6705 27.5652ZM72.8198 7.99516C73.2887 8.36617 73.6718 8.83452 73.9425 9.36796C74.2133 9.9014 74.3653 10.4873 74.3881 11.0852H70.7319C70.712 10.6652 70.5222 10.2652 70.2025 9.98516C70.0653 9.83353 69.8942 9.71647 69.7033 9.64349C69.5123 9.57051 69.3069 9.54367 69.1036 9.56516C68.764 9.56516 68.4343 9.66516 68.1646 9.87516C67.8949 10.1152 67.765 10.4752 67.805 10.8252C67.805 11.1252 67.9049 11.4252 68.1047 11.6552C68.3544 11.8952 68.6341 12.0752 68.9538 12.1852L70.3623 12.7552L72.56 13.6552C73.1394 13.9652 73.6389 14.4152 74.0285 14.9552C74.468 15.6052 74.6878 16.3752 74.6578 17.1552C74.6778 17.8652 74.518 18.5752 74.1783 19.2052C73.7788 19.8452 73.1994 20.3552 72.5101 20.6652C71.6809 21.0652 70.7619 21.2652 69.8429 21.2452C68.4595 21.3005 67.0967 20.8961 65.9669 20.0952C65.4799 19.7126 65.0827 19.2278 64.8031 18.6749C64.5235 18.122 64.3683 17.5145 64.3486 16.8952H67.9049C67.9448 17.3752 68.1446 17.8152 68.4843 18.1552C68.8339 18.4452 69.2834 18.5852 69.733 18.5752C70.0926 18.5952 70.4522 18.4852 70.7319 18.2552C71.0017 17.9952 71.1515 17.6352 71.1515 17.2552C71.1295 16.9288 70.9995 16.6192 70.7819 16.3752C70.5233 16.1964 70.2408 16.055 69.9428 15.9552L68.4843 15.4252C67.815 15.1252 67.1657 14.7752 66.5463 14.3852C65.9537 14.1148 65.4559 13.6723 65.1178 13.1152C64.5649 12.4394 64.2709 11.5884 64.2886 10.7152C64.2687 9.94516 64.4884 9.19516 64.908 8.55516C65.3575 8.04516 65.907 7.63516 66.5363 7.35516C67.3506 7.03512 68.2189 6.87553 69.0936 6.88516C70.4227 6.80562 71.7376 7.19485 72.8098 7.98516L72.8198 7.99516ZM97.9336 8.41516C99.0969 9.37284 99.8915 10.7056 100.181 12.1852H96.625C96.3576 11.5591 95.9117 11.0259 95.3431 10.6524C94.7745 10.2788 94.1084 10.0815 93.4283 10.0852C92.5192 10.0552 91.6302 10.4652 91.0807 11.1852C90.4234 12.0195 90.0898 13.0638 90.1417 14.1252C90.0897 15.1682 90.4241 16.1937 91.0807 17.0052C91.357 17.364 91.7154 17.6513 92.1256 17.8427C92.5359 18.0341 92.986 18.1241 93.4383 18.1052C94.8168 18.1052 96.0755 17.2852 96.625 16.0052H100.181C99.8944 17.4998 99.1004 18.8494 97.9336 19.8252C96.6591 20.7962 95.0891 21.2978 93.4882 21.2452C92.2384 21.2704 91.0064 20.9448 89.9319 20.3052C88.8744 19.7367 88.0167 18.8571 87.4745 17.7852C86.9154 16.6356 86.6249 15.3737 86.6249 14.0952C86.6249 12.8166 86.9154 11.5547 87.4745 10.4052C88.0008 9.34188 88.8367 8.46326 89.872 7.88516C90.9535 7.25865 92.1896 6.95018 93.4383 6.99516C95.0561 6.9309 96.6457 7.43303 97.9336 8.41516ZM105.466 7.10516V15.1652C105.41 15.9343 105.633 16.6978 106.095 17.3152C106.545 17.8152 107.194 18.0852 107.873 18.0452C108.563 18.0852 109.232 17.8152 109.701 17.3152C110.163 16.6978 110.387 15.9343 110.331 15.1652V7.09516H113.627V15.1552C113.662 16.3148 113.412 17.4653 112.898 18.5052C112.395 19.3816 111.649 20.0935 110.75 20.5552C109.831 21.0252 108.802 21.2552 107.763 21.2352C106.73 21.2638 105.705 21.0298 104.786 20.5552C103.917 20.1091 103.218 19.3887 102.799 18.5052C102.26 17.474 102.008 16.317 102.069 15.1552V7.09516H105.466V7.10516ZM85.3267 7.10516V9.82516H79.9923V12.7552H84.6974V15.2752H79.9923V18.4152H85.2168V21.1952H76.6458V7.08516H85.3267V7.10516ZM124.506 7.67516C125.215 8.03516 125.815 8.57516 126.234 9.25516C126.614 9.95516 126.814 10.7552 126.814 11.5552C126.843 12.4852 126.554 13.3952 125.974 14.1252C125.352 14.8853 124.482 15.4022 123.517 15.5852L126.863 21.1852H123.097L120.111 15.9552H119.331V21.1952H115.935V7.08516H121.729C122.688 7.06516 123.637 7.26516 124.506 7.66516V7.67516ZM137.223 7.10516V9.82516H131.888V12.7552H136.593V15.2752H131.888V18.4152H137.113V21.1952H128.532V7.08516H137.223V7.10516ZM121.419 10.2452H119.321V13.5952H121.419C121.949 13.6552 122.478 13.5052 122.888 13.1752C123.217 12.8252 123.387 12.3552 123.357 11.8752C123.357 11.4352 123.177 11.0252 122.888 10.7152C122.488 10.3652 121.959 10.1952 121.419 10.2452Z" fill="white"/>
  <path fill-rule="evenodd" clip-rule="evenodd" d="M25.7377 60.1966C33.8792 60.1966 40.4823 60.8966 40.4823 61.7666C40.4823 62.6366 33.8892 63.3366 25.7377 63.3366H25.3381C17.3664 63.3166 10.983 62.6166 10.983 61.7666C10.983 60.8966 17.5862 60.1966 25.7377 60.1966ZM27.4559 0.236621L47.0355 6.15662C48.3454 6.5746 49.4949 7.38626 50.3278 8.48124C51.1607 9.57623 51.6366 10.9014 51.6906 12.2766C51.8205 15.4266 51.7106 18.5766 51.381 21.7066C50.9495 25.9007 50.0137 30.0272 48.5939 33.9966C47.0435 38.8556 44.4186 43.302 40.9146 47.0053C37.4106 50.7086 33.1176 53.5734 28.355 55.3866C26.8566 55.9626 25.1982 55.9626 23.6998 55.3866C18.9374 53.5767 14.6438 50.7156 11.1381 47.0158C7.63245 43.3161 5.00493 38.8729 3.45089 34.0166C2.0321 30.0371 1.09961 25.9004 0.673788 21.6966C0.339651 18.5651 0.236146 15.4133 0.36411 12.2666C0.464006 9.42662 2.36203 6.96662 5.06921 6.14662L24.5789 0.236621C25.512 -0.0788737 26.5228 -0.0788737 27.4559 0.236621ZM25.5279 3.37662L6.00823 9.34662C5.34487 9.55392 4.76243 9.9628 4.34175 10.5165C3.92108 11.0702 3.68304 11.7413 3.66068 12.4366C3.32205 19.3641 4.29829 26.2931 6.53768 32.8566C7.95706 37.2621 10.3425 41.2941 13.5193 44.6577C16.6962 48.0213 20.5841 50.6312 24.8986 52.2966C25.6278 52.5566 26.417 52.5566 27.1462 52.2966C31.4596 50.6323 35.3469 48.0238 38.5237 44.6621C41.7004 41.3003 44.0864 37.2702 45.5071 32.8666C47.7465 26.3031 48.7227 19.3741 48.3841 12.4466C48.361 11.7501 48.1215 11.0781 47.699 10.5242C47.2764 9.97034 46.6918 9.5622 46.0265 9.35662L26.5169 3.37662C26.1972 3.27662 25.8476 3.27662 25.5179 3.37662H25.5279Z" fill="white"/>
  <path fill-rule="evenodd" clip-rule="evenodd" d="M26.9973 14.3779C28.0818 14.3511 29.1629 14.5101 30.194 14.8479C31.093 15.1679 31.8922 15.7079 32.5415 16.4179C33.0996 16.9091 33.5468 17.5136 33.8534 18.1912C34.16 18.8688 34.3189 19.604 34.3197 20.3479C34.3097 20.8479 34.0999 21.3079 33.7403 21.6479C33.3706 22.0279 32.8612 22.2479 32.3317 22.2279C31.3627 22.2679 30.5336 21.5679 30.3937 20.6079C30.194 19.7279 29.7944 18.9179 29.195 18.2479C28.9222 17.9917 28.5995 17.7946 28.2472 17.669C27.8948 17.5433 27.5203 17.4919 27.1471 17.5179C26.2381 17.3979 25.319 17.7179 24.6897 18.4079C24.4002 18.7254 24.1776 19.098 24.0352 19.5034C23.8927 19.9089 23.8333 20.339 23.8606 20.7679C23.8066 21.3066 23.8066 21.8493 23.8606 22.3879C23.8606 22.8579 24.1702 23.6479 24.4799 24.6379H26.7376C27.3769 24.5379 28.0362 24.5379 28.6655 24.6379C28.8482 24.6256 29.0313 24.6553 29.2007 24.7247C29.3702 24.7942 29.5214 24.9016 29.643 25.0387C29.7645 25.1758 29.853 25.339 29.9018 25.5156C29.9505 25.6923 29.9582 25.8778 29.9242 26.0579C29.9342 26.4579 29.7644 26.8479 29.4547 27.0979C29.1251 27.3579 28.7155 27.4979 28.3059 27.4679H25.4289C25.4801 28.5472 25.2237 29.6189 24.6897 30.5579C24.0355 31.7285 23.2477 32.8192 22.3421 33.8079H25.7386C26.6802 33.7532 27.6241 33.7532 28.5656 33.8079C29.3648 33.8479 30.164 33.8479 30.9632 33.8079C31.5925 33.7979 32.2119 33.6879 32.8012 33.4879L34.0599 33.1779C34.4795 33.1979 34.8691 33.3879 35.1588 33.6979C35.5084 34.0379 35.6982 34.5179 35.6782 35.0079C35.6621 35.4135 35.5316 35.8063 35.3018 36.1408C35.0719 36.4752 34.7522 36.7377 34.3796 36.8979C33.4406 37.3579 32.4216 37.5879 31.3827 37.5779C29.4947 37.3479 27.6266 36.9779 25.7885 36.4779H25.4289L24.6897 36.2679H23.6907C23.3151 36.1906 22.9276 36.1906 22.5519 36.2679L20.8737 36.8979C20.3842 37.1579 19.8547 37.3379 19.3053 37.4179C18.8718 37.3908 18.4631 37.2059 18.1565 36.8979C17.9751 36.7106 17.8345 36.4877 17.7433 36.2434C17.6522 35.999 17.6126 35.7384 17.627 35.4779C17.5846 35.2532 17.5846 35.0226 17.627 34.7979L18.2564 34.0179L19.565 32.8579C20.1145 32.3279 20.544 31.6879 20.8237 30.9779C21.1734 30.2579 21.3532 29.4779 21.3432 28.6779C21.3731 28.2179 21.3731 27.7679 21.3432 27.3079H20.0845C19.5351 27.4379 18.9657 27.4379 18.4162 27.3079C18.2201 27.2045 18.0598 27.044 17.9563 26.8477C17.8529 26.6514 17.8113 26.4284 17.8368 26.2079C17.8368 25.2079 18.4662 24.7479 19.7748 24.7479H20.6739C20.2406 23.5353 19.9914 22.2645 19.9346 20.9779C19.8775 19.8101 20.1642 18.6512 20.7591 17.645C21.354 16.6388 22.231 15.8296 23.2812 15.3179C24.4338 14.7297 25.7039 14.4085 26.9973 14.3779Z" fill="#FEDC07"/>
</svg>