<svg xmlns="http://www.w3.org/2000/svg" width="61" height="61" viewBox="0 0 61 61" fill="none">
  <path d="M0.473714 25.1477C1.89113 17.1941 6.40665 10.1278 13.0291 5.4999C19.6516 0.871981 27.8398 -0.939389 35.7965 0.463386L35.9871 0.501509C41.9154 1.58566 47.3896 4.40166 51.7187 8.59407C56.0478 12.7865 59.0378 18.1673 60.3113 24.0575C61.5848 29.9476 61.0846 36.083 58.8739 41.6891C56.6633 47.2953 52.8413 52.1209 47.8903 55.5569C42.9393 58.9928 37.0813 60.8851 31.0557 60.9949C25.0301 61.1047 19.107 59.4271 14.0341 56.1737C8.96123 52.9204 4.96592 48.2372 2.55248 42.7153C0.139052 37.1934 -0.584306 31.0804 0.473714 25.1477ZM48.8543 8.58349C45.0166 5.37115 40.4015 3.22453 35.4721 2.35905C30.5427 1.49357 25.4723 1.93965 20.7698 3.65254C16.0672 5.36544 11.8979 8.28489 8.68016 12.118C5.4624 15.951 3.30938 20.5629 2.43715 25.4908C1.13451 32.9236 2.83334 40.5696 7.16098 46.7515C11.4886 52.9335 18.0917 57.1466 25.5218 58.4669H25.579C31.7572 59.5606 38.1237 58.585 43.6909 55.6914C49.258 52.7978 53.7145 48.148 56.3691 42.4634C59.0238 36.7787 59.7281 30.3769 58.3727 24.2511C57.0174 18.1253 53.6783 12.618 48.8734 8.58349H48.8543ZM35.2818 50.8424C35.2246 51.1473 35.2056 51.5095 35.1674 51.8335H35.034C34.8359 51.5948 34.584 51.4065 34.2991 51.2839C34.0141 51.1613 33.7042 51.108 33.3946 51.1283C31.8506 51.2808 31.374 52.8057 31.4884 54.1781C31.66 55.7792 32.5368 56.7895 33.9665 56.656C34.6146 56.5798 35.1865 56.2748 35.5678 55.8173L35.7012 55.8555L35.5678 56.656C35.0531 57.0182 34.4049 57.1898 33.7568 57.2469C31.7743 57.4376 30.1349 56.3892 29.9443 54.464C29.7346 52.0242 31.2978 50.7661 33.3374 50.5755C33.9474 50.4993 34.7099 50.5755 35.2818 50.8424ZM25.4837 50.3468L28.9912 50.9377L28.8768 51.3189V51.7382C28.2096 51.5286 27.5424 51.357 26.8371 51.2617H26.7418L26.4178 53.225L27.3709 53.4156C27.8093 53.4728 28.1906 53.4919 28.5337 53.5109L28.4003 53.8922V54.3115C28.0454 54.1904 27.6822 54.0948 27.3137 54.0256H27.2756L26.3225 53.854L25.9221 56.1795C26.8753 56.332 27.4853 56.4082 28.0762 56.4082L27.9428 56.8085V57.2088L24.4162 56.637L25.4837 50.3468ZM40.219 48.6312L40.3143 49.0125L40.5049 49.3746C40.0284 49.489 39.5899 49.6034 39.1896 49.7559L38.9037 49.8512L41.0006 55.1883L40.3524 55.4171L39.6853 55.703L37.5884 50.3658C36.9593 50.6136 36.4446 50.8995 36.0253 51.1283L35.9299 50.747L35.7393 50.4039L40.219 48.6312ZM20.1081 48.25L24.5306 50.1752C24.4543 50.2896 24.3781 50.4039 24.34 50.5183L24.2256 50.8995C23.7774 50.6177 23.3127 50.3631 22.834 50.1371L22.7387 50.118L20.4512 55.3789L19.8221 55.074C19.6125 54.9596 19.3837 54.8833 19.174 54.8452L21.4615 49.5652C21.004 49.3556 20.4512 49.184 19.8793 49.0315L19.8031 48.9934L20.0128 48.6503L20.1081 48.2691V48.25ZM43.9362 46.0389C44.0124 46.1533 44.0506 46.2867 44.1268 46.382L44.3937 46.687C43.8981 46.9729 43.3262 47.2779 42.5637 47.8307L43.7074 49.489L44.5081 48.9172C44.8512 48.6694 45.1562 48.4216 45.404 48.1738L45.6137 48.555C45.6856 48.6649 45.7759 48.7616 45.8806 48.8409C45.5565 48.9934 45.2324 49.2031 44.8703 49.4318L44.1078 50.0037L45.4612 51.9479C46.2237 51.3761 46.7193 50.9567 47.1387 50.5755L47.3293 50.9567L47.6153 51.2426L44.6987 53.2822L41.0196 48.0785L43.9362 46.0389ZM17.2106 45.8102C19.1931 47.5257 18.545 49.5081 17.5918 50.5755C16.41 51.967 14.3321 52.1957 12.5975 50.6899C11.0343 49.3365 10.8056 47.5066 12.1971 45.9245C13.4171 44.514 15.4378 44.2853 17.2106 45.8102ZM13.1693 47.1445C12.4068 48.0403 11.9493 49.3937 12.9978 50.3086C14.0843 51.2426 15.5331 50.5946 16.5625 49.4318C17.325 48.5169 17.8396 47.1063 16.7721 46.1723C15.8 45.3527 14.58 45.5624 13.1693 47.1254V47.1445ZM50.9703 42.4935C52.6096 43.7897 52.6859 45.7339 51.504 47.2398L49.8646 49.2793L44.8512 45.3527L46.8528 42.8366V42.8176C48.149 41.2926 49.7503 41.5405 50.9703 42.4935ZM46.7193 43.8659L46.1474 44.5903L50.3031 47.8307H50.3221L50.7987 47.2207C51.5993 46.2105 51.7137 45.0477 49.9981 43.6944C48.6065 42.6079 47.5581 42.8176 46.7193 43.8659ZM11.7015 38.8909V38.9291L12.6928 40.6255C12.9215 41.0067 13.2837 41.5786 13.3028 42.017V42.1695C13.3072 42.4224 13.2397 42.6713 13.1081 42.8873C12.9765 43.1033 12.7861 43.2774 12.5593 43.3894C11.7968 43.8659 10.9771 43.6562 10.3862 43.0082C9.87152 43.885 9.41402 44.819 8.95652 45.7339L8.63246 46.3439L8.23215 45.5814L7.77465 44.8952L8.9184 42.9319L9.49027 41.9026L9.45215 41.8454L6.85965 43.3703L6.55465 42.7413C6.44027 42.5126 6.28777 42.341 6.1734 42.1504L11.7015 38.91V38.8909ZM21.1946 10.1465L26.0365 11.0043L25.8078 11.4617C22.3765 17.9426 22.5671 24.9953 28.2859 30.9424C29.903 32.568 31.8245 33.8592 33.9407 34.7422C36.0569 35.6253 38.3263 36.0829 40.6193 36.0889H41.0387C41.7249 36.0889 42.1253 36.0508 42.1253 36.0508L40.4668 45.2574L15.7428 40.9114L21.1946 10.1465ZM11.9875 40.3968L9.79527 41.6548C10.2337 42.5316 10.8818 42.7604 11.7015 42.2457C11.854 42.1695 11.9875 42.0742 12.0828 41.9598C12.6737 41.4451 12.2734 40.8733 11.9875 40.3968ZM36.5018 37.8807L35.9871 40.8352L40.1237 41.5786L40.2381 41.0258L37.3215 40.5302L37.7599 38.0904L36.5018 37.8807ZM30.7831 37.1182C30.135 37.3088 29.7537 37.7282 29.6393 38.3382C29.5631 38.9481 29.7918 39.4818 30.3446 39.9012C30.7259 40.2443 31.374 40.5111 32.1937 40.6827C33.0706 40.8733 33.7187 40.8733 34.1953 40.6827C34.8624 40.473 35.2246 40.0727 35.32 39.4628C35.3962 38.8528 35.1865 38.3191 34.6337 37.8997C34.0843 37.4939 33.4421 37.2318 32.7656 37.1373C31.9268 36.9467 31.2596 36.9467 30.7831 37.1373V37.1182ZM32.6893 37.7282C33.1087 37.7854 33.4899 37.976 33.7949 38.2619C34.0237 38.5288 34.1381 38.8719 34.0618 39.215C34.05 39.3833 33.9945 39.5456 33.9009 39.6859C33.8074 39.8263 33.6789 39.9399 33.5281 40.0155C33.1351 40.1785 32.699 40.2053 32.289 40.0918C31.8822 40.0246 31.5043 39.8389 31.2025 39.5581C31.0716 39.4324 30.9748 39.2754 30.9215 39.102C30.8681 38.9286 30.8598 38.7444 30.8974 38.5669C30.921 38.402 30.9858 38.2457 31.0857 38.1124C31.1857 37.9792 31.3176 37.8732 31.4693 37.8044C31.8506 37.6138 32.289 37.6138 32.6893 37.7282ZM24.664 35.7649L24.5496 36.2795L26.3415 36.6226L25.9031 39.0434L27.1231 39.2722L27.5615 36.8323L29.3153 37.1373L29.4296 36.6226L24.664 35.7649ZM20.9087 35.1168L18.2971 37.7091L19.5553 37.9188L20.07 37.3851L22.2621 37.7663L22.529 38.4335L23.8634 38.6813L22.3003 35.3455L20.9087 35.1168ZM10.1765 33.9731L10.7865 36.1652C11.1296 37.4232 10.7865 38.2238 9.77621 38.5097C8.17496 38.9481 7.50777 37.8616 7.05027 36.2414L4.36246 36.9848L4.20996 36.3177C4.15278 36.0699 4.05746 35.8792 3.98121 35.6315L10.1765 33.9541V33.9731ZM10.0621 35.4408L7.56496 36.0889V36.108L7.77465 36.6798C8.09871 37.2135 8.68965 37.3088 9.24246 37.1564C9.94777 36.9467 10.329 36.4701 10.2146 35.9746L10.0621 35.4408ZM21.4806 35.9174L21.9953 37.1945L20.5084 36.9276L21.4615 35.9174H21.4806ZM37.0737 12.9295L45.9568 14.4925L42.3731 34.6021C42.3731 34.6021 35.3771 34.5259 31.8887 27.6066C27.104 18.076 37.0737 12.9295 37.0737 12.9295ZM43.8599 6.84892C44.4318 6.96328 44.9465 7.32545 45.2324 7.8401C45.5565 8.41194 45.6137 9.23158 45.4231 10.3181C45.2324 11.4236 44.8703 12.2242 44.3746 12.6054C43.879 13.0438 43.2309 13.1963 42.6018 13.0629C42.182 13.0111 41.7956 12.8078 41.5153 12.4911C41.2974 12.2104 41.165 11.8729 41.134 11.5189V11.2521L42.3349 11.3093V11.4427C42.3349 11.6333 42.3731 11.7667 42.4493 11.8811C42.5446 12.0336 42.6971 12.1098 42.8878 12.148H43.0021C43.1049 12.1491 43.2069 12.1294 43.3019 12.0901C43.3969 12.0508 43.483 11.9926 43.5549 11.9192C43.7646 11.7286 43.9553 11.2711 44.1268 10.5849C43.9643 10.7333 43.7694 10.8416 43.5575 10.9012C43.3457 10.9608 43.1228 10.97 42.9068 10.928C42.6733 10.882 42.4522 10.7868 42.2583 10.6488C42.0644 10.5108 41.9021 10.333 41.7821 10.1275C41.4962 9.66998 41.4009 9.11721 41.5153 8.60255C41.5915 8.03071 41.8965 7.53512 42.3349 7.19202C42.5519 7.03359 42.8 6.92282 43.0628 6.86698C43.3256 6.81113 43.5973 6.81147 43.8599 6.86798V6.84892ZM39.6662 6.12459L40.6574 6.3152L39.9712 10.1656L40.7337 10.3181L40.5431 11.3283L39.7806 11.2139L39.5518 12.4339L38.4271 12.2051L38.6368 11.0043L36.1396 10.5659L36.3303 9.53656L39.6662 6.12459ZM33.1849 5.09528L36.3112 5.66712L36.1015 6.73455L33.9093 6.35332L33.5281 7.34451C34.2906 7.11577 35.1293 7.42075 35.5678 8.10696C35.8918 8.56443 36.0062 9.13627 35.8728 9.68905C35.7965 10.1656 35.5487 10.604 35.2056 10.928C34.729 11.4046 34.0237 11.5952 33.3756 11.4427H33.3946C32.8872 11.3819 32.4195 11.1378 32.0793 10.7565C31.7755 10.3809 31.6256 9.90402 31.66 9.42219L32.8799 9.49843C32.8418 9.76529 32.9181 10.0131 33.0515 10.1846C33.1151 10.2802 33.1986 10.361 33.2962 10.4215C33.3938 10.482 33.5032 10.5208 33.6171 10.5352C33.731 10.5497 33.8467 10.5395 33.9564 10.5053C34.066 10.4711 34.167 10.4138 34.2524 10.3371C34.4621 10.1465 34.5956 9.87966 34.6718 9.46031C34.7301 9.16963 34.6898 8.86783 34.5574 8.60255C34.4945 8.49458 34.4092 8.40131 34.3073 8.32899C34.2054 8.25666 34.0892 8.20696 33.9665 8.1832H33.7378C33.4518 8.1832 33.1659 8.29757 32.9753 8.48818L32.0412 8.1832L33.1849 5.09528ZM29.7537 4.39001L30.7068 4.5425L29.6203 10.6802L28.4575 10.4706L29.2199 6.0674C28.7243 6.39144 28.1715 6.58206 27.5615 6.67736L27.7521 5.60993C28.1715 5.55275 28.5337 5.40026 28.8387 5.22871C29.2199 5.03809 29.544 4.73311 29.7537 4.39001ZM43.0212 7.95447C42.8496 8.10696 42.7353 8.39288 42.6781 8.79317C42.5828 9.17439 42.6018 9.47937 42.7353 9.70811C42.7905 9.80399 42.8658 9.88671 42.9562 9.95053C43.0466 10.0143 43.1498 10.0577 43.2586 10.0777C43.3674 10.0976 43.4793 10.0937 43.5864 10.0661C43.6935 10.0384 43.7934 9.98785 43.879 9.91778C44.086 9.71215 44.22 9.44433 44.2603 9.15533C44.3463 8.84303 44.3123 8.50981 44.1649 8.22133C44.1113 8.11358 44.0335 8.01968 43.9376 7.94694C43.8417 7.87421 43.7303 7.8246 43.6121 7.80198C43.5115 7.78169 43.4075 7.7849 43.3084 7.81135C43.2092 7.83779 43.1174 7.88677 43.0403 7.95447H43.0212ZM39.2087 7.87822L37.4168 9.72717L38.8465 9.9559L39.2278 7.85916L39.2087 7.87822ZM25.4646 3.62756L26.4178 3.81817L25.3312 9.91778V9.93684L24.1493 9.72717L24.95 5.30495C24.4455 5.63866 23.872 5.85372 23.2725 5.93397L23.4821 4.84748C23.8634 4.7903 24.2446 4.65687 24.5687 4.46626C24.95 4.27564 25.2549 4.00878 25.4646 3.62756Z" fill="white"/>
</svg>