<svg xmlns="http://www.w3.org/2000/svg" width="46" height="46" viewBox="0 0 46 46" fill="none">
  <path d="M23.9349 13.0155C23.5447 12.625 22.9118 12.625 22.521 13.0155C22.1305 13.4057 22.1305 14.039 22.521 14.4294L30.0935 22.0019H13.6832C13.1294 22.0019 12.6802 22.4512 12.6802 23.005C12.6802 23.5591 13.1294 24.008 13.6832 24.008H30.0834L22.5109 31.5805C22.3231 31.7677 22.2175 32.0225 22.2175 32.2876C22.2175 32.5531 22.3231 32.8072 22.5109 32.9947C22.6988 33.1842 22.9561 33.2891 23.2231 33.2856C23.4891 33.2844 23.7445 33.1801 23.9349 32.9947L33.2125 23.7174C33.4013 23.5283 33.5066 23.2717 33.5037 23.005C33.5019 22.7389 33.3976 22.4844 33.2125 22.2931L23.9349 13.0155Z" fill="#FFFEFE"/>
  <path d="M23.0109 1.44147C14.289 1.4399 6.42529 6.69348 3.08761 14.7516C-0.249432 22.8101 1.59642 32.0852 7.7657 38.2508C16.1857 46.6708 29.8368 46.6708 38.2565 38.2508C46.6762 29.8313 46.6762 16.1803 38.2565 7.76027C34.2221 3.70292 28.7326 1.42765 23.0109 1.44147ZM23.0109 42.5638C12.2289 42.5638 3.45295 33.7875 3.45295 23.0055C3.45295 12.2235 12.2289 3.44753 23.0109 3.44753C33.793 3.44753 42.5692 12.2235 42.5692 23.0055C42.5692 33.7875 33.793 42.5638 23.0109 42.5638Z" fill="#FFFEFE"/>
</svg>