<svg xmlns="http://www.w3.org/2000/svg" width="41" height="40" viewBox="0 0 41 40" fill="none">
  <g clip-path="url(#clip0_253_5548)">
    <path d="M25.5 12.5C26.4889 12.5 27.4556 12.2068 28.2778 11.6574C29.1001 11.1079 29.741 10.327 30.1194 9.41342C30.4978 8.49979 30.5969 7.49446 30.4039 6.52455C30.211 5.55465 29.7348 4.66373 29.0355 3.96447C28.3363 3.26521 27.4454 2.789 26.4755 2.59608C25.5055 2.40315 24.5002 2.50217 23.5866 2.8806C22.673 3.25904 21.8921 3.8999 21.3427 4.72215C20.7932 5.5444 20.5 6.5111 20.5 7.5C20.5 8.82609 21.0268 10.0979 21.9645 11.0355C22.9021 11.9732 24.1739 12.5 25.5 12.5ZM25.5 6.25C25.7472 6.25 25.9889 6.32331 26.1945 6.46067C26.4 6.59802 26.5602 6.79324 26.6548 7.02165C26.7495 7.25006 26.7742 7.50139 26.726 7.74387C26.6777 7.98634 26.5587 8.20907 26.3839 8.38389C26.2091 8.5587 25.9863 8.67775 25.7439 8.72598C25.5014 8.77422 25.2501 8.74946 25.0216 8.65485C24.7932 8.56024 24.598 8.40003 24.4607 8.19447C24.3233 7.9889 24.25 7.74723 24.25 7.5C24.25 7.16848 24.3817 6.85054 24.6161 6.61612C24.8505 6.3817 25.1685 6.25 25.5 6.25ZM40.2375 30.2938L31.7125 15.9063C31.4376 15.4379 31.0445 15.05 30.5726 14.7813C30.1007 14.5126 29.5665 14.3725 29.0234 14.375C28.4806 14.3724 27.9466 14.5125 27.4749 14.7813C27.0033 15.05 26.6105 15.438 26.3359 15.9063L23.4141 20.8359L17.5672 10.9141C17.2911 10.4456 16.8975 10.0573 16.4253 9.78749C15.9532 9.51771 15.4188 9.37581 14.875 9.37581C14.3312 9.37581 13.7968 9.51771 13.3247 9.78749C12.8525 10.0573 12.4589 10.4456 12.1828 10.9141L0.759372 30.2984C0.591637 30.5832 0.50216 30.9073 0.500009 31.2378C0.497858 31.5683 0.583109 31.8935 0.747124 32.1805C0.911139 32.4674 1.14809 32.7059 1.43397 32.8718C1.71984 33.0376 2.04448 33.125 2.375 33.125H38.625C38.9559 33.1249 39.281 33.0373 39.5671 32.871C39.8532 32.7046 40.0902 32.4655 40.254 32.1779C40.4177 31.8904 40.5025 31.5646 40.4996 31.2336C40.4967 30.9027 40.4063 30.5784 40.2375 30.2938ZM14.875 13.7297L17.4641 18.125H12.2859L14.875 13.7297ZM5.65625 29.375L10.075 21.875H19.675L24.0937 29.375H5.65625ZM28.4469 29.375L25.5875 24.5313L29.025 18.7344L35.3344 29.375H28.4469Z" fill="#FF636D"/>
  </g>
  <defs>
    <clipPath id="clip0_253_5548">
      <rect width="40" height="40" fill="white" transform="translate(0.5)"/>
    </clipPath>
  </defs>
</svg>