<svg xmlns="http://www.w3.org/2000/svg" width="41" height="40" viewBox="0 0 41 40" fill="none">
  <g clip-path="url(#clip0_253_5543)">
    <path d="M25.5 14.9987H34.6667C35.7717 14.9987 36.8315 15.4377 37.6129 16.2191C38.3944 17.0005 38.8333 18.0603 38.8333 19.1654C38.8333 20.2704 38.3944 21.3302 37.6129 22.1116C36.8315 22.893 35.7717 23.332 34.6667 23.332H27.9667C27.717 23.3322 27.4706 23.3884 27.2456 23.4966C27.0205 23.6048 26.8227 23.7621 26.6667 23.957L21 31.0404C20.844 31.2353 20.6461 31.3926 20.4211 31.5008C20.1961 31.609 19.9497 31.6652 19.7 31.6654H16.2933C16.0211 31.6652 15.7531 31.5983 15.5127 31.4707C15.2723 31.343 15.0668 31.1584 14.9142 30.9329C14.7616 30.7075 14.6665 30.4481 14.6373 30.1775C14.6081 29.9068 14.6457 29.6332 14.7467 29.3804L16.25 25.617C16.3509 25.3644 16.3885 25.0908 16.3594 24.8203C16.3303 24.5498 16.2354 24.2905 16.083 24.0652C15.9306 23.8398 15.7253 23.6551 15.4851 23.5273C15.2449 23.3995 14.9771 23.3325 14.705 23.332H8.26501C7.93889 23.332 7.61994 23.2363 7.34769 23.0568C7.07543 22.8772 6.86183 22.6218 6.73334 22.322L3.16167 13.9887C3.05295 13.7351 3.0089 13.4584 3.03348 13.1836C3.05806 12.9087 3.15049 12.6443 3.30249 12.414C3.45448 12.1837 3.66129 11.9947 3.90433 11.8641C4.14738 11.7334 4.41906 11.6651 4.69501 11.6654H7.80334C8.11277 11.6655 8.41606 11.7518 8.67922 11.9146C8.94237 12.0774 9.15502 12.3102 9.29334 12.587L10.04 14.077C10.1783 14.3538 10.391 14.5867 10.6541 14.7494C10.9173 14.9122 11.2206 14.9985 11.53 14.9987H17.1667M25.5 14.9987L21 8.9987C20.8448 8.7917 20.6435 8.6237 20.412 8.50799C20.1806 8.39227 19.9254 8.33203 19.6667 8.33203H16.53C16.246 8.33218 15.9668 8.4049 15.7188 8.54327C15.4708 8.68165 15.2623 8.88109 15.113 9.12269C14.9637 9.36428 14.8787 9.64001 14.8659 9.92371C14.8531 10.2074 14.9131 10.4897 15.04 10.7437L17.1667 14.9987M25.5 14.9987H17.1667" stroke="#FF636D" stroke-width="3" stroke-linecap="round" stroke-linejoin="round"/>
  </g>
  <defs>
    <clipPath id="clip0_253_5543">
      <rect width="40" height="40" fill="white" transform="translate(0.5)"/>
    </clipPath>
  </defs>
</svg>