<svg width="69" height="69" viewBox="0 0 69 69" fill="none" xmlns="http://www.w3.org/2000/svg">
<path id="Vector" d="M34.6387 0.000185938C15.707 0.000185938 0.277387 15.3526 0.277387 34.1896C0.277387 40.2271 1.87236 46.0921 4.85427 51.267L0 69L18.2035 64.239C23.2312 66.9645 28.8829 68.4135 34.6387 68.4135C53.5703 68.4135 69 53.061 69 34.2241C69 25.0816 65.4286 16.4911 58.9447 10.0397C55.7654 6.84533 51.9789 4.31256 47.8059 2.58893C43.6329 0.865301 39.1569 -0.0147079 34.6387 0.000185938ZM34.6734 5.76167C42.3015 5.76167 49.4442 8.72866 54.8533 14.1106C57.5071 16.7517 59.6113 19.8877 61.0452 23.3391C62.4791 26.7905 63.2146 30.4894 63.2095 34.2241C63.2095 49.8871 50.3804 62.6175 34.6387 62.6175C29.507 62.6175 24.4794 61.272 20.1105 58.65L19.0703 58.0635L8.25226 60.8925L11.1301 50.4046L10.4367 49.3006C7.57456 44.7755 6.05976 39.5362 6.06784 34.1896C6.10251 18.5266 18.897 5.76167 34.6734 5.76167ZM22.4683 18.3886C21.9136 18.3886 20.9774 18.5956 20.1799 19.4581C19.4171 20.3206 17.1633 22.4251 17.1633 26.5996C17.1633 30.8086 20.2492 34.8451 20.6306 35.4316C21.1161 36.0181 26.7332 44.6431 35.3668 48.3001C37.4126 49.2316 39.0075 49.7491 40.2558 50.1286C42.3015 50.784 44.1739 50.6805 45.6648 50.4735C47.3291 50.232 50.7271 48.4036 51.4553 46.4026C52.1834 44.4016 52.1834 42.7111 51.9754 42.3316C51.7327 41.9866 51.1779 41.7796 50.311 41.4001C49.4442 40.9171 45.2141 38.8471 44.4512 38.5711C43.6538 38.2951 43.1683 38.1571 42.5095 38.9851C41.9548 39.8476 40.2904 41.7796 39.805 42.3316C39.2849 42.9181 38.7995 42.9871 37.9673 42.5731C37.0658 42.1246 34.292 41.2276 31.0327 38.3296C28.4668 36.0526 26.7678 33.2581 26.2477 32.3956C25.8317 31.5676 26.2131 31.0501 26.6291 30.6706C27.0105 30.2911 27.5653 29.6701 27.9121 29.1526C28.3628 28.6696 28.5015 28.2901 28.7789 27.7381C29.0563 27.1516 28.9176 26.6686 28.7095 26.2546C28.5015 25.8751 26.7678 21.5971 26.0397 19.9066C25.3462 18.2506 24.6528 18.4576 24.098 18.4231C23.6126 18.4231 23.0578 18.3886 22.4683 18.3886Z" fill="#F8D49E"/>
</svg>
