<svg width="88" height="88" viewBox="0 0 88 88" fill="none" xmlns="http://www.w3.org/2000/svg">
<g id="Group 7167">
<g id="Ellipse 9" filter="url(#filter0_d_14_51)">
<circle cx="44" cy="42" r="30" fill="#075E54"/>
<circle cx="44" cy="42" r="29.5" stroke="#0F6258"/>
</g>
<g id="Group 7166" filter="url(#filter1_d_14_51)">
<path id="Vector" d="M37.8261 53.1278L38.3619 53.3957C40.5947 54.7354 43.0954 55.3605 45.5961 55.3605C53.4554 55.3605 59.8858 48.9302 59.8858 41.0708C59.8858 37.3198 58.3675 33.6581 55.6882 30.9787C53.0089 28.2994 49.4365 26.7811 45.5961 26.7811C37.7368 26.7811 31.3064 33.2115 31.3957 41.1601C31.3957 43.8395 32.1995 46.4295 33.5392 48.6622L33.8964 49.1981L32.4674 54.4674L37.8261 53.1278Z" fill="#25D366"/>
<path id="Vector_2" d="M57.2064 29.5496C54.1698 26.4237 49.9722 24.7268 45.6853 24.7268C36.5756 24.7268 29.2522 32.1396 29.3415 41.16C29.3415 44.0179 30.1453 46.7866 31.4849 49.2873L29.1628 57.7718L37.826 55.539C40.2374 56.8787 42.9167 57.5038 45.596 57.5038C54.6164 57.5038 61.9399 50.091 61.9399 41.0707C61.9399 36.6944 60.243 32.5861 57.2064 29.5496ZM45.6853 54.7352C43.2739 54.7352 40.8625 54.11 38.8084 52.8597L38.2725 52.5917L33.0925 53.9314L34.4322 48.8407L34.0749 48.3048C30.1453 41.9638 32.0208 33.5686 38.4512 29.6389C44.8815 25.7092 53.1874 27.5847 57.1171 34.0151C61.0468 40.4455 59.1712 48.7514 52.7409 52.6811C50.6867 54.0207 48.186 54.7352 45.6853 54.7352ZM53.5447 44.8217L52.5622 44.3752C52.5622 44.3752 51.1333 43.75 50.2402 43.3034C50.1509 43.3034 50.0615 43.2141 49.9722 43.2141C49.7043 43.2141 49.5257 43.3034 49.3471 43.3927C49.3471 43.3927 49.2577 43.4821 48.0074 44.911C47.9181 45.0896 47.7395 45.179 47.5608 45.179H47.4715C47.3822 45.179 47.2036 45.0896 47.1143 45.0003L46.6677 44.8217C45.6853 44.3752 44.7922 43.8393 44.0777 43.1248C43.8991 42.9462 43.6312 42.7676 43.4526 42.5889C42.8274 41.9638 42.2022 41.2493 41.7557 40.4455L41.6663 40.2669C41.577 40.1776 41.577 40.0882 41.4877 39.9096C41.4877 39.731 41.4877 39.5524 41.577 39.4631C41.577 39.4631 41.9343 39.0165 42.2022 38.7486C42.3808 38.57 42.4701 38.302 42.6488 38.1234C42.8274 37.8555 42.9167 37.4982 42.8274 37.2303C42.7381 36.7838 41.6663 34.3724 41.3984 33.8365C41.2198 33.5686 41.0412 33.4793 40.7732 33.3899H39.7908C39.6122 33.3899 39.4336 33.4793 39.255 33.4793L39.1656 33.5686C38.987 33.6579 38.8084 33.8365 38.6298 33.9258C38.4512 34.1044 38.3618 34.2831 38.1832 34.4617C37.558 35.2655 37.2008 36.2479 37.2008 37.2303C37.2008 37.9448 37.3794 38.6593 37.6474 39.2845L37.7367 39.5524C38.5405 41.2493 39.6122 42.7676 41.0412 44.1072L41.3984 44.4645C41.6663 44.7324 41.9343 44.911 42.1129 45.179C43.9884 46.7866 46.1319 47.9476 48.5433 48.5728C48.8112 48.6621 49.1684 48.6621 49.4364 48.7514H50.3295C50.776 48.7514 51.3119 48.5728 51.6691 48.3941C51.9371 48.2155 52.1157 48.2155 52.2943 48.0369L52.4729 47.8583C52.6516 47.6797 52.8302 47.5903 53.0088 47.4117C53.1874 47.2331 53.366 47.0545 53.4554 46.8759C53.634 46.5186 53.7233 46.0721 53.8126 45.6255V45.0003C53.8126 45.0003 53.7233 44.911 53.5447 44.8217Z" fill="white"/>
</g>
</g>
<defs>
<filter id="filter0_d_14_51" x="0" y="0" width="88" height="88" filterUnits="userSpaceOnUse" color-interpolation-filters="sRGB">
<feFlood flood-opacity="0" result="BackgroundImageFix"/>
<feColorMatrix in="SourceAlpha" type="matrix" values="0 0 0 0 0 0 0 0 0 0 0 0 0 0 0 0 0 0 127 0" result="hardAlpha"/>
<feOffset dy="2"/>
<feGaussianBlur stdDeviation="7"/>
<feColorMatrix type="matrix" values="0 0 0 0 0.0705882 0 0 0 0 0.54902 0 0 0 0 0.376784 0 0 0 0.2 0"/>
<feBlend mode="normal" in2="BackgroundImageFix" result="effect1_dropShadow_14_51"/>
<feBlend mode="normal" in="SourceGraphic" in2="effect1_dropShadow_14_51" result="shape"/>
</filter>
<filter id="filter1_d_14_51" x="26.1628" y="23.7268" width="38.7771" height="39.045" filterUnits="userSpaceOnUse" color-interpolation-filters="sRGB">
<feFlood flood-opacity="0" result="BackgroundImageFix"/>
<feColorMatrix in="SourceAlpha" type="matrix" values="0 0 0 0 0 0 0 0 0 0 0 0 0 0 0 0 0 0 127 0" result="hardAlpha"/>
<feOffset dy="2"/>
<feGaussianBlur stdDeviation="1.5"/>
<feColorMatrix type="matrix" values="0 0 0 0 0.0554688 0 0 0 0 0.295833 0 0 0 0 0.223724 0 0 0 0.54 0"/>
<feBlend mode="normal" in2="BackgroundImageFix" result="effect1_dropShadow_14_51"/>
<feBlend mode="normal" in="SourceGraphic" in2="effect1_dropShadow_14_51" result="shape"/>
</filter>
</defs>
</svg>
